<svg width="112" height="112" fill="none" xmlns="http://www.w3.org/2000/svg"><rect width="112" height="112" rx="56" fill="#2D50E9"/><path d="M31.23 87h-1.01v-5.15h-2.24a305.2 305.2 0 0 1-.07 1.6c-.02.6-.06 1.08-.12 1.44-.06.35-.13.65-.23.89a2.18 2.18 0 0 1-.62.9c-.13.12-.26.2-.41.25-.15.05-.31.08-.49.08a9.5 9.5 0 0 1-.5-.01v-.88h.06a1.99 1.99 0 0 1 .26.01c.09 0 .17-.01.26-.04a.5.5 0 0 0 .24-.14c.18-.18.33-.48.44-.9.11-.43.19-1.05.22-1.85a48.25 48.25 0 0 0 .08-2.2h4.13v6Zm7.01-2.9h-4.42c0 .37.06.7.17.97a1.82 1.82 0 0 0 1.11 1.06c.26.09.55.13.85.13.41 0 .82-.08 1.23-.24.42-.17.71-.33.89-.49h.05v1.1c-.34.15-.68.27-1.04.36-.35.1-.73.15-1.12.15-1 0-1.77-.27-2.33-.8-.56-.55-.84-1.31-.84-2.3 0-.99.27-1.76.8-2.34a2.76 2.76 0 0 1 2.12-.87c.81 0 1.43.24 1.87.71.44.48.66 1.15.66 2.02v.55Zm-.98-.77c0-.53-.14-.94-.4-1.23-.27-.29-.67-.43-1.2-.43-.54 0-.97.16-1.3.47-.32.32-.5.72-.54 1.2h3.44Zm6.92-1.44h-2.17V87h-1v-5.11h-2.18V81h5.35v.89ZM54.21 84c0 .98-.25 1.75-.75 2.32-.5.56-1.18.85-2.02.85-.85 0-1.52-.29-2.02-.85a3.38 3.38 0 0 1-.75-2.32c0-.97.25-1.75.75-2.31.5-.57 1.17-.86 2.02-.86.84 0 1.52.29 2.02.86.5.56.75 1.34.75 2.31Zm-1.04 0c0-.77-.15-1.35-.46-1.73-.3-.38-.73-.57-1.27-.57s-.97.2-1.27.57c-.3.38-.46.96-.46 1.73 0 .75.16 1.33.46 1.72.3.38.73.58 1.27.58s.96-.2 1.27-.58c.3-.39.46-.96.46-1.72Zm7.63 3h-1.01v-5.13h-3V87h-1.01v-6h5.02v6Zm5.69-1.84c0-.18-.03-.34-.1-.48a.73.73 0 0 0-.3-.34 1.21 1.21 0 0 0-.52-.16 9.4 9.4 0 0 0-.82-.03h-.95v2.04h.93c.35 0 .63-.01.83-.04.2-.03.37-.09.5-.18.16-.09.26-.2.33-.32.06-.13.1-.3.1-.5Zm1.04-.02c0 .3-.06.55-.18.8-.11.23-.27.42-.47.57-.24.17-.49.3-.76.38-.27.07-.61.11-1.03.11h-2.3v-6h1.01v2.34h1.31c.45 0 .8.02 1.05.07.25.04.5.16.75.34.2.15.36.35.46.6.1.23.16.5.16.8Zm1-4.14h1.01v6h-1v-6Zm7.42.89h-2.17V87h-1.01v-5.11H70.6V81h5.35v.89Zm5.7 5.11h-1v-.64l-.36.26c-.15.1-.3.2-.44.26a2.9 2.9 0 0 1-1.35.29c-.54 0-1-.18-1.38-.54a1.8 1.8 0 0 1-.56-1.37c0-.45.1-.82.29-1.1.2-.28.47-.5.84-.67.36-.16.8-.27 1.31-.32.51-.06 1.06-.1 1.65-.13v-.16c0-.23-.04-.42-.12-.57a.86.86 0 0 0-.35-.35 1.44 1.44 0 0 0-.51-.17 4.45 4.45 0 0 0-2.53.37h-.05v-1.03a9.89 9.89 0 0 1 1.96-.27c.42 0 .78.03 1.1.1.31.07.58.19.81.36.23.16.4.38.52.64s.18.58.18.97V87Zm-1-1.48v-1.67l-1.09.08c-.41.04-.74.1-.99.16-.29.08-.52.21-.7.39a.94.94 0 0 0-.27.71c0 .34.1.6.31.78.21.17.53.26.95.26.36 0 .68-.07.97-.2.3-.15.57-.31.82-.5Z" fill="#fff"/><path d="m55.22 52.99.57.01H56.36c8.36-.11 14.09-2.47 17-7.05 4.1-6.4 1.76-15.41-.92-21.85a1.54 1.54 0 0 0-2.94.3C65.41 14.5 57.82 6.42 56.88 5.44c-.62-.6-1.59-.6-2.2 0-.94.98-8.53 9.05-12.6 18.95a1.54 1.54 0 0 0-2.95-.3c-2.68 6.43-5.02 15.45-.93 21.86 2.92 4.56 8.65 6.93 17.01 7.03Zm15.8-28.26c3.57 8.59 3.95 15.81 1.05 20.34-2.09 3.27-5.88 5.28-11.3 6.02 4.38-2.27 10.32-6.9 11.31-15.6a.8.8 0 0 0-.68-.88.78.78 0 0 0-.86.69c-1.23 10.76-10.74 14.77-13.9 15.82l.01-.12c.4-5.94.74-11.07 4.74-14.47A10.4 10.4 0 0 1 63.9 35c6.16-2.74 7.3-6.1 7.11-10.26ZM55.78 6.58c1 1.05 9.92 10.52 13.38 21.45-.6 2.12-2.22 3.85-5.88 5.48-1.04.45-2.01 1.05-2.89 1.78-2.78 2.36-4 5.45-4.61 8.87-.61-3.43-1.83-6.5-4.61-8.87a11.98 11.98 0 0 0-2.89-1.78c-3.66-1.63-5.27-3.36-5.88-5.47C45.86 17.1 54.78 7.64 55.8 6.58ZM40.57 24.72c-.19 4.18.95 7.53 7.1 10.27.91.39 1.76.9 2.52 1.54 4 3.4 4.35 8.53 4.74 14.47v.12c-3.15-1.04-12.66-5.06-13.9-15.82a.8.8 0 0 0-.45-.65.76.76 0 0 0-.78.09.81.81 0 0 0-.3.74c.99 8.72 6.93 13.34 11.3 15.6-5.41-.72-9.2-2.73-11.3-6-2.89-4.54-2.51-11.76 1.07-20.36Z" fill="#5773ED"/><path d="M47.92 25.26a5.93 5.93 0 0 0 3.75.4c.8-.15 1.07-.7 1.47-1.56.44-.92.92-1.81 1.46-2.68.87-1.43.04-2.22-.24-2.43a6.5 6.5 0 0 0-3.98-1.2c-.59-.08-1.18.15-1.58.61-1 1.4-1.73 2.98-2.16 4.66-.11.43-.22 1.52 1.28 2.2ZM50 19.41c.1-.02.22-.03.33-.03h.05a5.04 5.04 0 0 1 3.05.88c-.04.1-.09.21-.15.3a28.4 28.4 0 0 0-1.53 2.83c-.1.24-.22.47-.36.7-.95.2-1.94.1-2.84-.29-.3-.14-.4-.26-.4-.32.36-1.46.99-2.85 1.85-4.07Z" fill="#5773ED"/><path d="M52.6 72H36.63v-3.36a82.03 82.03 0 0 0 3.67-2.82c1.23-1 2.21-1.85 2.95-2.57 1.1-1.07 1.89-2 2.35-2.79.47-.8.7-1.58.7-2.35 0-.93-.3-1.65-.9-2.15-.6-.5-1.45-.76-2.57-.76a7.6 7.6 0 0 0-2.66.52c-.92.34-1.77.79-2.57 1.32h-.43v-4.52c.64-.29 1.6-.57 2.85-.85 1.27-.28 2.54-.42 3.8-.42 2.56 0 4.5.53 5.84 1.6a5.47 5.47 0 0 1 2.01 4.55 7.4 7.4 0 0 1-.97 3.66 14.84 14.84 0 0 1-2.94 3.58c-.83.77-1.66 1.48-2.5 2.12-.84.64-1.44 1.09-1.8 1.34h9.16V72Zm19.47-6.9c0 1.07-.2 2.05-.6 2.96-.39.9-.96 1.68-1.72 2.33-.84.69-1.8 1.2-2.9 1.54-1.08.33-2.32.5-3.72.5-1.63-.02-3.01-.15-4.14-.4a15.15 15.15 0 0 1-2.75-.84v-4.5h.58c.83.5 1.72.9 2.68 1.24a8.77 8.77 0 0 0 4.71.3c.68-.14 1.21-.38 1.6-.73.31-.28.54-.57.7-.86.16-.3.25-.74.25-1.35 0-.48-.11-.88-.33-1.22a2.48 2.48 0 0 0-.82-.83 4.5 4.5 0 0 0-1.78-.6 12.48 12.48 0 0 0-4.25.07 36 36 0 0 0-1.97.42H57V51.64h14.48v3.9h-9.55v3.32l1.07-.04 1.15-.03c1.12 0 2.12.11 3 .33a8 8 0 0 1 2.28.89c.83.5 1.47 1.17 1.94 2 .46.82.7 1.85.7 3.1Z" fill="#fff"/></svg>