<svg width="112" height="112" viewBox="0 0 112 112" fill="none" xmlns="http://www.w3.org/2000/svg">
<rect width="112" height="112" rx="56" fill="#2D50E9"/>
<path d="M33.4294 81.643V87H32.4944V82.38H31.3284C31.1011 82.38 30.9361 82.4313 30.8334 82.534C30.7381 82.6293 30.6721 82.8017 30.6354 83.051C30.5768 83.535 30.5108 84.0337 30.4374 84.547C30.3641 85.053 30.2578 85.493 30.1184 85.867C29.8471 86.6517 29.2861 87.0477 28.4354 87.055L28.3364 86.34C28.6371 86.2667 28.8498 86.1713 28.9744 86.054C29.1064 85.9367 29.2091 85.7827 29.2824 85.592C29.3778 85.3573 29.4548 85.0787 29.5134 84.756C29.5721 84.4333 29.6198 84.107 29.6564 83.777C29.7004 83.4397 29.7334 83.1463 29.7554 82.897C29.8068 82.4863 29.9388 82.1747 30.1514 81.962C30.3714 81.7493 30.7051 81.643 31.1524 81.643H33.4294ZM37.3732 81.511C38.1799 81.511 38.7629 81.6577 39.1222 81.951C39.4889 82.2443 39.6759 82.6807 39.6832 83.26C39.6832 83.7367 39.5805 84.1107 39.3752 84.382C39.1772 84.646 38.8545 84.778 38.4072 84.778H35.9102C35.9395 85.2033 36.0165 85.5297 36.1412 85.757C36.2732 85.977 36.4565 86.131 36.6912 86.219C36.9259 86.2997 37.2265 86.34 37.5932 86.34C37.8865 86.34 38.2019 86.329 38.5392 86.307C38.8839 86.2777 39.1919 86.2447 39.4632 86.208L39.5512 86.835C39.3899 86.901 39.1845 86.956 38.9352 87C38.6859 87.044 38.4292 87.077 38.1652 87.099C37.9085 87.121 37.6775 87.132 37.4722 87.132C36.8635 87.132 36.3685 87.0403 35.9872 86.857C35.6132 86.6663 35.3419 86.3657 35.1732 85.955C35.0045 85.537 34.9202 84.987 34.9202 84.305C34.9202 83.601 35.0045 83.0473 35.1732 82.644C35.3492 82.2333 35.6169 81.9437 35.9762 81.775C36.3355 81.599 36.8012 81.511 37.3732 81.511ZM37.4172 82.303C37.0432 82.303 36.7462 82.3543 36.5262 82.457C36.3135 82.5597 36.1559 82.7393 36.0532 82.996C35.9579 83.2453 35.9029 83.5973 35.8882 84.052H38.1652C38.3999 84.052 38.5539 83.9713 38.6272 83.81C38.7079 83.6413 38.7445 83.458 38.7372 83.26C38.7372 82.9153 38.6382 82.6697 38.4402 82.523C38.2422 82.3763 37.9012 82.303 37.4172 82.303ZM45.1338 81.643V82.413H43.1978V87H42.2628V82.413H40.3158V81.643H45.1338ZM51.0176 81.511C51.6336 81.511 52.1249 81.6027 52.4916 81.786C52.8582 81.9693 53.1222 82.27 53.2836 82.688C53.4522 83.0987 53.5366 83.645 53.5366 84.327C53.5366 85.009 53.4522 85.559 53.2836 85.977C53.1222 86.3877 52.8582 86.6847 52.4916 86.868C52.1249 87.0513 51.6336 87.143 51.0176 87.143C50.4016 87.143 49.9066 87.0513 49.5326 86.868C49.1659 86.6847 48.8982 86.3877 48.7296 85.977C48.5682 85.559 48.4876 85.009 48.4876 84.327C48.4876 83.645 48.5682 83.0987 48.7296 82.688C48.8982 82.27 49.1659 81.9693 49.5326 81.786C49.9066 81.6027 50.4016 81.511 51.0176 81.511ZM51.0176 82.303C50.6289 82.303 50.3209 82.3653 50.0936 82.49C49.8662 82.6073 49.7049 82.8127 49.6096 83.106C49.5142 83.3993 49.4666 83.8063 49.4666 84.327C49.4666 84.8477 49.5142 85.2547 49.6096 85.548C49.7049 85.8413 49.8662 86.0503 50.0936 86.175C50.3209 86.2923 50.6289 86.351 51.0176 86.351C51.4062 86.351 51.7106 86.2923 51.9306 86.175C52.1579 86.0503 52.3192 85.8413 52.4146 85.548C52.5099 85.2547 52.5576 84.8477 52.5576 84.327C52.5576 83.8063 52.5099 83.3993 52.4146 83.106C52.3192 82.8127 52.1579 82.6073 51.9306 82.49C51.7106 82.3653 51.4062 82.303 51.0176 82.303ZM59.6118 81.643V87H58.6878V82.402H55.9378V87H55.0248V81.643H59.6118ZM63.5299 83.722C64.0652 83.722 64.4832 83.7733 64.7839 83.876C65.0846 83.9787 65.2972 84.1547 65.4219 84.404C65.5539 84.646 65.6199 84.976 65.6199 85.394C65.6199 85.8267 65.5539 86.1677 65.4219 86.417C65.2899 86.659 65.0809 86.8277 64.7949 86.923C64.5089 87.0183 64.1349 87.066 63.6729 87.066C63.3209 87.066 63.0166 87.0623 62.7599 87.055C62.5032 87.055 62.2686 87.0477 62.0559 87.033C61.8432 87.0257 61.6196 87.0147 61.3849 87H61.3519V81.643H62.2649V83.722H63.5299ZM67.5449 81.643V87H66.5989V81.643H67.5449ZM63.5299 84.415H62.2649V86.318C62.6096 86.3253 63.0312 86.329 63.5299 86.329C63.9552 86.329 64.2522 86.2667 64.4209 86.142C64.5896 86.0173 64.6739 85.757 64.6739 85.361C64.6739 85.009 64.5932 84.7633 64.4319 84.624C64.2779 84.4847 63.9772 84.415 63.5299 84.415ZM73.5146 81.643V82.413H71.5786V87H70.6436V82.413H68.6966V81.643H73.5146ZM77.2132 81.511C77.8072 81.511 78.2582 81.6357 78.5662 81.885C78.8816 82.127 79.0392 82.5743 79.0392 83.227V87H78.3022L78.1922 86.12C78.0529 86.2593 77.8732 86.406 77.6532 86.56C77.4332 86.7067 77.1802 86.835 76.8942 86.945C76.6156 87.0477 76.3112 87.099 75.9812 87.099C75.5046 87.099 75.1196 86.9707 74.8262 86.714C74.5329 86.4573 74.3862 86.087 74.3862 85.603V85.02C74.3862 84.602 74.5146 84.2793 74.7712 84.052C75.0352 83.8173 75.4019 83.7 75.8712 83.7H78.1042V83.227C78.0969 82.897 78.0199 82.6623 77.8732 82.523C77.7266 82.3763 77.4406 82.303 77.0152 82.303C76.7292 82.303 76.3736 82.3177 75.9482 82.347C75.5302 82.3763 75.1159 82.4093 74.7052 82.446L74.6172 81.753C74.9912 81.6943 75.4166 81.6393 75.8932 81.588C76.3699 81.5367 76.8099 81.511 77.2132 81.511ZM76.1682 86.296C76.4322 86.3033 76.7402 86.241 77.0922 86.109C77.4516 85.9697 77.7889 85.7607 78.1042 85.482V84.404L76.0362 84.415C75.7796 84.4223 75.5962 84.492 75.4862 84.624C75.3836 84.7487 75.3322 84.9247 75.3322 85.152V85.493C75.3322 85.7717 75.3982 85.977 75.5302 86.109C75.6696 86.2337 75.8822 86.296 76.1682 86.296Z" fill="white"/>
<path d="M55.2211 52.9905H55.2257C55.4019 53.0001 55.5835 53.0001 55.79 53.0001H55.8979C56.0531 53.0001 56.2083 53.0001 56.355 52.9929H56.3597C64.7218 52.8888 70.4474 50.5268 73.3687 45.955C77.4582 39.5518 75.1205 30.5354 72.4374 24.0962C72.1451 23.3789 71.3908 22.9868 70.6577 23.171C70.0683 23.3041 69.6112 23.7845 69.4935 24.3948C65.4226 14.4963 57.832 6.42915 56.889 5.45027C56.2707 4.84752 55.3028 4.85034 54.6879 5.45668C53.748 6.43316 46.1581 14.5011 42.0857 24.3964C41.9679 23.7861 41.5109 23.3057 40.9215 23.1726C40.1886 22.9898 39.4351 23.3815 39.1418 24.0978C36.4641 30.533 34.1225 39.5534 38.212 45.9566C41.1334 50.5244 46.8589 52.8864 55.2211 52.9905ZM71.0124 24.7254C74.5896 33.3168 74.966 40.5427 72.0718 45.0714C69.9801 48.345 66.1887 50.354 60.772 51.0879C65.1549 48.8236 71.09 44.1957 72.0835 35.485C72.1262 35.0503 71.8229 34.6605 71.4021 34.6094C70.9813 34.5582 70.5984 34.8646 70.542 35.2978C69.3142 46.059 59.8011 50.0722 56.6437 51.1167L56.6515 51.0015C57.0465 45.0586 57.3873 39.9256 61.3906 36.5328C62.1539 35.8982 62.9999 35.3774 63.9037 34.9856C70.0616 32.2451 71.1987 28.8978 71.0124 24.7254ZM55.79 6.57723C56.799 7.62814 65.7145 17.1008 69.166 28.035C68.5621 30.1472 66.9509 31.8817 63.2852 33.5121C62.2481 33.9639 61.2775 34.5633 60.4018 35.293C57.6155 37.6541 56.4047 40.7356 55.79 44.1637C55.1753 40.7332 53.9645 37.6541 51.1782 35.293C50.3024 34.5633 49.3319 33.9639 48.2948 33.5121C44.6299 31.8817 43.0171 30.1504 42.414 28.0358C45.8647 17.1048 54.781 7.63135 55.79 6.57723ZM40.5699 24.7157C40.3813 28.8978 41.5183 32.2451 47.6793 34.9856C48.5832 35.3774 49.4292 35.8982 50.1925 36.5328C54.1958 39.9256 54.5388 45.0586 54.9316 51.0015L54.9393 51.1167C51.7789 50.0762 42.2658 46.059 41.0379 35.2978C41.0096 35.0102 40.8332 34.7607 40.5763 34.645C40.3195 34.5294 40.0221 34.5655 39.7983 34.7396C39.5746 34.9136 39.4592 35.1986 39.4965 35.485C40.4899 44.1957 46.4251 48.8236 50.8079 51.0879C45.3897 50.3588 41.5998 48.345 39.5081 45.0714C36.6139 40.5427 36.9903 33.3168 40.5699 24.7157Z" fill="#5773ED"/>
<path d="M47.9207 25.2642C48.6986 25.6135 49.5388 25.7912 50.3873 25.7861C50.8165 25.7851 51.2449 25.7444 51.6671 25.6644C52.4673 25.5147 52.7351 24.9537 53.1418 24.1044C53.5761 23.1815 54.0617 22.2851 54.5963 21.4199C55.4733 19.988 54.6413 19.1988 54.3634 18.9907C53.1965 18.1599 51.8022 17.7364 50.3849 17.7821C49.7923 17.714 49.2041 17.9443 48.8047 18.4008C47.7991 19.7941 47.065 21.3752 46.6432 23.0567C46.5283 23.4921 46.4181 24.5783 47.9207 25.2642ZM49.9992 19.4109C50.1072 19.3867 50.2179 19.3772 50.3283 19.3829H50.3779C51.4588 19.3392 52.5257 19.6472 53.4274 20.2634C53.3929 20.3691 53.3446 20.4696 53.2838 20.5619C52.7215 21.4745 52.2108 22.4197 51.754 23.3929C51.65 23.6324 51.5297 23.864 51.3939 24.086C50.4404 24.286 49.4506 24.1864 48.5525 23.8003C48.2536 23.6634 48.1496 23.541 48.1458 23.4849C48.5066 22.0177 49.1356 20.6349 49.9992 19.4109Z" fill="#5773ED"/>
<path d="M46.0926 52.344C47.418 52.344 48.566 52.4653 49.5366 52.708C50.526 52.932 51.2913 53.3707 51.8326 54.024C52.374 54.6773 52.6446 55.6107 52.6446 56.824C52.6446 57.5707 52.5513 58.2613 52.3646 58.896C52.1966 59.512 51.8793 60.156 51.4126 60.828C50.9646 61.5 50.3113 62.2933 49.4526 63.208L44.3846 68.444C44.8513 68.3693 45.318 68.3227 45.7846 68.304C46.27 68.2667 46.7553 68.248 47.2406 68.248H53.2046V72H39.3726V69.704C39.3726 69.368 39.4193 69.06 39.5126 68.78C39.606 68.5 39.7646 68.2293 39.9886 67.968L44.8046 62.816C45.9433 61.64 46.8113 60.5947 47.4086 59.68C48.006 58.7653 48.2953 57.9627 48.2766 57.272C48.258 56.6747 48.0246 56.3013 47.5766 56.152C47.1473 56.0027 46.494 55.928 45.6166 55.928C44.9633 55.928 44.3473 55.9373 43.7686 55.956C43.2086 55.9747 42.6113 56.0027 41.9766 56.04C41.342 56.0587 40.5953 56.1053 39.7366 56.18L39.5406 53.016C40.922 52.736 42.1073 52.5587 43.0966 52.484C44.1046 52.3907 45.1033 52.344 46.0926 52.344ZM68.1302 52.68L67.9902 55.9H59.9542L59.7302 59.54L62.5582 59.848C64.1262 59.9973 65.3582 60.352 66.2542 60.912C67.1502 61.4533 67.7848 62.1627 68.1582 63.04C68.5315 63.9173 68.7182 64.9347 68.7182 66.092C68.7182 66.932 68.6155 67.7253 68.4102 68.472C68.2048 69.2187 67.8502 69.8907 67.3462 70.488C66.8608 71.0667 66.1702 71.524 65.2742 71.86C64.3968 72.1773 63.2862 72.336 61.9422 72.336C61.0462 72.336 60.0288 72.28 58.8902 72.168C57.7702 72.0747 56.6315 71.9253 55.4742 71.72L55.8662 68.472C56.7808 68.584 57.6675 68.668 58.5262 68.724C59.4035 68.78 60.1782 68.808 60.8502 68.808C61.8395 68.808 62.5862 68.7053 63.0902 68.5C63.6128 68.2947 63.9675 67.9867 64.1542 67.576C64.3595 67.1467 64.4715 66.6147 64.4902 65.98C64.5275 65.1587 64.3968 64.552 64.0982 64.16C63.7995 63.768 63.3048 63.4973 62.6142 63.348C61.9422 63.18 61.0368 63.0587 59.8982 62.984L57.4902 62.732C57.0982 62.676 56.7808 62.508 56.5382 62.228C56.2955 61.948 56.1835 61.612 56.2022 61.22L56.7062 52.68H68.1302Z" fill="white"/>
</svg>
