<svg width="112" height="112" fill="none" xmlns="http://www.w3.org/2000/svg"><rect width="112" height="112" rx="56" fill="#2D50E9"/><path d="M31.2 87h-1v-5.2H28a305.2 305.2 0 0 1 0 1.6l-.2 1.5-.2.9a2.2 2.2 0 0 1-.7.9l-.4.2-.5.1a9.5 9.5 0 0 1-.5 0v-.9h.1a2 2 0 0 1 .3 0h.2a.5.5 0 0 0 .3-.2c.1-.1.3-.4.4-.9l.2-1.8a48.3 48.3 0 0 0 .1-2.2h4.1v6Zm7-2.9h-4.4c0 .4 0 .7.2 1a1.8 1.8 0 0 0 1.1 1l.8.2c.5 0 .9-.1 1.3-.3l.9-.5v1.1a6.4 6.4 0 0 1-2.1.5c-1 0-1.8-.2-2.4-.8a3 3 0 0 1-.8-2.3c0-1 .3-1.7.8-2.3a2.8 2.8 0 0 1 2.1-.9c.8 0 1.4.3 1.9.7.4.5.6 1.2.6 2v.6Zm-1-.8c0-.5 0-1-.3-1.2-.3-.3-.7-.4-1.2-.4-.6 0-1 .1-1.3.4-.4.4-.5.8-.6 1.2h3.5Zm7-1.4H42V87h-1v-5.1h-2.2V81h5.4v.9Zm10 2.1c0 1-.2 1.8-.7 2.3-.5.6-1.2.9-2 .9-1 0-1.6-.3-2-.9a3.4 3.4 0 0 1-.8-2.3c0-1 .2-1.8.7-2.3.5-.6 1.2-.9 2-.9.9 0 1.6.3 2 .9.6.5.8 1.3.8 2.3Zm-1 0c0-.8-.2-1.4-.5-1.7-.3-.4-.7-.6-1.3-.6s-1 .2-1.2.6c-.3.3-.5 1-.5 1.7 0 .8.2 1.3.5 1.7.3.4.7.6 1.2.6s1-.2 1.3-.6c.3-.4.5-1 .5-1.7Zm7.6 3h-1v-5.1h-3V87h-1v-6h5v6Zm5.7-1.8-.1-.5a.7.7 0 0 0-.3-.4 1.2 1.2 0 0 0-.5-.1 9.4 9.4 0 0 0-.8 0h-1v2h1.8l.5-.2.3-.4v-.5Zm1 0-.1.7-.5.6-.8.4-1 .1h-2.3v-6h1v2.3h1.3l1 .1c.3 0 .6.2.8.3l.5.6.1.8Zm1-4.2h1v6h-1v-6Zm7.5.9h-2.2V87h-1v-5.1h-2.2V81h5.3v.9Zm5.7 5.1h-1v-.6l-.4.2-.4.3a2.9 2.9 0 0 1-1.4.3 2 2 0 0 1-1.4-.6 1.8 1.8 0 0 1-.5-1.3c0-.5 0-.9.3-1.1.2-.3.4-.5.8-.7a25.2 25.2 0 0 1 3-.4v-.2c0-.2 0-.4-.2-.6a.9.9 0 0 0-.3-.3 1.4 1.4 0 0 0-.5-.2 4.5 4.5 0 0 0-2.6.4v-1a9.9 9.9 0 0 1 2-.3h1l.9.4.5.7.2 1v4Zm-1-1.5v-1.7l-1.1.1-1 .2c-.3 0-.5.2-.7.4a1 1 0 0 0-.3.7c0 .3.1.6.3.8l1 .2c.3 0 .6 0 1-.2l.8-.5Z" fill="#fff"/><path d="M55.2 53h1.2c8.3-.1 14-2.5 17-7 4-6.4 1.7-15.5-1-21.9a1.5 1.5 0 0 0-2.9.3c-4-9.9-11.7-18-12.6-19-.6-.6-1.6-.6-2.2 0-1 1-8.6 9-12.6 19a1.5 1.5 0 0 0-3-.3c-2.7 6.4-5 15.4-.9 21.8 3 4.6 8.6 7 17 7ZM71 24.7c3.6 8.6 4 15.8 1 20.4-2 3.2-5.8 5.2-11.2 6A20 20 0 0 0 72 35.5a.8.8 0 0 0-.7-.9.8.8 0 0 0-.9.7c-1.2 10.8-10.7 14.8-13.9 15.8V51c.4-6 .8-11 4.8-14.5a10.4 10.4 0 0 1 2.5-1.5c6.2-2.7 7.3-6.1 7.1-10.3ZM55.8 6.6c1 1 9.9 10.5 13.4 21.4-.6 2.2-2.3 3.9-6 5.5-1 .5-2 1-2.8 1.8-2.8 2.4-4 5.4-4.6 8.9-.6-3.5-1.9-6.5-4.6-9a12 12 0 0 0-3-1.7C44.7 32 43 30.2 42.5 28A62.6 62.6 0 0 1 55.8 6.6ZM40.6 24.7c-.2 4.2 1 7.5 7 10.3 1 .4 1.8.9 2.6 1.5 4 3.4 4.3 8.6 4.7 14.5v.1c-3.1-1-12.6-5-13.9-15.8a.8.8 0 0 0-.4-.7.8.8 0 0 0-.8.1.8.8 0 0 0-.3.8A20 20 0 0 0 50.8 51c-5.4-.7-9.2-2.8-11.3-6-2.9-4.6-2.5-11.8 1-20.4Z" fill="#5773ED"/><path d="M48 25.3a6 6 0 0 0 3.7.4c.8-.2 1-.7 1.4-1.6l1.5-2.7c.9-1.4 0-2.2-.2-2.4a6.5 6.5 0 0 0-4-1.2c-.6 0-1.2.1-1.6.6a14 14 0 0 0-2.2 4.7c0 .4-.2 1.5 1.3 2.2Zm2-5.9h.3a5 5 0 0 1 3.1.9l-.1.3a28.4 28.4 0 0 0-1.6 2.8l-.3.7c-1 .2-2 0-2.9-.3l-.4-.3c.4-1.5 1-2.9 1.9-4Z" fill="#5773ED"/><path d="M52.6 72h-16v-3.4a82 82 0 0 0 3.7-2.8l3-2.5c1-1.1 1.8-2 2.3-2.8.5-.8.7-1.6.7-2.4 0-1-.3-1.6-.9-2.1-.6-.5-1.4-.8-2.6-.8a7.6 7.6 0 0 0-2.6.5L37.6 57h-.4v-4.5c.6-.3 1.6-.5 2.8-.8 1.3-.3 2.6-.4 3.8-.4 2.6 0 4.5.5 5.9 1.6a5.5 5.5 0 0 1 2 4.5 7.4 7.4 0 0 1-1 3.7 14.8 14.8 0 0 1-3 3.5 34 34 0 0 1-4.2 3.5h9.1V72Zm19.5-6.9c0 1-.2 2-.6 3-.4.9-1 1.6-1.8 2.3-.8.7-1.8 1.2-2.9 1.5-1 .4-2.3.5-3.7.5-1.6 0-3-.1-4.1-.4a15.2 15.2 0 0 1-2.8-.8v-4.5h.6c.8.5 1.7.9 2.7 1.2a8.8 8.8 0 0 0 4.7.3c.7-.1 1.2-.4 1.6-.7l.7-.9c.2-.3.3-.7.3-1.3 0-.5-.2-.9-.4-1.2a2.5 2.5 0 0 0-.8-.9 4.5 4.5 0 0 0-1.8-.6 12.5 12.5 0 0 0-4.2.1 36 36 0 0 0-2 .4H57V51.6h14.5v4h-9.6v3.3H63l1.2-.1 3 .3a8 8 0 0 1 2.2 1c.9.4 1.5 1 2 2 .4.7.7 1.8.7 3Z" fill="#fff"/></svg>