<svg width="137" height="136" fill="none" xmlns="http://www.w3.org/2000/svg"><rect x=".92" y=".78" width="135.22" height="135.22" rx="64" fill="#2D50E9"/><path d="M37.87 70.13c1.33 0 2.48.12 3.45.36.99.23 1.75.66 2.3 1.32.54.65.8 1.58.8 2.8a6.38 6.38 0 0 1-1.23 4c-.44.67-1.1 1.47-1.96 2.38l-5.06 5.24a18.94 18.94 0 0 1 2.86-.2h5.96v3.75H31.15v-2.3a2.44 2.44 0 0 1 .62-1.74l4.82-5.14c1.14-1.18 2-2.22 2.6-3.14.6-.91.89-1.71.87-2.4-.02-.6-.25-.98-.7-1.12a6.38 6.38 0 0 0-1.96-.23 57.37 57.37 0 0 0-3.64.11c-.64.02-1.38.07-2.24.14l-.2-3.16a32.46 32.46 0 0 1 6.55-.67Zm22.97 4.09v8.28h2.35v2.55l-2.35.4v4.33h-3.92v-4.34h-7.9c-.52 0-.97-.14-1.34-.42a2.05 2.05 0 0 1-.76-1.09c-.11-.47-.07-.94.14-1.43l5.1-12.04h4l-4.65 11.12c-.13.3-.14.53-.03.7.14.15.34.22.62.22h4.82v-5.2l.7-3.08h3.22Zm12-4.15c1.85 0 3.31.33 4.4.98a5.42 5.42 0 0 1 2.35 3.2c.48 1.45.73 3.4.73 5.87s-.25 4.44-.73 5.91a5.42 5.42 0 0 1-2.35 3.17 8.68 8.68 0 0 1-4.4.95 8.84 8.84 0 0 1-4.42-.95 5.46 5.46 0 0 1-2.33-3.17c-.46-1.47-.7-3.44-.7-5.9 0-2.47.24-4.43.7-5.89a5.46 5.46 0 0 1 2.33-3.19 8.63 8.63 0 0 1 4.42-.98Zm-.03 3.33c-.82 0-1.46.2-1.93.6-.47.36-.8 1.04-.98 2-.19.96-.28 2.33-.28 4.12 0 1.8.1 3.18.28 4.15.19.95.51 1.61.98 1.99.47.37 1.11.56 1.93.56.84 0 1.5-.2 1.96-.56.49-.38.82-1.04 1.01-2 .2-.96.3-2.34.3-4.14 0-1.79-.1-3.16-.3-4.11-.19-.97-.52-1.65-1-2.02a2.96 2.96 0 0 0-1.97-.59Zm21.25-2.94c.7 0 1.2.22 1.54.65.34.43.4.97.2 1.62l-5.91 17.05h-4.2l4.96-14.02a7.8 7.8 0 0 1 .8-1.82h-8.87l-.17-3.48h11.65ZM47.04 97.89l1.03 2.9a4.05 4.05 0 0 1 .14.47h.12l.08-.24.08-.23 1.02-2.9h.73l-1.55 4.1c-.07.18-.16.37-.28.6-.11.22-.27.4-.46.55-.2.14-.42.23-.66.26-.24.03-.5.03-.79 0l.07-.48c.17 0 .33 0 .5-.03a.94.94 0 0 0 .43-.15c.11-.08.21-.19.3-.33.1-.14.18-.3.25-.46l.07-.17h-.15c-.13 0-.21-.06-.25-.17l-1.41-3.72h.73Zm4.48 0v1.46c0 .2.04.33.12.4.08.08.22.12.4.12.22 0 .43-.02.63-.05.2-.05.43-.12.67-.22v-1.71h.68v3.9h-.68v-1.65a4.84 4.84 0 0 1-1.52.3c-.65 0-.97-.3-.97-.86v-1.7h.67Zm6.86 0v.56h-1.41v3.33h-.68v-3.33h-1.42v-.56h3.5Zm2.69-.1c.43 0 .76.1.98.27.23.18.34.5.34.98v2.74h-.53l-.08-.64a2.9 2.9 0 0 1-.95.6c-.2.08-.42.12-.66.12-.35 0-.63-.1-.84-.28-.21-.2-.32-.46-.32-.81v-.43c0-.3.1-.54.28-.7.2-.17.46-.26.8-.26h1.62v-.34c0-.24-.06-.41-.16-.51-.11-.1-.32-.16-.63-.16a47.23 47.23 0 0 0-1.68.1l-.06-.5a19.48 19.48 0 0 1 1.89-.18Zm-.76 3.48c.19 0 .41-.04.67-.13.26-.1.5-.26.73-.46v-.78h-1.5c-.19 0-.32.06-.4.16a.59.59 0 0 0-.11.38v.25c0 .2.05.35.14.45.1.09.26.13.47.13Zm4-3.38v1.57h2.04v-1.57h.68v3.9h-.68v-1.81h-2.04v1.8h-.68v-3.9h.68Zm5.64-.1c.44 0 .8.07 1.07.2.26.13.46.35.57.66.13.3.19.7.19 1.19 0 .5-.06.9-.19 1.2-.11.3-.3.51-.57.65-.27.13-.63.2-1.07.2-.45 0-.81-.07-1.08-.2a1.2 1.2 0 0 1-.59-.65 3.4 3.4 0 0 1-.17-1.2c0-.5.05-.9.17-1.2.12-.3.32-.52.59-.65.27-.13.63-.2 1.08-.2Zm0 .58c-.29 0-.51.04-.68.13a.73.73 0 0 0-.35.45 3 3 0 0 0-.1.89c0 .38.03.67.1.89.07.21.19.36.35.45.17.09.4.13.68.13s.5-.04.66-.13a.76.76 0 0 0 .35-.45c.07-.22.1-.51.1-.9 0-.37-.03-.67-.1-.88a.73.73 0 0 0-.35-.45c-.16-.09-.38-.13-.66-.13Zm4.5-.52c.4 0 .72.03.95.09.24.05.42.16.52.3.11.16.16.37.16.65 0 .27-.06.49-.2.63-.12.14-.34.22-.64.25v.02c.37.03.62.13.76.3.15.18.22.42.22.73 0 .27-.05.48-.16.63a.83.83 0 0 1-.5.3c-.22.06-.52.09-.9.09a24.8 24.8 0 0 1-1.8-.05v-3.9a7.78 7.78 0 0 1 .96-.03l.62-.01Zm-.03.53H73.5v1.16h1.02c.34 0 .57-.04.7-.12.15-.08.22-.24.22-.48 0-.22-.08-.37-.23-.44a1.95 1.95 0 0 0-.79-.12Zm.1 1.64H73.5v1.28h1.06c.37 0 .62-.04.76-.12.15-.08.22-.25.22-.5s-.08-.42-.22-.51c-.15-.1-.42-.15-.8-.15Zm6-2.13v3.9h-.69v-3.37H79c-.17 0-.29.04-.36.12-.07.06-.12.19-.15.37l-.14 1.09c-.06.37-.13.69-.23.96-.2.57-.61.86-1.23.86l-.07-.52c.22-.05.37-.12.46-.2.1-.09.17-.2.23-.34.07-.17.12-.37.17-.6a10.3 10.3 0 0 0 .17-1.36c.04-.3.13-.53.29-.68.16-.16.4-.23.73-.23h1.65Zm2.86-.1c.59 0 1.01.1 1.27.32.27.21.4.53.41.95 0 .35-.07.62-.22.82-.15.2-.38.29-.7.29h-1.82c.02.3.07.54.17.7.1.17.22.28.4.34.17.06.38.1.65.1a10.61 10.61 0 0 0 1.36-.1l.07.45a6.17 6.17 0 0 1-1.51.22c-.45 0-.8-.07-1.09-.2a1.23 1.23 0 0 1-.59-.66c-.12-.3-.18-.7-.18-1.2s.06-.91.18-1.2c.13-.3.32-.51.59-.64.26-.12.6-.19 1.01-.19Zm.03.58c-.27 0-.48.03-.64.1a.7.7 0 0 0-.35.4c-.07.18-.1.44-.12.77h1.66c.17 0 .28-.06.33-.18a.84.84 0 0 0 .08-.4c0-.25-.07-.43-.21-.53-.15-.1-.4-.16-.75-.16Zm3.36-.48v1.57h2.05v-1.57h.67v3.9h-.67v-1.81h-2.05v1.8h-.67v-3.9h.67Zm5.64-.1c.45 0 .8.07 1.08.2.26.13.45.35.57.66.12.3.19.7.19 1.19 0 .5-.07.9-.19 1.2-.12.3-.3.51-.57.65-.27.13-.63.2-1.08.2-.44 0-.8-.07-1.08-.2a1.2 1.2 0 0 1-.58-.65 3.4 3.4 0 0 1-.18-1.2c0-.5.06-.9.18-1.2.12-.3.32-.52.58-.65.28-.13.64-.2 1.08-.2Zm0 .58c-.28 0-.5.04-.67.13a.73.73 0 0 0-.35.45c-.07.21-.1.51-.1.89s.03.67.1.89c.07.21.19.36.35.45.17.09.4.13.67.13.29 0 .5-.04.67-.13a.76.76 0 0 0 .35-.45c.07-.22.1-.51.1-.9a3 3 0 0 0-.1-.88.73.73 0 0 0-.35-.45c-.16-.09-.38-.13-.67-.13Zm-49.13 9.42c.17 0 .38.02.61.04.24.02.45.07.64.14l-.08.45a9.35 9.35 0 0 0-1.06-.05c-.3 0-.55.04-.74.13a.77.77 0 0 0-.39.44c-.08.22-.12.51-.12.9 0 .37.04.67.12.89.08.21.21.36.4.44.18.1.43.13.73.13a11.2 11.2 0 0 0 1.15-.08l.07.46a4.97 4.97 0 0 1-1.33.2c-.45 0-.81-.07-1.08-.2a1.2 1.2 0 0 1-.6-.65c-.11-.3-.17-.7-.17-1.2s.06-.9.18-1.2c.12-.3.32-.51.59-.64.27-.13.63-.2 1.08-.2Zm5.7.1v3.9h-.62v-2.6a3.76 3.76 0 0 1 .02-.51h-.01l-.13.24-.15.22-1.98 2.64h-.56v-3.9h.62v2.6a4.03 4.03 0 0 1-.03.51h.02c.08-.17.18-.32.28-.45l1.98-2.65h.55Zm2.93-.1c.18 0 .38.02.62.04.23.02.44.07.64.14l-.1.45a9.36 9.36 0 0 0-1.05-.05c-.3 0-.55.04-.73.13a.77.77 0 0 0-.4.44c-.08.22-.12.51-.12.9 0 .37.04.67.12.89.08.21.21.36.4.44.18.1.43.13.73.13a11.21 11.21 0 0 0 1.15-.08l.07.46a4.97 4.97 0 0 1-1.33.2c-.45 0-.8-.07-1.08-.2a1.2 1.2 0 0 1-.6-.65c-.1-.3-.17-.7-.17-1.2s.06-.9.18-1.2c.12-.3.32-.51.59-.64.27-.13.63-.2 1.08-.2Zm5.35.1v.56h-1.4v3.33h-.68v-3.33h-1.42v-.56h3.5Zm2.38-.1c.59 0 1.01.1 1.28.32.26.22.4.53.4.95 0 .35-.07.62-.22.82-.14.2-.38.29-.7.29h-1.82c.02.3.08.54.17.7.1.17.23.28.4.34s.39.1.65.1a10.6 10.6 0 0 0 1.36-.1l.07.45a6.17 6.17 0 0 1-1.51.22c-.45 0-.8-.07-1.08-.2a1.23 1.23 0 0 1-.6-.66c-.12-.3-.18-.7-.18-1.2s.06-.91.18-1.2c.13-.3.33-.51.59-.64.26-.13.6-.19 1.01-.19Zm.04.58c-.28 0-.5.03-.65.1a.7.7 0 0 0-.35.4c-.07.18-.1.44-.12.77h1.66c.17 0 .28-.06.34-.18a.84.84 0 0 0 .08-.4c0-.25-.08-.43-.22-.53-.14-.1-.4-.16-.74-.16Zm7.06-.48c.17 0 .26.08.26.25l.16 3.64h-.63l-.15-3.37h-.14l-.99 2.73a.39.39 0 0 1-.1.16.25.25 0 0 1-.17.06h-.53a.26.26 0 0 1-.17-.06.54.54 0 0 1-.1-.16l-1-2.73h-.13l-.14 3.37h-.63l.16-3.64c0-.17.1-.25.27-.25h.7c.13 0 .22.07.27.22l.8 2.24a3.53 3.53 0 0 1 .17.56h.13a11.54 11.54 0 0 1 .17-.56l.8-2.24c.05-.15.14-.22.28-.22h.7Zm5.05-.1c.44 0 .8.07 1.07.2.26.14.46.35.57.66.13.3.19.7.19 1.19 0 .5-.06.9-.19 1.2-.11.3-.3.51-.57.65-.27.13-.63.2-1.07.2-.45 0-.81-.07-1.08-.2a1.2 1.2 0 0 1-.59-.65 3.4 3.4 0 0 1-.17-1.2c0-.5.05-.9.17-1.2.12-.3.32-.52.59-.65.27-.13.63-.2 1.08-.2Zm0 .58c-.29 0-.51.04-.68.13a.73.73 0 0 0-.35.45 3 3 0 0 0-.1.89c0 .38.03.67.1.89.07.21.19.36.35.45.17.09.4.13.68.13s.5-.04.66-.13a.76.76 0 0 0 .35-.45c.07-.22.1-.51.1-.9a3 3 0 0 0-.1-.88.73.73 0 0 0-.35-.45 1.36 1.36 0 0 0-.66-.13Zm3.39-.48v1.46c0 .2.04.33.12.4.08.08.22.12.4.12.22 0 .43-.02.63-.06.2-.04.43-.1.67-.21v-1.71h.68v3.9H77v-1.65a4.84 4.84 0 0 1-1.52.3c-.65 0-.97-.3-.97-.86v-1.7h.67Zm7.2 0v3.9h-.61v-2.6a3.76 3.76 0 0 1 .02-.51h-.02l-.12.24-.15.22-1.98 2.64h-.56v-3.9h.61v2.6a4.1 4.1 0 0 1-.02.51h.02c.08-.17.17-.32.28-.45l1.98-2.65h.55Zm2.94-.1c.17 0 .38.02.61.04.24.02.45.07.64.14l-.09.45a9.36 9.36 0 0 0-1.05-.05c-.3 0-.55.04-.74.13a.77.77 0 0 0-.39.44c-.08.22-.12.51-.12.9 0 .37.04.67.12.89.08.21.21.36.4.44.18.1.42.13.73.13a11.2 11.2 0 0 0 1.15-.08l.06.46a4.97 4.97 0 0 1-1.33.2c-.44 0-.8-.07-1.07-.2a1.2 1.2 0 0 1-.6-.65c-.11-.3-.17-.7-.17-1.2s.06-.9.17-1.2c.13-.3.32-.51.6-.64.27-.13.63-.2 1.08-.2Zm5.35.1v.56h-1.4v3.33h-.69v-3.33h-1.41v-.56h3.5Zm1.52 0v1.16c0 .15-.01.3-.04.45h.55c.25 0 .46-.07.61-.2.16-.13.29-.3.4-.55.12-.24.24-.53.37-.86h.7c-.14.38-.27.7-.4.97a1.8 1.8 0 0 1-.43.62c-.16.14-.38.23-.65.26v.03c.29.02.52.11.7.26.16.14.31.36.45.65.13.28.28.65.45 1.1h-.72c-.16-.42-.3-.76-.42-1.01a1.46 1.46 0 0 0-.42-.57.98.98 0 0 0-.64-.18h-.54l.03.38v1.38h-.68v-3.9h.68Zm7.03 0v3.9h-.61v-2.6a3.76 3.76 0 0 1 .02-.51h-.01l-.13.24-.15.22-1.98 2.64h-.56v-3.9h.62v2.6a4.03 4.03 0 0 1-.03.51h.02c.08-.17.18-.32.28-.45l1.98-2.65h.55Z" fill="#fff"/><path d="M58.7 53.24c.32.52.5 1.12.5 1.74v3.62a2.4 2.4 0 0 0 2.4 2.4h7.2c.6 0 1.16-.22 1.6-.62.44.4 1 .62 1.6.62h7.2a2.4 2.4 0 0 0 2.4-2.4v-3.62c0-.62.18-1.22.5-1.74l5.56-8.63a7.19 7.19 0 0 0 1.14-3.89V27.4a3.2 3.2 0 0 0-6.4 0v2.46c-3.16-8.44-10-15.45-10.98-16.43a1.44 1.44 0 0 0-2.04 0 55.08 55.08 0 0 0-4.46 5.14c-.67-1.5-.98-3.13-.92-4.77a.8.8 0 0 0-1.6 0c0 7.44-4.6 7.6-4.8 7.6h-.01a.8.8 0 1 0 0 1.6c1.28.1 2.45.75 3.22 1.77a37.7 37.7 0 0 0-2.41 5.07V27.4a3.2 3.2 0 0 0-6.4 0v13.32c0 1.38.4 2.73 1.14 3.9l5.55 8.62ZM84 27.4a1.6 1.6 0 1 1 3.2 0v13.32a5.6 5.6 0 0 1-.89 3.03l-5.55 8.63c-.5.77-.76 1.67-.76 2.6v3.62a.8.8 0 0 1-.8.8H72a.8.8 0 0 1-.8-.8v-3.72c0-2.55 1-5 2.81-6.79l.25-.25c.6-.6.94-1.41.94-2.26v-6.4a9.4 9.4 0 0 0 4 0v3.02a1.6 1.6 0 0 0 2.85 1l1.6-2c.23-.28.35-.64.35-1V27.4Zm-4.8 10.11c-.64.22-1.32.31-2 .29a5.73 5.73 0 0 1-2-.29v-.91a2 2 0 1 1 4 0v.91ZM60.22 22.2a6.86 6.86 0 0 0 2.98-3.57 7.85 7.85 0 0 0 1.02 1.84c.53.7 1.2 1.3 1.96 1.73a6.86 6.86 0 0 0-2.98 3.57 7.94 7.94 0 0 0-.85-1.59 6.5 6.5 0 0 0-2.13-1.98Zm1.5 4.22c.49 1.34.72 2.76.68 4.18a.8.8 0 0 0 1.6 0c0-7.44 4.61-7.6 4.8-7.6a.8.8 0 0 0 0-1.6 4.31 4.31 0 0 1-2.94-1.42 54.9 54.9 0 0 1 4.54-5.31c1.66 1.67 12 12.54 12 23.24 0 .17 0 .36-.02.53l.02.1v1.66l-1.6 2v-5.6a3.6 3.6 0 1 0-7.2 0v8.98c0 .42-.17.83-.47 1.13l-.25.25a11.17 11.17 0 0 0-2.48 3.76c-.56-1.4-1.4-2.69-2.48-3.76l-.25-.25c-.3-.3-.47-.7-.47-1.13V36.6a3.6 3.6 0 1 0-7.2 0v5.6l-1.6-2v-3.48a26.15 26.15 0 0 1 3.33-10.3Zm3.88 11.1c-.64.2-1.32.3-2 .28a5.73 5.73 0 0 1-2-.29v-.91a2 2 0 1 1 4 0v.91Zm-12-10.12a1.6 1.6 0 1 1 3.2 0v12.8c0 .36.12.72.35 1l1.6 2a1.6 1.6 0 0 0 2.85-1v-3.02a9.4 9.4 0 0 0 4 0v6.4c0 .85.34 1.66.94 2.26l.25.25a9.54 9.54 0 0 1 2.81 6.8v3.71a.8.8 0 0 1-.8.8h-7.2a.8.8 0 0 1-.8-.8v-3.62c0-.93-.26-1.83-.76-2.6l-5.55-8.63a5.6 5.6 0 0 1-.89-3.03V27.4Z" fill="#fff" opacity=".2"/></svg>