<svg width="128" height="119" viewBox="0 0 128 119" fill="none" xmlns="http://www.w3.org/2000/svg">
<rect x="0.177979" y="0.228455" width="118.315" height="118.315" rx="59.1573" fill="#2D50E9"/>
<path d="M62.9102 76.461L59.0898 85.42H57.9121L59.1309 82.6895L56.5234 76.461H57.7188L59.7285 81.3125L61.7559 76.461H62.9102ZM69.25 82.5957C68.8008 82.8067 68.4141 82.9512 68.0898 83.0293C67.7695 83.1114 67.4492 83.1524 67.1289 83.1524C66.6523 83.1524 66.2148 83.084 65.8164 82.9473C65.418 82.8067 65.0762 82.5957 64.791 82.3145C64.5059 82.0332 64.2832 81.6778 64.123 81.2481C63.9668 80.8184 63.8887 80.3164 63.8887 79.7422C63.8887 78.6992 64.1777 77.8672 64.7559 77.2461C65.334 76.6211 66.125 76.3086 67.1289 76.3086C67.5078 76.3086 67.8789 76.3614 68.2422 76.4668C68.6094 76.5723 68.9453 76.7012 69.25 76.8535V78.0782H69.1855C68.8223 77.8008 68.4629 77.5957 68.1074 77.4629C67.7559 77.3301 67.4141 77.2637 67.082 77.2637C66.4297 77.2637 65.9238 77.4825 65.5645 77.92C65.209 78.3575 65.0312 78.9649 65.0312 79.7422C65.0312 80.5196 65.209 81.1231 65.5645 81.5528C65.9199 81.9825 66.4258 82.1973 67.082 82.1973C67.3125 82.1973 67.541 82.168 67.7676 82.1094C67.998 82.0508 68.207 81.9746 68.3945 81.8809C68.543 81.8067 68.6953 81.7188 68.8516 81.6172C69.0117 81.5117 69.123 81.4336 69.1855 81.3828H69.25V82.5957ZM76.2402 83.0059H75.1387V77.4102H71.8633V83.0059H70.7617V76.461H76.2402V83.0059ZM83.8926 79.8477H79.0703C79.0703 80.25 79.1309 80.6016 79.252 80.9024C79.373 81.1992 79.5391 81.4434 79.75 81.6348C79.9531 81.8223 80.1934 81.9629 80.4707 82.0567C80.752 82.1504 81.0605 82.1973 81.3965 82.1973C81.8418 82.1973 82.2891 82.1094 82.7383 81.9336C83.1914 81.7539 83.5137 81.5782 83.7051 81.4063H83.7637V82.6075C83.3926 82.7637 83.0137 82.8946 82.627 83C82.2402 83.1055 81.834 83.1582 81.4082 83.1582C80.3223 83.1582 79.4746 82.8653 78.8652 82.2793C78.2559 81.6895 77.9512 80.8535 77.9512 79.7715C77.9512 78.7012 78.2422 77.8516 78.8242 77.2227C79.4102 76.5938 80.1797 76.2793 81.1328 76.2793C82.0156 76.2793 82.6953 76.5371 83.1719 77.0528C83.6523 77.5684 83.8926 78.3008 83.8926 79.25V79.8477ZM82.8203 79.0039C82.8164 78.4258 82.6699 77.9785 82.3809 77.6621C82.0957 77.3457 81.6602 77.1875 81.0742 77.1875C80.4844 77.1875 80.0137 77.3614 79.6621 77.709C79.3145 78.0567 79.1172 78.4883 79.0703 79.0039H82.8203ZM93.9062 83.0059H85.5625V76.461H86.6641V82.0567H89.1836V76.461H90.2852V82.0567H92.8047V76.461H93.9062V83.0059ZM101.553 83.0059H100.451V80.0586H97.1758V83.0059H96.0742V76.461H97.1758V79.1094H100.451V76.461H101.553V83.0059ZM107.758 80.9961C107.758 80.7969 107.723 80.6231 107.652 80.4746C107.586 80.3223 107.475 80.1992 107.318 80.1055C107.154 80.0078 106.967 79.9492 106.756 79.9297C106.549 79.9102 106.25 79.9004 105.859 79.9004H104.828V82.127H105.836C106.227 82.127 106.529 82.1114 106.744 82.0801C106.959 82.045 107.145 81.9805 107.301 81.8867C107.461 81.7852 107.576 81.666 107.646 81.5293C107.721 81.3887 107.758 81.211 107.758 80.9961ZM108.895 80.9785C108.895 81.295 108.83 81.5821 108.701 81.8399C108.576 82.0977 108.404 82.3067 108.186 82.4668C107.928 82.6621 107.652 82.8008 107.359 82.8828C107.066 82.9649 106.689 83.0059 106.229 83.0059H103.727V76.461H104.828V79.0098H106.258C106.75 79.0098 107.131 79.0352 107.4 79.086C107.674 79.1367 107.945 79.2617 108.215 79.461C108.441 79.6289 108.611 79.8438 108.725 80.1055C108.838 80.3672 108.895 80.6582 108.895 80.9785ZM109.99 76.461H111.092V83.0059H109.99V76.461ZM118.932 83.0059H117.543L115.686 80.4922L113.816 83.0059H112.533L115.088 79.7422L112.557 76.461H113.945L115.791 78.9336L117.643 76.461H118.932L116.359 79.6836L118.932 83.0059ZM62.7285 97.0059H61.627V91.4102H58.3516V97.0059H57.25V90.461H62.7285V97.0059ZM70.6621 93.6543C70.6621 94.1856 70.5859 94.6719 70.4336 95.1133C70.2812 95.5508 70.0664 95.9219 69.7891 96.2266C69.5312 96.5157 69.2266 96.7403 68.875 96.9004C68.5273 97.0567 68.1582 97.1348 67.7676 97.1348C67.4277 97.1348 67.1191 97.0977 66.8418 97.0235C66.5684 96.9492 66.2891 96.834 66.0039 96.6778V99.42H64.9023V90.461H66.0039V91.1465C66.2969 90.9004 66.625 90.6953 66.9883 90.5313C67.3555 90.3633 67.7461 90.2793 68.1602 90.2793C68.9492 90.2793 69.5625 90.5782 70 91.1758C70.4414 91.7696 70.6621 92.5957 70.6621 93.6543ZM69.5254 93.6836C69.5254 92.8946 69.3906 92.3047 69.1211 91.9141C68.8516 91.5235 68.4375 91.3282 67.8789 91.3282C67.5625 91.3282 67.2441 91.3965 66.9238 91.5332C66.6035 91.67 66.2969 91.8496 66.0039 92.0723V95.7813C66.3164 95.9219 66.584 96.0176 66.8066 96.0684C67.0332 96.1192 67.2891 96.1446 67.5742 96.1446C68.1875 96.1446 68.666 95.9375 69.0098 95.5235C69.3535 95.1094 69.5254 94.4961 69.5254 93.6836ZM77.957 93.7364C77.957 94.8028 77.6836 95.6446 77.1367 96.2617C76.5898 96.8789 75.8574 97.1875 74.9395 97.1875C74.0137 97.1875 73.2773 96.8789 72.7305 96.2617C72.1875 95.6446 71.916 94.8028 71.916 93.7364C71.916 92.67 72.1875 91.8282 72.7305 91.211C73.2773 90.5899 74.0137 90.2793 74.9395 90.2793C75.8574 90.2793 76.5898 90.5899 77.1367 91.211C77.6836 91.8282 77.957 92.67 77.957 93.7364ZM76.8203 93.7364C76.8203 92.8887 76.6543 92.2598 76.3223 91.8496C75.9902 91.4356 75.5293 91.2285 74.9395 91.2285C74.3418 91.2285 73.877 91.4356 73.5449 91.8496C73.2168 92.2598 73.0527 92.8887 73.0527 93.7364C73.0527 94.5567 73.2188 95.1797 73.5508 95.6055C73.8828 96.0274 74.3457 96.2383 74.9395 96.2383C75.5254 96.2383 75.9844 96.0293 76.3164 95.6114C76.6523 95.1895 76.8203 94.5645 76.8203 93.7364ZM85.1465 93.8477H80.3242C80.3242 94.25 80.3848 94.6016 80.5059 94.9024C80.627 95.1992 80.793 95.4434 81.0039 95.6348C81.207 95.8223 81.4473 95.9629 81.7246 96.0567C82.0059 96.1504 82.3145 96.1973 82.6504 96.1973C83.0957 96.1973 83.543 96.1094 83.9922 95.9336C84.4453 95.7539 84.7676 95.5782 84.959 95.4063H85.0176V96.6075C84.6465 96.7637 84.2676 96.8946 83.8809 97C83.4941 97.1055 83.0879 97.1582 82.6621 97.1582C81.5762 97.1582 80.7285 96.8653 80.1191 96.2793C79.5098 95.6895 79.2051 94.8535 79.2051 93.7715C79.2051 92.7012 79.4961 91.8516 80.0781 91.2227C80.6641 90.5938 81.4336 90.2793 82.3867 90.2793C83.2695 90.2793 83.9492 90.5371 84.4258 91.0528C84.9062 91.5684 85.1465 92.3008 85.1465 93.25V93.8477ZM84.0742 93.0039C84.0703 92.4258 83.9238 91.9785 83.6348 91.6621C83.3496 91.3457 82.9141 91.1875 82.3281 91.1875C81.7383 91.1875 81.2676 91.3614 80.916 91.709C80.5684 92.0567 80.3711 92.4883 80.3242 93.0039H84.0742ZM92.7227 97.0059H91.2812L88.5625 94.0059H87.9648V97.0059H86.8633V90.461H87.9648V93.2852C88.3281 93.2852 88.6211 93.2207 88.8438 93.0918C89.0664 92.959 89.2559 92.7481 89.4121 92.459C89.4668 92.3535 89.5195 92.2422 89.5703 92.125C89.625 92.0039 89.6777 91.8887 89.7285 91.7793C89.9316 91.3379 90.1855 91.0078 90.4902 90.7891C90.7949 90.5703 91.2324 90.461 91.8027 90.461H92.3066V91.4102H91.8203C91.5117 91.4102 91.2695 91.4766 91.0938 91.6094C90.9219 91.7383 90.7656 91.9668 90.625 92.295C90.4688 92.6621 90.3027 92.9375 90.127 93.1211C89.9551 93.3008 89.7715 93.4375 89.5762 93.5313L92.7227 97.0059ZM98.7285 91.4278H96.3613V97.0059H95.2598V91.4278H92.8926V90.461H98.7285V91.4278ZM104.957 97.0059H103.861V96.3086C103.764 96.375 103.631 96.4688 103.463 96.5899C103.299 96.7071 103.139 96.8008 102.982 96.8711C102.799 96.961 102.588 97.0352 102.35 97.0938C102.111 97.1563 101.832 97.1875 101.512 97.1875C100.922 97.1875 100.422 96.9922 100.012 96.6016C99.6016 96.211 99.3965 95.7129 99.3965 95.1075C99.3965 94.6114 99.502 94.211 99.7129 93.9063C99.9277 93.5977 100.232 93.3555 100.627 93.1797C101.025 93.0039 101.504 92.8848 102.062 92.8223C102.621 92.7598 103.221 92.7129 103.861 92.6817V92.5117C103.861 92.2617 103.816 92.0547 103.727 91.8907C103.641 91.7266 103.516 91.5977 103.352 91.5039C103.195 91.4141 103.008 91.3535 102.789 91.3223C102.57 91.291 102.342 91.2754 102.104 91.2754C101.814 91.2754 101.492 91.3145 101.137 91.3926C100.781 91.4668 100.414 91.5762 100.035 91.7207H99.9766V90.6016C100.191 90.543 100.502 90.4785 100.908 90.4082C101.314 90.3379 101.715 90.3028 102.109 90.3028C102.57 90.3028 102.971 90.3418 103.311 90.42C103.654 90.4942 103.951 90.6231 104.201 90.8067C104.447 90.9864 104.635 91.2188 104.764 91.5039C104.893 91.7891 104.957 92.1426 104.957 92.5645V97.0059ZM103.861 95.3946V93.5723C103.525 93.5918 103.129 93.6211 102.672 93.6602C102.219 93.6992 101.859 93.7559 101.594 93.8301C101.277 93.92 101.021 94.0606 100.826 94.252C100.631 94.4395 100.533 94.6992 100.533 95.0313C100.533 95.4063 100.646 95.6895 100.873 95.8809C101.1 96.0684 101.445 96.1621 101.91 96.1621C102.297 96.1621 102.65 96.0879 102.971 95.9395C103.291 95.7871 103.588 95.6055 103.861 95.3946Z" fill="white"/>
<path d="M72.0474 60.8635H59.4536V58.4885H64.2974V42.8947H59.4536V40.7697C60.1099 40.7697 60.813 40.7176 61.563 40.6135C62.313 40.4989 62.8807 40.3374 63.2661 40.1291C63.7453 39.8687 64.1203 39.5405 64.3911 39.1447C64.6724 38.7385 64.8338 38.1968 64.8755 37.5197H67.2974V58.4885H72.0474V60.8635ZM93.688 49.2228C93.688 53.3999 93.0317 56.4676 91.7192 58.426C90.4172 60.3739 88.3911 61.3478 85.6411 61.3478C82.8494 61.3478 80.8078 60.3583 79.5161 58.3791C78.2349 56.3999 77.5942 53.3583 77.5942 49.2541C77.5942 45.1187 78.2453 42.0666 79.5474 40.0978C80.8494 38.1187 82.8807 37.1291 85.6411 37.1291C88.4328 37.1291 90.4692 38.1343 91.7505 40.1447C93.0422 42.1447 93.688 45.1708 93.688 49.2228ZM89.5786 56.3166C89.9432 55.4728 90.188 54.4833 90.313 53.3478C90.4484 52.202 90.5161 50.827 90.5161 49.2228C90.5161 47.6395 90.4484 46.2645 90.313 45.0978C90.188 43.9312 89.938 42.9416 89.563 42.1291C89.1984 41.327 88.6984 40.7228 88.063 40.3166C87.438 39.9103 86.6307 39.7072 85.6411 39.7072C84.6619 39.7072 83.8494 39.9103 83.2036 40.3166C82.5682 40.7228 82.063 41.3374 81.688 42.1603C81.3338 42.9312 81.089 43.9364 80.9536 45.176C80.8286 46.4155 80.7661 47.7749 80.7661 49.2541C80.7661 50.8791 80.8234 52.2385 80.938 53.3322C81.0526 54.426 81.2974 55.4051 81.6724 56.2697C82.0161 57.0822 82.5005 57.702 83.1255 58.1291C83.7609 58.5562 84.5994 58.7697 85.6411 58.7697C86.6203 58.7697 87.4328 58.5666 88.0786 58.1603C88.7244 57.7541 89.2244 57.1395 89.5786 56.3166ZM114.594 54.3166H111.141V60.8635H108.141V54.3166H97.0005V50.7228L108.266 37.5978H111.141V51.8166H114.594V54.3166ZM108.141 51.8166V41.3166L99.1255 51.8166H108.141Z" fill="white"/>
<g opacity="0.2">
<path d="M18.0956 78.4457C18.4274 78.9621 18.6038 79.5631 18.6036 80.1769V83.8017C18.6036 85.1272 19.6781 86.2017 21.0036 86.2017H28.2036C28.7959 86.1996 29.3662 85.9772 29.8036 85.5777C30.2409 85.9772 30.8112 86.1996 31.4035 86.2017H38.6035C39.929 86.2017 41.0035 85.1272 41.0035 83.8017V80.1769C41.0035 79.5633 41.1798 78.9627 41.5115 78.4465L47.0603 69.8153C47.8074 68.6542 48.2043 67.3024 48.2035 65.9217V52.6017C48.2035 50.8344 46.7708 49.4017 45.0035 49.4017C43.2362 49.4017 41.8035 50.8344 41.8035 52.6017V55.0609C38.6427 46.6201 31.8099 39.6089 30.8251 38.6281C30.5513 38.3524 30.1778 38.1987 29.7892 38.2017C29.4098 38.203 29.0469 38.3566 28.782 38.6281C27.1912 40.2495 25.7022 41.9677 24.3236 43.7729C23.6567 42.2736 23.342 40.6415 23.4036 39.0017C23.4036 38.5599 23.0454 38.2017 22.6036 38.2017C22.1617 38.2017 21.8036 38.5599 21.8036 39.0017C21.8036 46.4417 17.2028 46.6017 16.998 46.6017H16.9892C16.5473 46.6042 16.1911 46.9643 16.1936 47.4061C16.196 47.848 16.5561 48.2042 16.998 48.2017C18.2729 48.3075 19.4417 48.9532 20.21 49.9761C19.283 51.6036 18.4787 53.2979 17.8036 55.0449V52.6017C17.8036 50.8344 16.3709 49.4017 14.6036 49.4017C12.8363 49.4017 11.4036 50.8344 11.4036 52.6017V65.9217C11.4028 67.3028 11.8 68.6549 12.5476 69.8161L18.0956 78.4457ZM43.4035 52.6017C43.4035 51.7181 44.1199 51.0017 45.0035 51.0017C45.8872 51.0017 46.6035 51.7181 46.6035 52.6017V65.9217C46.6038 66.9956 46.2953 68.047 45.7147 68.9505L40.1659 77.5809C39.6673 78.3548 39.4026 79.2562 39.4035 80.1769V83.8017C39.4035 84.2435 39.0454 84.6017 38.6035 84.6017H31.4035C30.9617 84.6017 30.6035 84.2435 30.6035 83.8017V80.0825C30.5966 77.5348 31.6092 75.0903 33.4155 73.2937L33.6659 73.0433C34.2683 72.4445 34.606 71.6295 34.6035 70.7801V64.3865C35.9214 64.6734 37.2856 64.6734 38.6035 64.3865V67.4017C38.6036 68.0813 39.0328 68.6867 39.6741 68.9115C40.3154 69.1364 41.0287 68.9316 41.4531 68.4009L43.0531 66.4009C43.28 66.1173 43.4035 65.7649 43.4035 65.4017V52.6017ZM38.6035 62.7137C37.9592 62.9275 37.282 63.0251 36.6035 63.0017C35.9251 63.0251 35.2479 62.9275 34.6035 62.7137V61.8017C34.6035 60.6971 35.499 59.8017 36.6035 59.8017C37.7081 59.8017 38.6035 60.6971 38.6035 61.8017V62.7137ZM19.6252 47.4017C21.0034 46.5946 22.0567 45.3319 22.6036 43.8313C22.8448 44.4488 23.1634 45.0332 23.5516 45.5705C23.5727 45.6049 23.5965 45.6375 23.6228 45.6681C24.1502 46.3741 24.817 46.9642 25.582 47.4017C24.2032 48.2093 23.1497 49.4729 22.6036 50.9745C22.4038 50.4702 22.1529 49.9877 21.8548 49.5345C21.827 49.4803 21.7929 49.4295 21.7532 49.3833C21.2026 48.5706 20.475 47.8931 19.6252 47.4017ZM21.13 51.6177C21.6114 52.9587 21.8398 54.3774 21.8036 55.8017C21.8036 56.2435 22.1617 56.6017 22.6036 56.6017C23.0454 56.6017 23.4036 56.2435 23.4036 55.8017C23.4036 48.3577 28.0132 48.2017 28.2036 48.2017C28.6454 48.2017 29.0036 47.8436 29.0036 47.4017C29.0036 46.9599 28.6454 46.6017 28.2036 46.6017C27.0748 46.5315 26.0188 46.0203 25.2636 45.1785C26.6627 43.3144 28.1791 41.5412 29.8036 39.8697C31.4627 41.5433 41.8035 52.4121 41.8035 63.1137C41.8035 63.2865 41.7955 63.4673 41.7883 63.6393C41.7917 63.671 41.7968 63.7025 41.8035 63.7337V65.4017L40.2035 67.4017V61.8017C40.2035 59.8135 38.5918 58.2017 36.6035 58.2017C34.6153 58.2017 33.0035 59.8135 33.0035 61.8017V70.7801C33.0046 71.2049 32.8358 71.6125 32.5347 71.9121L32.2843 72.1625C31.211 73.2345 30.3672 74.5138 29.8043 75.9225C29.2415 74.5138 28.3977 73.2345 27.3244 72.1625L27.074 71.9121C26.7723 71.6127 26.6029 71.2051 26.6036 70.7801V61.8017C26.6036 59.8135 24.9918 58.2017 23.0036 58.2017C21.0153 58.2017 19.4036 59.8135 19.4036 61.8017V67.4017L17.8036 65.4017V61.9225C18.1815 58.2937 19.3146 54.7841 21.13 51.6193V51.6177ZM25.0036 62.7137C24.3592 62.9275 23.682 63.0251 23.0036 63.0017C22.3251 63.0251 21.6479 62.9275 21.0036 62.7137V61.8017C21.0036 60.6971 21.899 59.8017 23.0036 59.8017C24.1081 59.8017 25.0036 60.6971 25.0036 61.8017V62.7137ZM13.0036 52.6017C13.0036 51.7181 13.7199 51.0017 14.6036 51.0017C15.4872 51.0017 16.2036 51.7181 16.2036 52.6017V65.4017C16.2036 65.7649 16.3271 66.1173 16.554 66.4009L18.154 68.4009C18.5784 68.9316 19.2917 69.1364 19.933 68.9115C20.5743 68.6867 21.0035 68.0813 21.0036 67.4017V64.3865C22.3215 64.6734 23.6857 64.6734 25.0036 64.3865V70.7801C25.0011 71.6295 25.3388 72.4445 25.9412 73.0433L26.1916 73.2937C27.9979 75.0903 29.0105 77.5348 29.0036 80.0825V83.8017C29.0036 84.2435 28.6454 84.6017 28.2036 84.6017H21.0036C20.5617 84.6017 20.2036 84.2435 20.2036 83.8017V80.1769C20.2045 79.2562 19.9398 78.3548 19.4412 77.5809L13.8932 68.9505C13.312 68.0472 13.0032 66.9958 13.0036 65.9217V52.6017Z" fill="white"/>
</g>
</svg>
