<svg width="136" height="137" viewBox="0 0 136 137" fill="none" xmlns="http://www.w3.org/2000/svg">
<rect y="0.866425" width="135.217" height="135.217" rx="64" fill="#2D50EA"/>
<path d="M37.035 84.4874C37.5043 84.4874 37.9773 84.4911 38.454 84.4984C38.938 84.5058 39.4 84.5314 39.84 84.5754L39.807 85.2354H37.42C36.9873 85.2354 36.771 85.4554 36.771 85.8954V89.8664H35.847V85.6534C35.847 84.8761 36.243 84.4874 37.035 84.4874ZM43.1304 84.3774C43.7464 84.3774 44.2377 84.4691 44.6044 84.6524C44.971 84.8358 45.235 85.1364 45.3964 85.5544C45.565 85.9651 45.6494 86.5114 45.6494 87.1934C45.6494 87.8754 45.565 88.4254 45.3964 88.8434C45.235 89.2541 44.971 89.5511 44.6044 89.7344C44.2377 89.9178 43.7464 90.0094 43.1304 90.0094C42.5144 90.0094 42.0194 89.9178 41.6454 89.7344C41.2787 89.5511 41.011 89.2541 40.8424 88.8434C40.681 88.4254 40.6004 87.8754 40.6004 87.1934C40.6004 86.5114 40.681 85.9651 40.8424 85.5544C41.011 85.1364 41.2787 84.8358 41.6454 84.6524C42.0194 84.4691 42.5144 84.3774 43.1304 84.3774ZM43.1304 85.1694C42.7417 85.1694 42.4337 85.2318 42.2064 85.3564C41.979 85.4738 41.8177 85.6791 41.7224 85.9724C41.627 86.2658 41.5794 86.6728 41.5794 87.1934C41.5794 87.7141 41.627 88.1211 41.7224 88.4144C41.8177 88.7078 41.979 88.9168 42.2064 89.0414C42.4337 89.1588 42.7417 89.2174 43.1304 89.2174C43.519 89.2174 43.8234 89.1588 44.0434 89.0414C44.2707 88.9168 44.432 88.7078 44.5274 88.4144C44.6227 88.1211 44.6704 87.7141 44.6704 87.1934C44.6704 86.6728 44.6227 86.2658 44.5274 85.9724C44.432 85.6791 44.2707 85.4738 44.0434 85.3564C43.8234 85.2318 43.519 85.1694 43.1304 85.1694ZM49.4256 84.3774C49.6676 84.3774 49.9499 84.3958 50.2726 84.4324C50.5952 84.4618 50.8886 84.5278 51.1526 84.6304L51.0316 85.2354C50.7896 85.2134 50.5329 85.1988 50.2616 85.1914C49.9976 85.1768 49.7702 85.1694 49.5796 85.1694C49.1616 85.1694 48.8242 85.2281 48.5676 85.3454C48.3182 85.4628 48.1386 85.6681 48.0286 85.9614C47.9186 86.2548 47.8636 86.6618 47.8636 87.1824C47.8636 87.7031 47.9186 88.1138 48.0286 88.4144C48.1386 88.7078 48.3182 88.9131 48.5676 89.0304C48.8242 89.1478 49.1616 89.2064 49.5796 89.2064C49.7482 89.2064 49.9866 89.1991 50.2946 89.1844C50.6026 89.1698 50.8922 89.1404 51.1636 89.0964L51.2516 89.7234C50.9876 89.8188 50.6942 89.8884 50.3716 89.9324C50.0562 89.9764 49.7409 89.9984 49.4256 89.9984C48.8096 89.9984 48.3146 89.9068 47.9406 89.7234C47.5666 89.5401 47.2952 89.2431 47.1266 88.8324C46.9652 88.4218 46.8846 87.8718 46.8846 87.1824C46.8846 86.4931 46.9652 85.9431 47.1266 85.5324C47.2952 85.1218 47.5666 84.8284 47.9406 84.6524C48.3146 84.4691 48.8096 84.3774 49.4256 84.3774ZM53.4866 84.5094V86.1044C53.4866 86.3171 53.4683 86.5224 53.4316 86.7204H54.1796C54.5316 86.7204 54.814 86.6324 55.0266 86.4564C55.2393 86.2804 55.4226 86.0274 55.5766 85.6974C55.738 85.3674 55.9066 84.9714 56.0826 84.5094H57.0506C56.8526 85.0374 56.6693 85.4848 56.5006 85.8514C56.332 86.2181 56.134 86.5004 55.9066 86.6984C55.6866 86.8964 55.386 87.0174 55.0046 87.0614V87.0944C55.408 87.1311 55.727 87.2521 55.9616 87.4574C56.1963 87.6554 56.4053 87.9524 56.5886 88.3484C56.772 88.7371 56.9773 89.2431 57.2046 89.8664H56.2256C56.0056 89.2871 55.8113 88.8214 55.6426 88.4694C55.474 88.1101 55.2796 87.8498 55.0596 87.6884C54.847 87.5198 54.5536 87.4391 54.1796 87.4464H53.4426C53.472 87.6298 53.4866 87.8021 53.4866 87.9634V89.8664H52.5516V84.5094H53.4866ZM60.6831 84.3774C61.2991 84.3774 61.7904 84.4691 62.1571 84.6524C62.5238 84.8358 62.7878 85.1364 62.9491 85.5544C63.1178 85.9651 63.2021 86.5114 63.2021 87.1934C63.2021 87.8754 63.1178 88.4254 62.9491 88.8434C62.7878 89.2541 62.5238 89.5511 62.1571 89.7344C61.7904 89.9178 61.2991 90.0094 60.6831 90.0094C60.0671 90.0094 59.5721 89.9178 59.1981 89.7344C58.8314 89.5511 58.5638 89.2541 58.3951 88.8434C58.2338 88.4254 58.1531 87.8754 58.1531 87.1934C58.1531 86.5114 58.2338 85.9651 58.3951 85.5544C58.5638 85.1364 58.8314 84.8358 59.1981 84.6524C59.5721 84.4691 60.0671 84.3774 60.6831 84.3774ZM60.6831 85.1694C60.2944 85.1694 59.9864 85.2318 59.7591 85.3564C59.5318 85.4738 59.3704 85.6791 59.2751 85.9724C59.1798 86.2658 59.1321 86.6728 59.1321 87.1934C59.1321 87.7141 59.1798 88.1211 59.2751 88.4144C59.3704 88.7078 59.5318 88.9168 59.7591 89.0414C59.9864 89.1588 60.2944 89.2174 60.6831 89.2174C61.0718 89.2174 61.3761 89.1588 61.5961 89.0414C61.8234 88.9168 61.9848 88.7078 62.0801 88.4144C62.1754 88.1211 62.2231 87.7141 62.2231 87.1934C62.2231 86.6728 62.1754 86.2658 62.0801 85.9724C61.9848 85.6791 61.8234 85.4738 61.5961 85.3564C61.3761 85.2318 61.0718 85.1694 60.6831 85.1694ZM65.6143 84.5094V86.6654H68.4303V84.5094H69.3543V89.8664H68.4303V87.3804H65.6143V89.8664H64.6903V84.5094H65.6143ZM75.3276 84.5094V85.2794H73.3916V89.8664H72.4566V85.2794H70.5096V84.5094H75.3276ZM77.2552 84.5094L77.3432 85.3564C77.6365 85.0558 77.9812 84.8174 78.3772 84.6414C78.7805 84.4654 79.1729 84.3774 79.5542 84.3774C80.2142 84.3774 80.6872 84.6194 80.9732 85.1034C81.2592 85.5801 81.4022 86.2841 81.4022 87.2154C81.4022 87.9048 81.3289 88.4548 81.1822 88.8654C81.0355 89.2688 80.8119 89.5584 80.5112 89.7344C80.2105 89.9104 79.8329 89.9984 79.3782 89.9984C79.0262 89.9984 78.6779 89.9544 78.3332 89.8664C77.9959 89.7711 77.6805 89.6318 77.3872 89.4484C77.4019 89.6318 77.4129 89.8078 77.4202 89.9764C77.4275 90.1524 77.4275 90.3358 77.4202 90.5264V92.0774H76.4962V84.5094H77.2552ZM79.2572 85.1914C78.9639 85.1914 78.6742 85.2611 78.3882 85.4004C78.1095 85.5324 77.7869 85.7378 77.4202 86.0164V88.8654C77.7575 88.9534 78.0545 89.0304 78.3112 89.0964C78.5752 89.1551 78.8502 89.1844 79.1362 89.1844C79.4515 89.1844 79.7009 89.1294 79.8842 89.0194C80.0749 88.9094 80.2142 88.7114 80.3022 88.4254C80.3902 88.1394 80.4342 87.7361 80.4342 87.2154C80.4342 86.4528 80.3425 85.9248 80.1592 85.6314C79.9832 85.3381 79.6825 85.1914 79.2572 85.1914ZM85.4393 84.3774C86.0333 84.3774 86.4843 84.5021 86.7923 84.7514C87.1076 84.9934 87.2653 85.4408 87.2653 86.0934V89.8664H86.5283L86.4183 88.9864C86.279 89.1258 86.0993 89.2724 85.8793 89.4264C85.6593 89.5731 85.4063 89.7014 85.1203 89.8114C84.8416 89.9141 84.5373 89.9654 84.2073 89.9654C83.7306 89.9654 83.3456 89.8371 83.0523 89.5804C82.759 89.3238 82.6123 88.9534 82.6123 88.4694V87.8864C82.6123 87.4684 82.7406 87.1458 82.9973 86.9184C83.2613 86.6838 83.628 86.5664 84.0973 86.5664H86.3303V86.0934C86.323 85.7634 86.246 85.5288 86.0993 85.3894C85.9526 85.2428 85.6666 85.1694 85.2413 85.1694C84.9553 85.1694 84.5996 85.1841 84.1743 85.2134C83.7563 85.2428 83.342 85.2758 82.9313 85.3124L82.8433 84.6194C83.2173 84.5608 83.6426 84.5058 84.1193 84.4544C84.596 84.4031 85.036 84.3774 85.4393 84.3774ZM84.3943 89.1624C84.6583 89.1698 84.9663 89.1074 85.3183 88.9754C85.6776 88.8361 86.015 88.6271 86.3303 88.3484V87.2704L84.2623 87.2814C84.0056 87.2888 83.8223 87.3584 83.7123 87.4904C83.6096 87.6151 83.5583 87.7911 83.5583 88.0184V88.3594C83.5583 88.6381 83.6243 88.8434 83.7563 88.9754C83.8956 89.1001 84.1083 89.1624 84.3943 89.1624ZM89.9026 84.5094V86.1044C89.9026 86.3171 89.8843 86.5224 89.8476 86.7204H90.5956C90.9476 86.7204 91.23 86.6324 91.4426 86.4564C91.6553 86.2804 91.8386 86.0274 91.9926 85.6974C92.154 85.3674 92.3226 84.9714 92.4986 84.5094H93.4666C93.2686 85.0374 93.0853 85.4848 92.9166 85.8514C92.748 86.2181 92.55 86.5004 92.3226 86.6984C92.1026 86.8964 91.802 87.0174 91.4206 87.0614V87.0944C91.824 87.1311 92.143 87.2521 92.3776 87.4574C92.6123 87.6554 92.8213 87.9524 93.0046 88.3484C93.188 88.7371 93.3933 89.2431 93.6206 89.8664H92.6416C92.4216 89.2871 92.2273 88.8214 92.0586 88.4694C91.89 88.1101 91.6956 87.8498 91.4756 87.6884C91.263 87.5198 90.9696 87.4391 90.5956 87.4464H89.8586C89.888 87.6298 89.9026 87.8021 89.9026 87.9634V89.8664H88.9676V84.5094H89.9026ZM99.1001 84.5094V85.2794H97.1641V89.8664H96.2291V85.2794H94.2821V84.5094H99.1001ZM102.449 84.3774C103.065 84.3774 103.556 84.4691 103.923 84.6524C104.289 84.8358 104.553 85.1364 104.715 85.5544C104.883 85.9651 104.968 86.5114 104.968 87.1934C104.968 87.8754 104.883 88.4254 104.715 88.8434C104.553 89.2541 104.289 89.5511 103.923 89.7344C103.556 89.9178 103.065 90.0094 102.449 90.0094C101.833 90.0094 101.338 89.9178 100.964 89.7344C100.597 89.5511 100.329 89.2541 100.161 88.8434C99.9994 88.4254 99.9187 87.8754 99.9187 87.1934C99.9187 86.5114 99.9994 85.9651 100.161 85.5544C100.329 85.1364 100.597 84.8358 100.964 84.6524C101.338 84.4691 101.833 84.3774 102.449 84.3774ZM102.449 85.1694C102.06 85.1694 101.752 85.2318 101.525 85.3564C101.297 85.4738 101.136 85.6791 101.041 85.9724C100.945 86.2658 100.898 86.6728 100.898 87.1934C100.898 87.7141 100.945 88.1211 101.041 88.4144C101.136 88.7078 101.297 88.9168 101.525 89.0414C101.752 89.1588 102.06 89.2174 102.449 89.2174C102.837 89.2174 103.142 89.1588 103.362 89.0414C103.589 88.9168 103.75 88.7078 103.846 88.4144C103.941 88.1211 103.989 87.7141 103.989 87.1934C103.989 86.6728 103.941 86.2658 103.846 85.9724C103.75 85.6791 103.589 85.4738 103.362 85.3564C103.142 85.2318 102.837 85.1694 102.449 85.1694ZM108.634 84.4544C109.191 84.4544 109.631 84.4948 109.954 84.5754C110.284 84.6561 110.522 84.7991 110.669 85.0044C110.816 85.2098 110.889 85.5031 110.889 85.8844C110.889 86.2658 110.797 86.5554 110.614 86.7534C110.438 86.9441 110.145 87.0578 109.734 87.0944V87.1274C110.233 87.1641 110.581 87.3034 110.779 87.5454C110.977 87.7801 111.076 88.1138 111.076 88.5464C111.076 88.9131 111.003 89.1991 110.856 89.4044C110.717 89.6024 110.489 89.7418 110.174 89.8224C109.866 89.9031 109.452 89.9434 108.931 89.9434C108.557 89.9434 108.231 89.9398 107.952 89.9324C107.673 89.9324 107.417 89.9251 107.182 89.9104C106.955 89.9031 106.713 89.8921 106.456 89.8774V84.5204C106.683 84.4984 106.9 84.4838 107.105 84.4764C107.31 84.4691 107.534 84.4654 107.776 84.4654C108.018 84.4581 108.304 84.4544 108.634 84.4544ZM108.601 85.1914C108.352 85.1914 108.121 85.1914 107.908 85.1914C107.695 85.1841 107.505 85.1841 107.336 85.1914V86.7754H108.744C109.206 86.7754 109.529 86.7204 109.712 86.6104C109.903 86.5004 109.998 86.2841 109.998 85.9614C109.998 85.6534 109.895 85.4481 109.69 85.3454C109.485 85.2428 109.122 85.1914 108.601 85.1914ZM108.744 87.4464H107.336V89.1954C107.534 89.2028 107.754 89.2064 107.996 89.2064C108.245 89.2064 108.513 89.2064 108.799 89.2064C109.298 89.2064 109.646 89.1514 109.844 89.0414C110.042 88.9241 110.141 88.6931 110.141 88.3484C110.141 88.0038 110.038 87.7691 109.833 87.6444C109.628 87.5124 109.265 87.4464 108.744 87.4464ZM38.047 97.4544C38.6043 97.4544 39.0443 97.4948 39.367 97.5754C39.697 97.6561 39.9353 97.7991 40.082 98.0044C40.2287 98.2098 40.302 98.5031 40.302 98.8844C40.302 99.2658 40.2103 99.5554 40.027 99.7534C39.851 99.9441 39.5577 100.058 39.147 100.094V100.127C39.6457 100.164 39.994 100.303 40.192 100.545C40.39 100.78 40.489 101.114 40.489 101.546C40.489 101.913 40.4157 102.199 40.269 102.404C40.1297 102.602 39.9023 102.742 39.587 102.822C39.279 102.903 38.8647 102.943 38.344 102.943C37.97 102.943 37.6437 102.94 37.365 102.932C37.0863 102.932 36.8297 102.925 36.595 102.91C36.3677 102.903 36.1257 102.892 35.869 102.877V97.5204C36.0963 97.4984 36.3127 97.4838 36.518 97.4764C36.7233 97.4691 36.947 97.4654 37.189 97.4654C37.431 97.4581 37.717 97.4544 38.047 97.4544ZM38.014 98.1914C37.7647 98.1914 37.5337 98.1914 37.321 98.1914C37.1083 98.1841 36.9177 98.1841 36.749 98.1914V99.7754H38.157C38.619 99.7754 38.9417 99.7204 39.125 99.6104C39.3157 99.5004 39.411 99.2841 39.411 98.9614C39.411 98.6534 39.3083 98.4481 39.103 98.3454C38.8977 98.2428 38.5347 98.1914 38.014 98.1914ZM38.157 100.446H36.749V102.195C36.947 102.203 37.167 102.206 37.409 102.206C37.6583 102.206 37.926 102.206 38.212 102.206C38.7107 102.206 39.059 102.151 39.257 102.041C39.455 101.924 39.554 101.693 39.554 101.348C39.554 101.004 39.4513 100.769 39.246 100.644C39.0407 100.512 38.6777 100.446 38.157 100.446ZM44.1378 99.5884C44.6732 99.5884 45.0912 99.6398 45.3918 99.7424C45.6925 99.8451 45.9052 100.021 46.0298 100.27C46.1618 100.512 46.2278 100.842 46.2278 101.26C46.2278 101.693 46.1618 102.034 46.0298 102.283C45.8978 102.525 45.6888 102.694 45.4028 102.789C45.1168 102.885 44.7428 102.932 44.2808 102.932C43.9288 102.932 43.6245 102.929 43.3678 102.921C43.1112 102.921 42.8765 102.914 42.6638 102.899C42.4512 102.892 42.2275 102.881 41.9928 102.866H41.9598V97.5094H42.8728V99.5884H44.1378ZM48.1528 97.5094V102.866H47.2068V97.5094H48.1528ZM44.1378 100.281H42.8728V102.184C43.2175 102.192 43.6392 102.195 44.1378 102.195C44.5632 102.195 44.8602 102.133 45.0288 102.008C45.1975 101.884 45.2818 101.623 45.2818 101.227C45.2818 100.875 45.2012 100.63 45.0398 100.49C44.8858 100.351 44.5852 100.281 44.1378 100.281ZM54.4746 97.5094V102.866H53.5506V98.2684H50.8006V102.866H49.8876V97.5094H54.4746ZM58.4917 97.3774C59.1077 97.3774 59.599 97.4691 59.9657 97.6524C60.3324 97.8358 60.5964 98.1364 60.7577 98.5544C60.9264 98.9651 61.0107 99.5114 61.0107 100.193C61.0107 100.875 60.9264 101.425 60.7577 101.843C60.5964 102.254 60.3324 102.551 59.9657 102.734C59.599 102.918 59.1077 103.009 58.4917 103.009C57.8757 103.009 57.3807 102.918 57.0067 102.734C56.64 102.551 56.3724 102.254 56.2037 101.843C56.0424 101.425 55.9617 100.875 55.9617 100.193C55.9617 99.5114 56.0424 98.9651 56.2037 98.5544C56.3724 98.1364 56.64 97.8358 57.0067 97.6524C57.3807 97.4691 57.8757 97.3774 58.4917 97.3774ZM58.4917 98.1694C58.103 98.1694 57.795 98.2318 57.5677 98.3564C57.3404 98.4738 57.179 98.6791 57.0837 98.9724C56.9884 99.2658 56.9407 99.6728 56.9407 100.193C56.9407 100.714 56.9884 101.121 57.0837 101.414C57.179 101.708 57.3404 101.917 57.5677 102.041C57.795 102.159 58.103 102.217 58.4917 102.217C58.8804 102.217 59.1847 102.159 59.4047 102.041C59.632 101.917 59.7934 101.708 59.8887 101.414C59.984 101.121 60.0317 100.714 60.0317 100.193C60.0317 99.6728 59.984 99.2658 59.8887 98.9724C59.7934 98.6791 59.632 98.4738 59.4047 98.3564C59.1847 98.2318 58.8804 98.1694 58.4917 98.1694ZM66.8459 97.5094V102.866H65.9109V98.2464H64.7449C64.5176 98.2464 64.3526 98.2978 64.2499 98.4004C64.1546 98.4958 64.0886 98.6681 64.0519 98.9174C63.9933 99.4014 63.9273 99.9001 63.8539 100.413C63.7806 100.919 63.6743 101.359 63.5349 101.733C63.2636 102.518 62.7026 102.914 61.8519 102.921L61.7529 102.206C62.0536 102.133 62.2663 102.038 62.3909 101.92C62.5229 101.803 62.6256 101.649 62.6989 101.458C62.7943 101.224 62.8713 100.945 62.9299 100.622C62.9886 100.3 63.0363 99.9734 63.0729 99.6434C63.1169 99.3061 63.1499 99.0128 63.1719 98.7634C63.2233 98.3528 63.3553 98.0411 63.5679 97.8284C63.7879 97.6158 64.1216 97.5094 64.5689 97.5094H66.8459ZM69.5137 97.5094V99.6654H72.3297V97.5094H73.2537V102.866H72.3297V100.38H69.5137V102.866H68.5897V97.5094H69.5137ZM77.192 97.3774C77.9987 97.3774 78.5817 97.5241 78.941 97.8174C79.3077 98.1108 79.4947 98.5471 79.502 99.1264C79.502 99.6031 79.3994 99.9771 79.194 100.248C78.996 100.512 78.6734 100.644 78.226 100.644H75.729C75.7584 101.07 75.8354 101.396 75.96 101.623C76.092 101.843 76.2754 101.997 76.51 102.085C76.7447 102.166 77.0454 102.206 77.412 102.206C77.7054 102.206 78.0207 102.195 78.358 102.173C78.7027 102.144 79.0107 102.111 79.282 102.074L79.37 102.701C79.2087 102.767 79.0034 102.822 78.754 102.866C78.5047 102.91 78.248 102.943 77.984 102.965C77.7274 102.987 77.4964 102.998 77.291 102.998C76.6824 102.998 76.1874 102.907 75.806 102.723C75.432 102.533 75.1607 102.232 74.992 101.821C74.8234 101.403 74.739 100.853 74.739 100.171C74.739 99.4674 74.8234 98.9138 74.992 98.5104C75.168 98.0998 75.4357 97.8101 75.795 97.6414C76.1544 97.4654 76.62 97.3774 77.192 97.3774ZM77.236 98.1694C76.862 98.1694 76.565 98.2208 76.345 98.3234C76.1324 98.4261 75.9747 98.6058 75.872 98.8624C75.7767 99.1118 75.7217 99.4638 75.707 99.9184H77.984C78.2187 99.9184 78.3727 99.8378 78.446 99.6764C78.5267 99.5078 78.5634 99.3244 78.556 99.1264C78.556 98.7818 78.457 98.5361 78.259 98.3894C78.061 98.2428 77.72 98.1694 77.236 98.1694ZM81.8565 97.5094V99.6654H84.6725V97.5094H85.5965V102.866H84.6725V100.38H81.8565V102.866H80.9325V97.5094H81.8565ZM89.6118 97.3774C90.2278 97.3774 90.7192 97.4691 91.0858 97.6524C91.4525 97.8358 91.7165 98.1364 91.8778 98.5544C92.0465 98.9651 92.1308 99.5114 92.1308 100.193C92.1308 100.875 92.0465 101.425 91.8778 101.843C91.7165 102.254 91.4525 102.551 91.0858 102.734C90.7192 102.918 90.2278 103.009 89.6118 103.009C88.9958 103.009 88.5008 102.918 88.1268 102.734C87.7602 102.551 87.4925 102.254 87.3238 101.843C87.1625 101.425 87.0818 100.875 87.0818 100.193C87.0818 99.5114 87.1625 98.9651 87.3238 98.5544C87.4925 98.1364 87.7602 97.8358 88.1268 97.6524C88.5008 97.4691 88.9958 97.3774 89.6118 97.3774ZM89.6118 98.1694C89.2232 98.1694 88.9152 98.2318 88.6878 98.3564C88.4605 98.4738 88.2992 98.6791 88.2038 98.9724C88.1085 99.2658 88.0608 99.6728 88.0608 100.193C88.0608 100.714 88.1085 101.121 88.2038 101.414C88.2992 101.708 88.4605 101.917 88.6878 102.041C88.9152 102.159 89.2232 102.217 89.6118 102.217C90.0005 102.217 90.3048 102.159 90.5248 102.041C90.7522 101.917 90.9135 101.708 91.0088 101.414C91.1042 101.121 91.1518 100.714 91.1518 100.193C91.1518 99.6728 91.1042 99.2658 91.0088 98.9724C90.9135 98.6791 90.7522 98.4738 90.5248 98.3564C90.3048 98.2318 90.0005 98.1694 89.6118 98.1694Z" fill="white"/>
<path d="M41.52 53.5464V72.8664H37.264V59.1464C37.264 58.8104 37.2733 58.4744 37.292 58.1384C37.3107 57.7838 37.3667 57.4291 37.46 57.0744L32.868 58.2504L32.336 55.4784L37.264 53.5464H41.52ZM52.8219 53.2104C54.6699 53.2104 56.0793 53.3971 57.0499 53.7704C58.0393 54.1251 58.7113 54.6851 59.0659 55.4504C59.4206 56.1971 59.5979 57.1678 59.5979 58.3624C59.5979 59.4824 59.3739 60.4718 58.9259 61.3304C58.4779 62.1891 57.7406 62.6744 56.7139 62.7864V62.8984C57.6099 62.9731 58.2913 63.2531 58.7579 63.7384C59.2433 64.2051 59.5793 64.8118 59.7659 65.5584C59.9713 66.3051 60.0739 67.1358 60.0739 68.0504C60.0739 69.2824 59.8686 70.2811 59.4579 71.0464C59.0659 71.7931 58.3473 72.3438 57.3019 72.6984C56.2566 73.0344 54.7633 73.2024 52.8219 73.2024C50.8993 73.2024 49.4153 73.0344 48.3699 72.6984C47.3246 72.3438 46.5966 71.7931 46.1859 71.0464C45.7753 70.2811 45.5699 69.2824 45.5699 68.0504C45.5699 67.1358 45.6633 66.3051 45.8499 65.5584C46.0366 64.8118 46.3726 64.2051 46.8579 63.7384C47.3619 63.2531 48.0526 62.9731 48.9299 62.8984V62.7864C47.9033 62.6744 47.1659 62.1891 46.7179 61.3304C46.2699 60.4718 46.0459 59.4824 46.0459 58.3624C46.0459 57.1678 46.2233 56.1971 46.5779 55.4504C46.9513 54.6851 47.6233 54.1251 48.5939 53.7704C49.5833 53.3971 50.9926 53.2104 52.8219 53.2104ZM52.8499 56.1504C52.0473 56.1504 51.4313 56.2344 51.0019 56.4024C50.5726 56.5518 50.2739 56.8224 50.1059 57.2144C49.9566 57.6064 49.8819 58.1571 49.8819 58.8664C49.8819 59.5758 49.9659 60.1171 50.1339 60.4904C50.3019 60.8451 50.6006 61.0878 51.0299 61.2184C51.4593 61.3491 52.0846 61.4144 52.9059 61.4144C53.7086 61.4144 54.3153 61.3491 54.7259 61.2184C55.1366 61.0878 55.4073 60.8358 55.5379 60.4624C55.6873 60.0891 55.7619 59.5571 55.7619 58.8664C55.7619 58.1571 55.6873 57.6064 55.5379 57.2144C55.3886 56.8224 55.0993 56.5518 54.6699 56.4024C54.2593 56.2344 53.6526 56.1504 52.8499 56.1504ZM52.8779 64.2424C51.9819 64.2611 51.2913 64.3544 50.8059 64.5224C50.3393 64.6718 50.0126 64.9611 49.8259 65.3904C49.6579 65.8198 49.5739 66.4358 49.5739 67.2384C49.5739 67.9664 49.6579 68.5358 49.8259 68.9464C50.0126 69.3384 50.3393 69.6184 50.8059 69.7864C51.2913 69.9358 51.9726 70.0104 52.8499 70.0104C53.7273 70.0104 54.3899 69.9358 54.8379 69.7864C55.3046 69.6184 55.6219 69.3384 55.7899 68.9464C55.9579 68.5358 56.0419 67.9664 56.0419 67.2384C56.0419 66.4171 55.9579 65.7918 55.7899 65.3624C55.6219 64.9331 55.3046 64.6438 54.8379 64.4944C54.3899 64.3264 53.7366 64.2424 52.8779 64.2424Z" fill="white"/>
<g opacity="0.2" clip-path="url(#clip0_124:1699)">
<path d="M102.298 52.5511C99.9726 49.2328 96.2438 47.2675 92.2737 47.2675C88.3036 47.2675 84.5748 49.2328 82.2493 52.5511C82.2282 52.5765 82.2088 52.6032 82.1911 52.6311C79.0856 57.0707 79.0856 63.0622 82.1911 67.5019C82.2091 67.5298 82.2288 67.5565 82.2501 67.5819C84.5785 70.9035 88.3128 72.869 92.2872 72.8647C96.2616 72.8604 99.992 70.8869 102.314 67.5603C102.348 67.5217 102.379 67.4796 102.405 67.4347C105.464 62.9971 105.445 57.0438 102.358 52.6271C102.339 52.6006 102.319 52.5753 102.298 52.5511ZM101.427 66.0667C100.513 65.7709 99.5797 65.5424 98.6343 65.3827C98.9881 63.9035 99.1889 62.3898 99.2332 60.8669H103.094C102.968 62.7165 102.395 64.5041 101.427 66.0667ZM81.4526 60.8669H85.3134C85.3559 62.3885 85.5546 63.9011 85.9061 65.3795C84.9607 65.5391 84.0275 65.7677 83.1135 66.0635C82.1482 64.5013 81.5773 62.7148 81.4526 60.8669ZM83.1197 54.0671C84.0337 54.3629 84.9669 54.5914 85.9123 54.7511C85.5585 56.2303 85.3577 57.744 85.3134 59.2669H81.4526C81.5786 57.4173 82.1517 55.6297 83.1197 54.0671ZM93.049 55.2543C94.3972 55.2337 95.7435 55.1432 97.0829 54.9831C97.4334 56.3843 97.6347 57.8207 97.6833 59.2669H93.049V55.2543ZM93.049 53.6543V49.0009C94.4849 49.4472 95.7556 51.0984 96.605 53.4279C95.4848 53.5543 94.2902 53.6311 93.049 53.6543ZM91.4976 49.0009V53.6543C90.2564 53.6311 89.0618 53.5543 87.9416 53.4279C88.7911 51.0984 90.0617 49.4472 91.4976 49.0009ZM91.4976 55.2543V59.2669H86.8634C86.9112 57.8208 87.1117 56.3844 87.4614 54.9831C88.8016 55.1433 90.1486 55.2338 91.4976 55.2543ZM86.8634 60.8669H91.4976V64.8795C90.1494 64.9001 88.8031 64.9906 87.4638 65.1507C87.1133 63.7495 86.9119 62.3131 86.8634 60.8669ZM91.4976 66.4795V71.1329C90.0617 70.6866 88.7911 69.0354 87.9416 66.7059C89.0618 66.5795 90.2564 66.5027 91.4976 66.4795ZM93.049 71.1329V66.4795C94.2902 66.5027 95.4848 66.5795 96.605 66.7059C95.7556 69.0354 94.4849 70.6866 93.049 71.1329ZM93.049 64.8795V60.8669H97.6833C97.6354 62.313 97.4349 63.7494 97.0852 65.1507C95.7451 64.9905 94.398 64.9 93.049 64.8795ZM99.2332 59.2669C99.1907 57.7453 98.992 56.2327 98.6405 54.7543C99.5859 54.5946 100.519 54.3661 101.433 54.0703C102.398 55.6325 102.969 57.419 103.094 59.2669H99.2332ZM100.441 52.7071C99.7006 52.9155 98.9496 53.0813 98.1914 53.2039C97.7834 51.9524 97.1854 50.7757 96.4196 49.7176C97.9648 50.3827 99.3407 51.4056 100.441 52.7071ZM88.1278 49.7192C87.362 50.7773 86.764 51.954 86.356 53.2055C85.5978 53.0829 84.8468 52.9171 84.1064 52.7087C85.2067 51.4072 86.5826 50.3843 88.1278 49.7192ZM84.1056 67.4267C84.846 67.2183 85.5971 67.0525 86.3553 66.9299C86.7632 68.1813 87.3612 69.3581 88.127 70.4162C86.5819 69.7511 85.2059 68.7282 84.1056 67.4267ZM96.4188 70.4162C97.1846 69.3581 97.7827 68.1813 98.1906 66.9299C98.9488 67.0525 99.6998 67.2183 100.44 67.4267C99.3398 68.7276 97.9638 69.7499 96.4188 70.4146V70.4162Z" fill="white"/>
<path d="M102.221 46.2273C100.405 44.202 98.7692 42.0125 97.3335 39.6851C95.5918 36.5709 94.2663 33.2282 93.3928 29.7478C93.247 29.225 92.7826 28.8652 92.255 28.8663C91.7274 28.8674 91.2645 29.2291 91.1207 29.7526C90.2477 33.2307 88.9232 36.5711 87.1831 39.6835C85.7474 42.0108 84.1117 44.2003 82.296 46.2257C81.9205 46.671 81.5463 47.1169 81.1735 47.5633C79.2256 49.9112 77.256 52.5007 76.4314 56.0486C74.8858 62.8793 77.5692 69.9874 83.1865 73.9424C85.8544 75.8263 89.0075 76.8446 92.2408 76.8663H92.2734C95.5066 76.845 98.6597 75.8274 101.328 73.944C106.946 69.9892 109.631 62.8803 108.085 56.0486C107.261 52.5007 105.293 49.9112 103.342 47.5633C102.972 47.1161 102.596 46.6713 102.221 46.2273ZM100.454 72.6264C98.0431 74.3278 95.1944 75.2472 92.2734 75.2664H92.2571C89.3297 75.2479 86.4746 74.3265 84.0592 72.6208C78.9721 69.0415 76.5408 62.6064 77.9387 56.4214C78.6826 53.2215 80.5257 50.8032 82.3503 48.6032C82.7187 48.16 83.0919 47.7185 83.465 47.2769C85.3444 45.1793 87.036 42.9107 88.5189 40.4987C90.1178 37.659 91.3732 34.628 92.2571 31.4734C93.1417 34.6283 94.3976 37.6596 95.9969 40.4995C97.479 42.9116 99.1704 45.18 101.05 47.2769C101.423 47.7185 101.794 48.1606 102.164 48.6032C103.989 50.8032 105.832 53.2183 106.576 56.4214C107.976 62.6087 105.543 69.0468 100.454 72.6264Z" fill="white"/>
</g>
<defs>
<clipPath id="clip0_124:1699">
<rect width="48" height="48" fill="white" transform="translate(68 28.8664)"/>
</clipPath>
</defs>
</svg>
