<svg width="112" height="112" fill="none" xmlns="http://www.w3.org/2000/svg"><rect width="112" height="112" rx="56" fill="#2D50E9"/><path d="M33.43 81.64V87h-.94v-4.62h-1.16c-.23 0-.4.05-.5.15-.1.1-.16.27-.2.52-.05.48-.12.98-.2 1.5-.07.5-.17.94-.31 1.32-.27.78-.83 1.18-1.68 1.19l-.1-.72c.3-.07.51-.17.63-.29.14-.11.24-.27.31-.46.1-.23.17-.51.23-.83a21.62 21.62 0 0 0 .24-1.86c.06-.41.19-.73.4-.94.22-.21.56-.32 1-.32h2.28Zm3.94-.13c.81 0 1.4.15 1.75.44.37.3.56.73.56 1.31 0 .48-.1.85-.3 1.12-.2.27-.53.4-.97.4h-2.5c.03.42.1.75.23.98.13.22.32.37.55.46.24.08.54.12.9.12a14.59 14.59 0 0 0 1.87-.13l.1.63c-.17.06-.38.12-.62.16a8.48 8.48 0 0 1-1.47.13c-.6 0-1.1-.09-1.48-.27a1.7 1.7 0 0 1-.82-.9 4.48 4.48 0 0 1-.25-1.65c0-.7.08-1.26.25-1.67.18-.4.45-.7.8-.86.37-.18.83-.27 1.4-.27Zm.05.8c-.38 0-.67.04-.9.15a.96.96 0 0 0-.47.54c-.1.25-.15.6-.16 1.05h2.28c.23 0 .38-.08.46-.24.08-.17.11-.35.1-.55 0-.34-.1-.59-.29-.74-.2-.14-.54-.22-1.02-.22Zm7.71-.67v.77H43.2V87h-.94v-4.59h-1.94v-.77h4.81Zm5.89-.13c.61 0 1.1.1 1.47.28.37.18.63.48.8.9.16.4.25.95.25 1.64 0 .68-.09 1.23-.26 1.65-.16.4-.42.7-.79.89-.37.18-.86.27-1.47.27a3.4 3.4 0 0 1-1.49-.27 1.66 1.66 0 0 1-.8-.9 4.67 4.67 0 0 1-.24-1.64c0-.69.08-1.23.24-1.64.17-.42.44-.72.8-.9a3.4 3.4 0 0 1 1.49-.28Zm0 .8c-.4 0-.7.06-.93.18a1 1 0 0 0-.48.62c-.1.29-.14.7-.14 1.22s.04.92.14 1.22c.1.3.26.5.48.63.23.11.54.17.93.17s.7-.06.91-.17c.23-.13.39-.34.48-.63.1-.3.15-.7.15-1.22s-.05-.93-.15-1.22a1 1 0 0 0-.48-.62 1.86 1.86 0 0 0-.91-.19Zm8.6-.67V87h-.93v-4.6h-2.75V87h-.92v-5.36h4.6Zm3.91 2.08c.54 0 .95.05 1.25.16.3.1.52.27.64.52.13.25.2.58.2 1 0 .43-.07.77-.2 1.02-.13.24-.34.4-.63.5-.28.1-.66.15-1.12.15a32.7 32.7 0 0 1-2.29-.07h-.03v-5.36h.91v2.08h1.27Zm4.01-2.08V87h-.94v-5.36h.94Zm-4.01 2.78h-1.27v1.9h1.27c.43 0 .72-.05.9-.18.16-.12.24-.38.24-.78 0-.35-.08-.6-.24-.74-.15-.14-.45-.2-.9-.2Zm9.98-2.78v.77h-1.93V87h-.94v-4.59H68.7v-.77h4.81Zm3.7-.13c.6 0 1.05.13 1.36.38.31.24.47.68.47 1.34V87h-.74l-.1-.88a3.86 3.86 0 0 1-1.3.82c-.28.1-.59.16-.92.16a1.7 1.7 0 0 1-1.15-.39c-.3-.25-.44-.62-.44-1.1v-.59c0-.42.12-.74.38-.97a1.6 1.6 0 0 1 1.1-.35h2.23v-.47c0-.33-.08-.57-.23-.7-.14-.15-.43-.23-.85-.23a65.14 65.14 0 0 0-2.31.14l-.1-.69c.38-.06.8-.11 1.28-.16s.92-.08 1.32-.08Zm-1.04 4.79c.26 0 .57-.06.92-.2.36-.13.7-.34 1.01-.62V84.4l-2.06.02c-.26 0-.44.07-.55.2-.1.13-.16.3-.16.53v.34c0 .28.07.49.2.62.14.12.35.19.64.19Z" fill="#fff"/><path d="m55.22 52.99.57.01H56.36c8.36-.11 14.09-2.47 17-7.05 4.1-6.4 1.76-15.41-.92-21.85a1.54 1.54 0 0 0-2.94.3C65.41 14.5 57.82 6.42 56.88 5.44c-.62-.6-1.59-.6-2.2 0-.94.98-8.53 9.05-12.6 18.95a1.54 1.54 0 0 0-2.95-.3c-2.68 6.43-5.02 15.45-.93 21.86 2.92 4.56 8.65 6.93 17.01 7.03Zm15.8-28.26c3.57 8.59 3.95 15.81 1.05 20.34-2.09 3.27-5.88 5.28-11.3 6.02 4.38-2.27 10.32-6.9 11.31-15.6a.8.8 0 0 0-.68-.88.78.78 0 0 0-.86.69c-1.23 10.76-10.74 14.77-13.9 15.82l.01-.12c.4-5.94.74-11.07 4.74-14.47A10.4 10.4 0 0 1 63.9 35c6.16-2.74 7.3-6.1 7.11-10.26ZM55.78 6.58c1 1.05 9.92 10.52 13.38 21.45-.6 2.12-2.22 3.85-5.88 5.48-1.04.45-2.01 1.05-2.89 1.78-2.78 2.36-4 5.45-4.61 8.87-.61-3.43-1.83-6.5-4.61-8.87a11.98 11.98 0 0 0-2.89-1.78c-3.66-1.63-5.27-3.36-5.88-5.47C45.86 17.1 54.78 7.64 55.8 6.58ZM40.57 24.72c-.19 4.18.95 7.53 7.1 10.27.91.39 1.76.9 2.52 1.54 4 3.4 4.35 8.53 4.74 14.47v.12c-3.15-1.04-12.66-5.06-13.9-15.82a.8.8 0 0 0-.45-.65.76.76 0 0 0-.78.09.81.81 0 0 0-.3.74c.99 8.72 6.93 13.34 11.3 15.6-5.41-.72-9.2-2.73-11.3-6-2.89-4.54-2.51-11.76 1.07-20.36Z" fill="#5773ED"/><path d="M47.92 25.26a5.93 5.93 0 0 0 3.75.4c.8-.15 1.07-.7 1.47-1.56.44-.92.92-1.81 1.46-2.68.87-1.43.04-2.22-.24-2.43a6.5 6.5 0 0 0-3.98-1.2c-.59-.08-1.18.15-1.58.61-1 1.4-1.73 2.98-2.16 4.66-.11.43-.22 1.52 1.28 2.2ZM50 19.41c.1-.02.22-.03.33-.03h.05a5.04 5.04 0 0 1 3.05.88c-.04.1-.09.21-.15.3a28.4 28.4 0 0 0-1.53 2.83c-.1.24-.22.47-.36.7-.95.2-1.94.1-2.84-.29-.3-.14-.4-.26-.4-.32.36-1.46.99-2.85 1.85-4.07Z" fill="#5773ED"/><path d="M46.1 52.34c1.32 0 2.47.13 3.44.37.99.22 1.75.66 2.3 1.31.53.66.8 1.6.8 2.8a6.38 6.38 0 0 1-1.23 4c-.45.68-1.1 1.47-1.96 2.39l-5.07 5.23a19 19 0 0 1 2.86-.2h5.96V72H39.37v-2.3a2.44 2.44 0 0 1 .62-1.74l4.81-5.14c1.14-1.18 2.01-2.23 2.6-3.14.6-.91.9-1.72.88-2.4-.02-.6-.26-.98-.7-1.13a6.38 6.38 0 0 0-1.96-.22 57.38 57.38 0 0 0-3.64.11c-.64.02-1.38.07-2.24.14l-.2-3.16a32.5 32.5 0 0 1 6.55-.67Zm22.03.34-.14 3.22h-8.04l-.22 3.64 2.83.3c1.57.16 2.8.51 3.7 1.07.89.54 1.52 1.25 1.9 2.13a8.94 8.94 0 0 1 .25 5.43 4.86 4.86 0 0 1-3.14 3.39c-.87.32-1.98.48-3.33.48-.9 0-1.91-.06-3.05-.17-1.12-.1-2.26-.24-3.42-.45l.4-3.25a47.14 47.14 0 0 0 4.98.34c.99 0 1.74-.1 2.24-.31.52-.2.88-.51 1.06-.92.2-.43.32-.97.34-1.6.04-.82-.1-1.43-.4-1.82-.3-.4-.79-.66-1.48-.81-.67-.17-1.57-.3-2.71-.37l-2.41-.25a1.5 1.5 0 0 1-.95-.5 1.38 1.38 0 0 1-.34-1.01l.5-8.54h11.43Z" fill="#fff"/></svg>