<svg width="200" height="31" fill="none" xmlns="http://www.w3.org/2000/svg"><path d="M52.37.03c.17-.03.35.12.38.3v1.82c0 .27-.12.42-.38.42h-7.81c-.38 0-.76.03-1.13.11-.27.06-.53.21-.7.39-.2.2-.32.47-.38.74-.09.38-.11.8-.11 1.18v2.53c0 .39.02.8.11 1.18.06.27.18.53.38.74.2.2.43.33.7.38.37.1.75.12 1.13.12h7.8c.18-.03.36.12.39.3v1.83a.33.33 0 0 1-.3.38h-8.01c-.75 0-1.54-.06-2.26-.24a3.47 3.47 0 0 1-1.51-.82c-.41-.42-.73-.92-.87-1.48-.2-.7-.3-1.44-.27-2.18V4.75c-.02-.74.1-1.48.27-2.18.14-.56.46-1.07.87-1.45a3.8 3.8 0 0 1 1.5-.82 9.9 9.9 0 0 1 2.27-.27h7.93ZM67.06.03c.18-.03.35.12.38.3v1.76c.03.18-.12.36-.29.39h-9.87c-.15 0-.24.09-.24.26V5.1h9.9c.27 0 .41.12.41.39V6.9c0 .27-.14.39-.4.39h-9.9v2.48c0 .17.08.26.23.26h9.78c.18-.03.35.12.38.3v1.77c.03.17-.12.35-.29.38H55.39c-.26.03-.52-.06-.76-.2a.88.88 0 0 1-.23-.71V.9c0-.23.09-.47.23-.64.2-.18.47-.27.76-.27l11.67.03ZM79.17.03c1.37 0 2.32.3 2.9.91.59.62.88 1.54.88 2.75v1.33c0 1.2-.3 2.12-.87 2.74-.59.62-1.54.91-2.9.94H71.9v3.43a.33.33 0 0 1-.29.38h-1.97c-.26 0-.4-.12-.4-.38V.56c-.04-.26.14-.5.37-.53h9.55Zm-7.26 6.31h6.74c.6 0 1.02-.11 1.28-.38.26-.33.4-.77.37-1.18V4.1c.03-.44-.08-.85-.37-1.2-.26-.27-.67-.4-1.28-.4h-6.5c-.15 0-.24.1-.24.21v3.63ZM95.2.03c1.2 0 2.06.24 2.59.74.52.5.75 1.24.75 2.21v.86c.06.91-.38 1.77-1.13 2.27.81.47 1.22 1.24 1.22 2.3v1.03c0 .44-.06.86-.15 1.27-.08.35-.26.7-.52.97-.26.3-.58.5-.96.62-.46.15-.99.24-1.48.2H85.1a.46.46 0 0 1-.53-.4V.56c-.03-.26.15-.5.38-.53H95.2Zm-7.96 5.2h7.2c.59 0 1-.1 1.2-.27.23-.21.34-.5.32-.8v-.62c.02-.3-.1-.59-.32-.83-.3-.2-.64-.3-1-.26h-7.16c-.12-.03-.2.06-.24.18v2.59Zm0 1.94v2.65c0 .12.06.21.18.24h7.26c.35.03.7-.06.99-.27.2-.2.31-.53.29-.82v-.68a.97.97 0 0 0-.32-.83c-.2-.17-.61-.3-1.2-.3h-7.2ZM110.3.03c.76 0 1.54.06 2.27.27a3.22 3.22 0 0 1 2.38 2.27c.2.7.29 1.44.26 2.18v3.07a7.9 7.9 0 0 1-.26 2.18 3.26 3.26 0 0 1-.84 1.48c-.44.38-.96.68-1.54.82-.76.18-1.51.27-2.27.24h-5.43c-.75 0-1.54-.06-2.26-.24a3.47 3.47 0 0 1-1.51-.82c-.41-.42-.73-.92-.88-1.48a6.9 6.9 0 0 1-.26-2.18V4.75c-.03-.74.09-1.48.27-2.18.17-.56.46-1.07.87-1.45a3.8 3.8 0 0 1 1.5-.82 9.9 9.9 0 0 1 2.27-.27h5.43Zm-7.66 7.58c0 .39.02.8.11 1.18.06.27.2.53.38.74.2.2.43.32.72.38.38.1.76.12 1.14.12h5.22c.38 0 .76-.03 1.14-.12.26-.06.52-.2.72-.38.2-.2.32-.47.38-.74.09-.38.12-.8.12-1.18V4.93c0-.39-.03-.8-.12-1.18a1.5 1.5 0 0 0-.38-.74c-.2-.2-.43-.33-.72-.38a4.92 4.92 0 0 0-1.14-.12H105c-.38 0-.76.03-1.14.12-.26.05-.52.2-.72.4-.2.22-.32.48-.38.75-.09.38-.11.8-.11 1.18V7.6ZM41.94 17.88c.18-.03.35.12.38.3v9.4c0 .12.06.18.15.18h.17c.09 0 .2-.03.23-.12l5.2-8.73c.09-.18.2-.35.35-.5a2 2 0 0 1 .38-.32c.17-.1.35-.15.52-.15.26-.03.52-.06.78-.06h1.54c.44-.03.87.09 1.2.38.26.27.37.74.37 1.48v10.23c0 .27-.14.39-.4.39h-1.9c-.17.03-.34-.09-.37-.3v-9.41c0-.12-.06-.18-.15-.18h-.17a.26.26 0 0 0-.23.12l-5.26 8.7-.35.54c-.11.12-.23.23-.37.32-.15.09-.32.15-.53.18-.26.03-.52.06-.78.06h-1.51c-.44.03-.87-.1-1.2-.39-.25-.26-.4-.73-.4-1.47V18.26c0-.26.15-.38.4-.38h1.95ZM57.57 17.88c.2-.03.37.12.37.3v4.71h8.22v-4.63c-.03-.17.12-.35.3-.38h1.97c.2-.03.38.09.4.3V29.96c0 .27-.14.39-.4.39h-1.89c-.17.03-.35-.09-.38-.3v-4.84h-8.22v4.75c.03.18-.11.36-.29.39h-1.97c-.26 0-.4-.12-.4-.39v-11.7c0-.27.14-.4.4-.4h1.89ZM80.6 30.39c-.18.03-.35-.1-.38-.3V25.1h-1.69c-.23 0-.46 0-.7.04-.17.03-.34.06-.52.11-.14.06-.29.15-.4.24-.12.12-.24.24-.35.38l-3.22 4.28-.18.18c-.09.03-.2.06-.32.06h-2.26c-.18 0-.26-.06-.3-.18-.02-.09 0-.2.06-.26l3.6-4.64c.2-.26.41-.5.64-.73.2-.21.44-.39.7-.54a5.39 5.39 0 0 1-1.07-1.21l-3.4-4.48c-.06-.09-.09-.18-.03-.26.03-.1.12-.15.26-.15h2.18c.12 0 .23 0 .32.06s.14.11.2.17l3 4.1c.1.15.22.3.37.42.12.12.23.17.38.23.17.06.32.12.5.12.2.03.43.03.69.03h1.48v-4.8c-.03-.18.12-.36.29-.4h1.97c.18-.02.35.13.38.3v4.84h1.48c.3 0 .53 0 .7-.03.17 0 .35-.06.5-.12.14-.05.25-.14.37-.23.15-.12.26-.27.38-.41l3.08-4.1.17-.18c.12-.06.23-.06.32-.06h2.18c.14 0 .23.06.26.15a.4.4 0 0 1-.03.26l-3.4 4.49c-.17.23-.35.47-.55.7a4 4 0 0 1-.5.5c.53.36.97.77 1.34 1.3l3.6 4.64c.06.08.06.17.06.26 0 .12-.11.18-.29.18h-2.26c-.12 0-.2 0-.32-.06-.06-.06-.15-.12-.18-.18l-3.22-4.25c-.2-.26-.47-.5-.76-.65a4.2 4.2 0 0 0-1.22-.17h-1.68v4.9a.33.33 0 0 1-.29.38H80.59v.06ZM96.42 17.88c.17-.03.35.12.38.3v9.4c0 .12.06.18.14.18h.15c.09 0 .2-.03.26-.12l5.2-8.73c.09-.18.2-.35.35-.5a1.17 1.17 0 0 1 .9-.47c.26-.03.52-.06.78-.06h1.54c.44-.03.87.09 1.19.38.26.27.38.74.38 1.48v10.23c0 .27-.15.39-.4.39h-1.9c-.17.03-.34-.12-.37-.3v-9.41c0-.12-.06-.18-.15-.18h-.15a.26.26 0 0 0-.23.12l-5.25 8.7-.35.54a1.37 1.37 0 0 1-.9.5c-.26.03-.52.06-.79.06h-1.5c-.44.03-.88-.1-1.2-.39-.26-.26-.4-.73-.4-1.47V18.26c0-.26.14-.38.4-.38h1.92ZM112.01 17.88c.18-.03.35.12.38.3v4.71h8.22v-4.63c-.03-.17.12-.35.29-.38h1.97c.2-.03.38.09.41.3V29.96c0 .27-.14.39-.4.39h-1.9c-.17.03-.34-.12-.37-.3v-4.84h-8.22v4.75c.03.18-.11.36-.29.39h-1.97c-.27 0-.41-.12-.41-.39v-11.7c-.03-.21.12-.4.32-.4H112ZM127.64 17.88c.17-.03.37.09.4.3v9.43c0 .12.06.18.15.18h.14c.1 0 .2-.03.26-.12l5.2-8.73c.09-.18.2-.35.35-.5.12-.12.23-.24.38-.33.17-.08.35-.14.52-.14.26-.03.52-.06.78-.06h1.54c.44-.03.88.09 1.2.38.26.27.37.74.37 1.48V30c0 .27-.14.39-.4.39h-1.9c-.17.03-.34-.1-.37-.3v-9.44c0-.12-.06-.18-.14-.18h-.15a.26.26 0 0 0-.23.12l-5.26 8.7-.35.54c-.11.12-.23.23-.37.32-.15.09-.32.15-.53.18-.26.03-.52.06-.78.06h-1.51c-.44.03-.87-.1-1.2-.39-.25-.26-.4-.73-.4-1.47V18.26c0-.26.15-.38.4-.38h1.9ZM150.93 17.88c1.36 0 2.32.32 2.9.94.58.62.87 1.54.87 2.75v1.32c0 1.21-.29 2.13-.87 2.75-.58.62-1.54.91-2.9.94h-7.26V30a.33.33 0 0 1-.3.39h-1.97c-.26 0-.4-.12-.4-.39V18.41c-.03-.27.14-.5.37-.53h9.55Zm-7.26 6.31h6.73c.58 0 1.02-.12 1.25-.38.26-.33.4-.77.38-1.18v-.68c.03-.44-.12-.89-.38-1.21-.23-.27-.67-.38-1.25-.38h-6.5c-.15 0-.23.09-.23.2v3.63ZM158.6 17.88c.2-.03.37.12.37.3v9.4c0 .12.06.18.14.18h.15c.09 0 .2-.03.23-.12l5.2-8.73c.09-.18.2-.35.35-.5a2 2 0 0 1 .38-.32c.17-.1.34-.15.52-.15.26-.03.52-.06.78-.06h1.54c.44-.03.87.09 1.2.38.25.27.37.74.37 1.48v10.23c0 .27-.15.39-.4.39h-1.9c-.17.03-.34-.09-.37-.3v-9.41c0-.12-.06-.18-.15-.18h-.14a.26.26 0 0 0-.24.12l-5.25 8.7-.35.54a1.37 1.37 0 0 1-.9.5c-.26.03-.52.06-.78.06h-1.51c-.44.03-.88-.1-1.2-.39-.25-.26-.4-.73-.4-1.47V18.26c0-.26.14-.38.4-.38h1.95ZM174.21 17.88c.18-.03.35.12.38.3v4.71h8.22v-4.63a.33.33 0 0 1 .29-.38h2c.27 0 .41.12.41.38v11.71c0 .27-.14.39-.4.39h-1.9c-.17.03-.34-.09-.37-.3v-4.84h-8.25v4.75a.33.33 0 0 1-.29.39h-1.97c-.27 0-.41-.12-.41-.39v-11.7c0-.27.15-.4.4-.4h1.9ZM199.62 17.88c.18-.03.35.12.38.3v1.85c0 .27-.15.42-.38.42h-7.11c-.38 0-.76.02-1.13.11-.27.06-.53.21-.73.39-.17.2-.32.47-.38.73-.09.39-.11.8-.11 1.18v7.11c.03.18-.12.36-.3.39h-1.97c-.26 0-.4-.12-.4-.39V22.6a7.9 7.9 0 0 1 .26-2.18c.14-.56.46-1.07.87-1.45a3.8 3.8 0 0 1 1.5-.83 9.9 9.9 0 0 1 2.27-.26h7.23Z" fill="#E0E0E0"/><path d="M25.12 26.35a15.5 15.5 0 0 0 4.75-11.15V0H14.94A15 15 0 0 0 4 4.87 15.27 15.27 0 0 0 .04 16.35a15.08 15.08 0 0 0 13.74 13.98c.38.06.79.06 1.16.06 3.8.03 7.42-1.41 10.18-4.04ZM14.94 5.02h10v10.2c0 .24 0 .5-.03.77-.4 5.6-5.24 9.83-10.75 9.39a10.15 10.15 0 0 1-9.22-9.39c-.03-.26-.03-.53-.03-.8 0-5.63 4.5-10.2 10.03-10.17Z" fill="#007CC3"/></svg>