<svg width="136" height="137" viewBox="0 0 136 137" fill="none" xmlns="http://www.w3.org/2000/svg">
<rect y="0.866425" width="135.217" height="135.217" rx="64" fill="#2D50EA"/>
<path d="M41.0156 89.8664H40.0059V84.737H37.0034V89.8664H35.9937V83.8669H41.0156V89.8664ZM47.6704 89.8664H46.666V89.2273C46.5765 89.2881 46.4548 89.3741 46.3008 89.4851C46.1504 89.5925 46.0036 89.6784 45.8604 89.7429C45.6921 89.8252 45.4987 89.8933 45.2803 89.947C45.0618 90.0043 44.8058 90.0329 44.5122 90.0329C43.9715 90.0329 43.5132 89.8539 43.1372 89.4958C42.7612 89.1377 42.5732 88.6812 42.5732 88.1262C42.5732 87.6714 42.6699 87.3044 42.8633 87.0251C43.0602 86.7422 43.3395 86.5202 43.7012 86.3591C44.0664 86.198 44.505 86.0888 45.0171 86.0315C45.5291 85.9742 46.0788 85.9312 46.666 85.9026V85.7468C46.666 85.5176 46.6248 85.3279 46.5425 85.1775C46.4637 85.0271 46.3491 84.9089 46.1987 84.823C46.0555 84.7406 45.8836 84.6851 45.6831 84.6565C45.4826 84.6278 45.2731 84.6135 45.0547 84.6135C44.7897 84.6135 44.4943 84.6493 44.1685 84.7209C43.8426 84.789 43.506 84.8892 43.1587 85.0217H43.105V83.9958C43.3019 83.9421 43.5866 83.883 43.959 83.8186C44.3314 83.7541 44.6984 83.7219 45.0601 83.7219C45.4826 83.7219 45.8496 83.7577 46.1611 83.8293C46.4762 83.8973 46.7484 84.0155 46.9775 84.1838C47.2031 84.3485 47.375 84.5616 47.4932 84.823C47.6113 85.0844 47.6704 85.4084 47.6704 85.7951V89.8664ZM46.666 88.3894V86.719C46.3581 86.7369 45.9946 86.7637 45.5757 86.7995C45.1603 86.8353 44.8309 86.8873 44.5874 86.9553C44.2974 87.0376 44.0628 87.1666 43.8838 87.342C43.7048 87.5139 43.6152 87.752 43.6152 88.0564C43.6152 88.4001 43.7191 88.6597 43.9268 88.8352C44.1344 89.007 44.4513 89.093 44.8774 89.093C45.2319 89.093 45.556 89.025 45.8496 88.8889C46.1432 88.7492 46.4154 88.5827 46.666 88.3894ZM54.8945 86.7942C54.8945 87.2811 54.8247 87.7269 54.6851 88.1316C54.5454 88.5326 54.3485 88.8728 54.0942 89.1521C53.8579 89.417 53.5786 89.6229 53.2563 89.7697C52.9377 89.913 52.5993 89.9846 52.2412 89.9846C51.9297 89.9846 51.6468 89.9506 51.3926 89.8825C51.1419 89.8145 50.8859 89.7089 50.6245 89.5656V92.0793H49.6147V83.8669H50.6245V84.4953C50.8931 84.2697 51.1938 84.0818 51.5269 83.9314C51.8634 83.7774 52.2215 83.7004 52.6011 83.7004C53.3244 83.7004 53.8866 83.9743 54.2876 84.5222C54.6922 85.0665 54.8945 85.8238 54.8945 86.7942ZM53.8525 86.821C53.8525 86.0977 53.729 85.557 53.4819 85.1989C53.2349 84.8409 52.8553 84.6618 52.3433 84.6618C52.0532 84.6618 51.7614 84.7245 51.4678 84.8498C51.1742 84.9751 50.8931 85.1399 50.6245 85.344V88.7439C50.911 88.8728 51.1562 88.9605 51.3604 89.007C51.568 89.0536 51.8026 89.0769 52.064 89.0769C52.6261 89.0769 53.0648 88.8871 53.3799 88.5075C53.695 88.128 53.8525 87.5658 53.8525 86.821ZM60.8779 84.7531H58.708V89.8664H57.6982V84.7531H55.5283V83.8669H60.8779V84.7531ZM66.9473 89.8664H65.9375V87.1648H62.9351V89.8664H61.9253V83.8669H62.9351V86.2946H65.9375V83.8669H66.9473V89.8664ZM73.9619 86.9714H69.5415C69.5415 87.3402 69.597 87.6625 69.708 87.9382C69.819 88.2103 69.9712 88.4341 70.1646 88.6096C70.3507 88.7815 70.571 88.9104 70.8252 88.9963C71.083 89.0822 71.3659 89.1252 71.6738 89.1252C72.082 89.1252 72.492 89.0446 72.9038 88.8835C73.3192 88.7188 73.6146 88.5577 73.79 88.4001H73.8438V89.5012C73.5036 89.6444 73.1562 89.7644 72.8018 89.8611C72.4473 89.9577 72.0749 90.0061 71.6846 90.0061C70.6891 90.0061 69.9121 89.7375 69.3535 89.2004C68.7949 88.6597 68.5156 87.8934 68.5156 86.9016C68.5156 85.9205 68.7824 85.1417 69.3159 84.5652C69.853 83.9887 70.5584 83.7004 71.4321 83.7004C72.2414 83.7004 72.8644 83.9367 73.3013 84.4094C73.7417 84.882 73.9619 85.5534 73.9619 86.4236V86.9714ZM72.979 86.198C72.9754 85.668 72.8411 85.258 72.5762 84.968C72.3148 84.6779 71.9155 84.5329 71.3784 84.5329C70.8377 84.5329 70.4062 84.6923 70.084 85.011C69.7653 85.3296 69.5845 85.7253 69.5415 86.198H72.979ZM80.7725 86.7942C80.7725 87.2811 80.7026 87.7269 80.563 88.1316C80.4233 88.5326 80.2264 88.8728 79.9722 89.1521C79.7358 89.417 79.4565 89.6229 79.1343 89.7697C78.8156 89.913 78.4772 89.9846 78.1191 89.9846C77.8076 89.9846 77.5247 89.9506 77.2705 89.8825C77.0199 89.8145 76.7638 89.7089 76.5024 89.5656V92.0793H75.4927V83.8669H76.5024V84.4953C76.771 84.2697 77.0718 84.0818 77.4048 83.9314C77.7414 83.7774 78.0994 83.7004 78.479 83.7004C79.2023 83.7004 79.7645 83.9743 80.1655 84.5222C80.5701 85.0665 80.7725 85.8238 80.7725 86.7942ZM79.7305 86.821C79.7305 86.0977 79.6069 85.557 79.3599 85.1989C79.1128 84.8409 78.7332 84.6618 78.2212 84.6618C77.9312 84.6618 77.6393 84.7245 77.3457 84.8498C77.0521 84.9751 76.771 85.1399 76.5024 85.344V88.7439C76.7889 88.8728 77.0342 88.9605 77.2383 89.007C77.446 89.0536 77.6805 89.0769 77.9419 89.0769C78.5041 89.0769 78.9427 88.8871 79.2578 88.5075C79.5729 88.128 79.7305 87.5658 79.7305 86.821ZM86.8364 89.4904C86.4246 89.6838 86.0701 89.8163 85.7729 89.8879C85.4793 89.9631 85.1857 90.0007 84.8921 90.0007C84.4552 90.0007 84.0542 89.938 83.689 89.8127C83.3237 89.6838 83.0104 89.4904 82.749 89.2326C82.4876 88.9748 82.2835 88.649 82.1367 88.2551C81.9935 87.8612 81.9219 87.4011 81.9219 86.8747C81.9219 85.9187 82.1868 85.156 82.7168 84.5866C83.2467 84.0137 83.9718 83.7273 84.8921 83.7273C85.2394 83.7273 85.5796 83.7756 85.9126 83.8723C86.2492 83.969 86.5571 84.0871 86.8364 84.2268V85.3493H86.7773C86.4443 85.0951 86.1149 84.9071 85.7891 84.7854C85.4668 84.6636 85.1535 84.6028 84.8491 84.6028C84.2511 84.6028 83.7874 84.8033 83.458 85.2043C83.1322 85.6054 82.9692 86.1622 82.9692 86.8747C82.9692 87.5873 83.1322 88.1405 83.458 88.5344C83.7839 88.9283 84.2476 89.1252 84.8491 89.1252C85.0604 89.1252 85.2699 89.0984 85.4775 89.0446C85.6888 88.9909 85.8804 88.9211 86.0522 88.8352C86.1883 88.7671 86.328 88.6866 86.4712 88.5935C86.618 88.4968 86.7201 88.4252 86.7773 88.3786H86.8364V89.4904ZM93.6362 89.8664H92.3149L89.8228 87.1164H89.2749V89.8664H88.2651V83.8669H89.2749V86.4558C89.6079 86.4558 89.8765 86.3967 90.0806 86.2785C90.2847 86.1568 90.4583 85.9634 90.6016 85.6985C90.6517 85.6018 90.7 85.4997 90.7466 85.3923C90.7967 85.2813 90.8451 85.1757 90.8916 85.0754C91.0778 84.6708 91.3105 84.3682 91.5898 84.1677C91.8691 83.9672 92.2702 83.8669 92.793 83.8669H93.2549V84.737H92.8091C92.5262 84.737 92.3042 84.7979 92.1431 84.9196C91.9855 85.0378 91.8423 85.2473 91.7134 85.5481C91.5701 85.8847 91.418 86.1371 91.2568 86.3054C91.0993 86.4701 90.931 86.5954 90.752 86.6814L93.6362 89.8664ZM99.7861 89.8664H98.7871V85.3601L95.645 89.8664H94.7319V83.8669H95.731V88.3088L98.8408 83.8669H99.7861V89.8664ZM106.973 89.8664H105.7L103.997 87.5622L102.284 89.8664H101.107L103.449 86.8747L101.129 83.8669H102.402L104.094 86.1335L105.791 83.8669H106.973L104.615 86.821L106.973 89.8664ZM41.0156 102.866H40.0059V97.737H37.0034V102.866H35.9937V96.8669H41.0156V102.866ZM48.2881 99.7942C48.2881 100.281 48.2183 100.727 48.0786 101.132C47.939 101.533 47.742 101.873 47.4878 102.152C47.2515 102.417 46.9722 102.623 46.6499 102.77C46.3312 102.913 45.9928 102.985 45.6348 102.985C45.3232 102.985 45.0404 102.951 44.7861 102.883C44.5355 102.815 44.2795 102.709 44.0181 102.566V105.079H43.0083V96.8669H44.0181V97.4953C44.2866 97.2697 44.5874 97.0818 44.9204 96.9314C45.257 96.7774 45.6151 96.7004 45.9946 96.7004C46.7179 96.7004 47.2801 96.9743 47.6812 97.5222C48.0858 98.0665 48.2881 98.8238 48.2881 99.7942ZM47.2461 99.821C47.2461 99.0977 47.1226 98.557 46.8755 98.1989C46.6284 97.8409 46.2489 97.6618 45.7368 97.6618C45.4468 97.6618 45.1549 97.7245 44.8613 97.8498C44.5677 97.9751 44.2866 98.1399 44.0181 98.344V101.744C44.3045 101.873 44.5498 101.961 44.7539 102.007C44.9616 102.054 45.1961 102.077 45.4575 102.077C46.0197 102.077 46.4583 101.887 46.7734 101.508C47.0885 101.128 47.2461 100.566 47.2461 99.821ZM54.9751 99.8694C54.9751 100.847 54.7244 101.619 54.2231 102.184C53.7218 102.75 53.0505 103.033 52.209 103.033C51.3604 103.033 50.6854 102.75 50.1841 102.184C49.6864 101.619 49.4375 100.847 49.4375 99.8694C49.4375 98.8918 49.6864 98.1202 50.1841 97.5544C50.6854 96.9851 51.3604 96.7004 52.209 96.7004C53.0505 96.7004 53.7218 96.9851 54.2231 97.5544C54.7244 98.1202 54.9751 98.8918 54.9751 99.8694ZM53.9331 99.8694C53.9331 99.0923 53.7809 98.5158 53.4766 98.1399C53.1722 97.7603 52.7497 97.5705 52.209 97.5705C51.6611 97.5705 51.235 97.7603 50.9307 98.1399C50.6299 98.5158 50.4795 99.0923 50.4795 99.8694C50.4795 100.621 50.6317 101.192 50.936 101.583C51.2404 101.969 51.6647 102.163 52.209 102.163C52.7461 102.163 53.1668 101.971 53.4712 101.588C53.7791 101.201 53.9331 100.628 53.9331 99.8694ZM60.6792 97.7531H57.5532V102.866H56.5435V96.8669H60.6792V97.7531ZM67.0117 99.7942C67.0117 100.281 66.9419 100.727 66.8022 101.132C66.6626 101.533 66.4657 101.873 66.2114 102.152C65.9751 102.417 65.6958 102.623 65.3735 102.77C65.0549 102.913 64.7165 102.985 64.3584 102.985C64.0469 102.985 63.764 102.951 63.5098 102.883C63.2591 102.815 63.0031 102.709 62.7417 102.566V105.079H61.7319V96.8669H62.7417V97.4953C63.0103 97.2697 63.311 97.0818 63.644 96.9314C63.9806 96.7774 64.3387 96.7004 64.7183 96.7004C65.4416 96.7004 66.0037 96.9743 66.4048 97.5222C66.8094 98.0665 67.0117 98.8238 67.0117 99.7942ZM65.9697 99.821C65.9697 99.0977 65.8462 98.557 65.5991 98.1989C65.3521 97.8409 64.9725 97.6618 64.4604 97.6618C64.1704 97.6618 63.8786 97.7245 63.585 97.8498C63.2913 97.9751 63.0103 98.1399 62.7417 98.344V101.744C63.0282 101.873 63.2734 101.961 63.4775 102.007C63.6852 102.054 63.9198 102.077 64.1812 102.077C64.7433 102.077 65.182 101.887 65.4971 101.508C65.8122 101.128 65.9697 100.566 65.9697 99.821ZM73.2476 102.866H72.2432V102.227C72.1536 102.288 72.0319 102.374 71.8779 102.485C71.7275 102.592 71.5807 102.678 71.4375 102.743C71.2692 102.825 71.0758 102.893 70.8574 102.947C70.639 103.004 70.383 103.033 70.0894 103.033C69.5487 103.033 69.0903 102.854 68.7144 102.496C68.3384 102.138 68.1504 101.681 68.1504 101.126C68.1504 100.671 68.2471 100.304 68.4404 100.025C68.6374 99.7422 68.9167 99.5202 69.2783 99.3591C69.6436 99.198 70.0822 99.0888 70.5942 99.0315C71.1063 98.9742 71.6559 98.9312 72.2432 98.9026V98.7468C72.2432 98.5176 72.202 98.3279 72.1196 98.1775C72.0409 98.0271 71.9263 97.9089 71.7759 97.823C71.6326 97.7406 71.4608 97.6851 71.2603 97.6565C71.0597 97.6278 70.8503 97.6135 70.6318 97.6135C70.3669 97.6135 70.0715 97.6493 69.7456 97.7209C69.4198 97.789 69.0832 97.8892 68.7358 98.0217H68.6821V96.9958C68.8791 96.9421 69.1637 96.883 69.5361 96.8186C69.9085 96.7541 70.2756 96.7219 70.6372 96.7219C71.0597 96.7219 71.4268 96.7577 71.7383 96.8293C72.0534 96.8973 72.3255 97.0155 72.5547 97.1838C72.7803 97.3485 72.9521 97.5616 73.0703 97.823C73.1885 98.0844 73.2476 98.4084 73.2476 98.7951V102.866ZM72.2432 101.389V99.719C71.9352 99.7369 71.5718 99.7637 71.1528 99.7995C70.7375 99.8353 70.408 99.8873 70.1646 99.9553C69.8745 100.038 69.64 100.167 69.4609 100.342C69.2819 100.514 69.1924 100.752 69.1924 101.056C69.1924 101.4 69.2962 101.66 69.5039 101.835C69.7116 102.007 70.0285 102.093 70.4546 102.093C70.8091 102.093 71.1331 102.025 71.4268 101.889C71.7204 101.749 71.9925 101.583 72.2432 101.389ZM80.8638 102.866H79.8647V98.1291L78.3716 101.212H77.6196L76.1372 98.1291V102.866H75.1919V96.8669H76.4111L78.0439 100.224L79.623 96.8669H80.8638V102.866ZM88.5229 102.866H87.5239V98.1291L86.0308 101.212H85.2788L83.7964 98.1291V102.866H82.8511V96.8669H84.0703L85.7031 100.224L87.2822 96.8669H88.5229V102.866Z" fill="white"/>
<path d="M49.2266 72.8664H35.6367V69.3117H39.9297V58.552H35.6367V55.2297C36.293 55.2297 36.9219 55.1932 37.5234 55.1203C38.125 55.0383 38.6263 54.9016 39.0273 54.7102C39.5013 54.4823 39.8568 54.1861 40.0938 53.8215C40.3307 53.4569 40.4674 53.0012 40.5039 52.4543H45.0293V69.3117H49.2266V72.8664ZM70.459 67.1789C70.459 68.9836 69.6888 70.4602 68.1484 71.6086C66.6172 72.757 64.5117 73.3313 61.832 73.3313C60.3281 73.3313 59.0384 73.1763 57.9629 72.8664C56.8874 72.5565 55.9987 72.1281 55.2969 71.5813C54.6042 71.0435 54.0892 70.4146 53.752 69.6945C53.4238 68.9745 53.2598 68.1998 53.2598 67.3703C53.2598 66.3495 53.556 65.4472 54.1484 64.6633C54.75 63.8703 55.7845 63.1776 57.252 62.5852V62.5031C56.0671 61.9563 55.1966 61.2681 54.6406 60.4387C54.0846 59.6093 53.8066 58.6477 53.8066 57.5539C53.8066 55.9406 54.554 54.619 56.0488 53.5891C57.5436 52.5591 59.4896 52.0442 61.8867 52.0442C64.4023 52.0442 66.3711 52.5136 67.793 53.4524C69.224 54.382 69.9395 55.6262 69.9395 57.1848C69.9395 58.1509 69.6387 59.0123 69.0371 59.7688C68.4355 60.5253 67.515 61.1679 66.2754 61.6965V61.7785C67.6973 62.3163 68.75 63.0409 69.4336 63.9524C70.1172 64.8638 70.459 65.9393 70.459 67.1789ZM64.8125 57.7727C64.8125 57.08 64.5436 56.5285 64.0059 56.1184C63.4772 55.7082 62.7708 55.5031 61.8867 55.5031C61.5586 55.5031 61.2214 55.5442 60.875 55.6262C60.5378 55.7082 60.2279 55.8267 59.9453 55.9817C59.681 56.1366 59.4622 56.3417 59.2891 56.5969C59.1159 56.843 59.0293 57.1255 59.0293 57.4445C59.0293 57.9823 59.1797 58.4016 59.4805 58.7024C59.7904 59.0031 60.2917 59.3039 60.9844 59.6047C61.2396 59.7141 61.5859 59.8508 62.0234 60.0149C62.4701 60.1698 63.0078 60.3475 63.6367 60.5481C64.056 60.0559 64.3568 59.6138 64.5391 59.2219C64.7214 58.83 64.8125 58.3469 64.8125 57.7727ZM65.2363 67.4113C65.2363 66.7551 65.0723 66.2584 64.7441 65.9211C64.416 65.5839 63.7415 65.1965 62.7207 64.759C62.4199 64.6223 61.9824 64.4537 61.4082 64.2531C60.834 64.0526 60.3509 63.8794 59.959 63.7336C59.5671 64.0891 59.2116 64.522 58.8926 65.0324C58.5827 65.5337 58.4277 66.0988 58.4277 66.7278C58.4277 67.6757 58.765 68.4322 59.4395 68.9973C60.123 69.5533 61.0117 69.8313 62.1055 69.8313C62.3971 69.8313 62.7389 69.7903 63.1309 69.7082C63.5228 69.6171 63.86 69.4804 64.1426 69.2981C64.4707 69.0884 64.735 68.8423 64.9355 68.5598C65.1361 68.2772 65.2363 67.8944 65.2363 67.4113Z" fill="white"/>
<g opacity="0.2" clip-path="url(#clip0_124:1699)">
<path d="M102.298 52.5511C99.9726 49.2328 96.2438 47.2675 92.2737 47.2675C88.3036 47.2675 84.5748 49.2328 82.2493 52.5511C82.2282 52.5765 82.2088 52.6032 82.1911 52.6311C79.0856 57.0707 79.0856 63.0622 82.1911 67.5019C82.2091 67.5298 82.2288 67.5565 82.2501 67.5819C84.5785 70.9035 88.3128 72.869 92.2872 72.8647C96.2616 72.8604 99.992 70.8869 102.314 67.5603C102.348 67.5217 102.379 67.4796 102.405 67.4347C105.464 62.9971 105.445 57.0438 102.358 52.6271C102.339 52.6006 102.319 52.5753 102.298 52.5511ZM101.427 66.0667C100.513 65.7709 99.5797 65.5424 98.6343 65.3827C98.9881 63.9035 99.1889 62.3898 99.2332 60.8669H103.094C102.968 62.7165 102.395 64.5041 101.427 66.0667ZM81.4526 60.8669H85.3134C85.3559 62.3885 85.5546 63.9011 85.9061 65.3795C84.9607 65.5391 84.0275 65.7677 83.1135 66.0635C82.1482 64.5013 81.5773 62.7148 81.4526 60.8669ZM83.1197 54.0671C84.0337 54.3629 84.9669 54.5914 85.9123 54.7511C85.5585 56.2303 85.3577 57.744 85.3134 59.2669H81.4526C81.5786 57.4173 82.1517 55.6297 83.1197 54.0671ZM93.049 55.2543C94.3972 55.2337 95.7435 55.1432 97.0829 54.9831C97.4334 56.3843 97.6347 57.8207 97.6833 59.2669H93.049V55.2543ZM93.049 53.6543V49.0009C94.4849 49.4472 95.7556 51.0984 96.605 53.4279C95.4848 53.5543 94.2902 53.6311 93.049 53.6543ZM91.4976 49.0009V53.6543C90.2564 53.6311 89.0618 53.5543 87.9416 53.4279C88.7911 51.0984 90.0617 49.4472 91.4976 49.0009ZM91.4976 55.2543V59.2669H86.8634C86.9112 57.8208 87.1117 56.3844 87.4614 54.9831C88.8016 55.1433 90.1486 55.2338 91.4976 55.2543ZM86.8634 60.8669H91.4976V64.8795C90.1494 64.9001 88.8031 64.9906 87.4638 65.1507C87.1133 63.7495 86.9119 62.3131 86.8634 60.8669ZM91.4976 66.4795V71.1329C90.0617 70.6866 88.7911 69.0354 87.9416 66.7059C89.0618 66.5795 90.2564 66.5027 91.4976 66.4795ZM93.049 71.1329V66.4795C94.2902 66.5027 95.4848 66.5795 96.605 66.7059C95.7556 69.0354 94.4849 70.6866 93.049 71.1329ZM93.049 64.8795V60.8669H97.6833C97.6354 62.313 97.4349 63.7494 97.0852 65.1507C95.7451 64.9905 94.398 64.9 93.049 64.8795ZM99.2332 59.2669C99.1907 57.7453 98.992 56.2327 98.6405 54.7543C99.5859 54.5946 100.519 54.3661 101.433 54.0703C102.398 55.6325 102.969 57.419 103.094 59.2669H99.2332ZM100.441 52.7071C99.7006 52.9155 98.9496 53.0813 98.1914 53.2039C97.7834 51.9524 97.1854 50.7757 96.4196 49.7176C97.9648 50.3827 99.3407 51.4056 100.441 52.7071ZM88.1278 49.7192C87.362 50.7773 86.764 51.954 86.356 53.2055C85.5978 53.0829 84.8468 52.9171 84.1064 52.7087C85.2067 51.4072 86.5826 50.3843 88.1278 49.7192ZM84.1056 67.4267C84.846 67.2183 85.5971 67.0525 86.3553 66.9299C86.7632 68.1813 87.3612 69.3581 88.127 70.4162C86.5819 69.7511 85.2059 68.7282 84.1056 67.4267ZM96.4188 70.4162C97.1846 69.3581 97.7827 68.1813 98.1906 66.9299C98.9488 67.0525 99.6998 67.2183 100.44 67.4267C99.3398 68.7276 97.9638 69.7499 96.4188 70.4146V70.4162Z" fill="white"/>
<path d="M102.221 46.2273C100.405 44.202 98.7692 42.0125 97.3335 39.6851C95.5918 36.5709 94.2663 33.2282 93.3928 29.7478C93.247 29.225 92.7826 28.8652 92.255 28.8663C91.7274 28.8674 91.2645 29.2291 91.1207 29.7526C90.2477 33.2307 88.9232 36.5711 87.1831 39.6835C85.7474 42.0108 84.1117 44.2003 82.296 46.2257C81.9205 46.671 81.5463 47.1169 81.1735 47.5633C79.2256 49.9112 77.256 52.5007 76.4314 56.0486C74.8858 62.8793 77.5692 69.9874 83.1865 73.9424C85.8544 75.8263 89.0075 76.8446 92.2408 76.8663H92.2734C95.5066 76.845 98.6597 75.8274 101.328 73.944C106.946 69.9892 109.631 62.8803 108.085 56.0486C107.261 52.5007 105.293 49.9112 103.342 47.5633C102.972 47.1161 102.596 46.6713 102.221 46.2273ZM100.454 72.6264C98.0431 74.3278 95.1944 75.2472 92.2734 75.2664H92.2571C89.3297 75.2479 86.4746 74.3265 84.0592 72.6208C78.9721 69.0415 76.5408 62.6064 77.9387 56.4214C78.6826 53.2215 80.5257 50.8032 82.3503 48.6032C82.7187 48.16 83.0919 47.7185 83.465 47.2769C85.3444 45.1793 87.036 42.9107 88.5189 40.4987C90.1178 37.659 91.3732 34.628 92.2571 31.4734C93.1417 34.6283 94.3976 37.6596 95.9969 40.4995C97.479 42.9116 99.1704 45.18 101.05 47.2769C101.423 47.7185 101.794 48.1606 102.164 48.6032C103.989 50.8032 105.832 53.2183 106.576 56.4214C107.976 62.6087 105.543 69.0468 100.454 72.6264Z" fill="white"/>
</g>
<defs>
<clipPath id="clip0_124:1699">
<rect width="48" height="48" fill="white" transform="translate(68 28.8664)"/>
</clipPath>
</defs>
</svg>
