<svg width="137" height="136" fill="none" xmlns="http://www.w3.org/2000/svg"><rect x=".923" y=".783" width="135.217" height="135.217" rx="64" fill="#2D50E9"/><g opacity=".3" clip-path="url(#a)"><path d="M58.615 55.027a3.2 3.2 0 0 1 .508 1.731v3.625a2.4 2.4 0 0 0 2.4 2.4h7.2a2.385 2.385 0 0 0 1.6-.624c.437.4 1.008.622 1.6.624h7.2a2.4 2.4 0 0 0 2.4-2.4v-3.625a3.2 3.2 0 0 1 .508-1.73l5.549-8.631a7.188 7.188 0 0 0 1.143-3.894v-13.32a3.2 3.2 0 0 0-6.4 0v2.46c-3.161-8.441-9.994-15.453-10.979-16.433a1.444 1.444 0 0 0-1.036-.427c-.379.002-.742.155-1.007.427a55.112 55.112 0 0 0-4.458 5.145 10.748 10.748 0 0 1-.92-4.772.8.8 0 1 0-1.6 0c0 7.44-4.601 7.6-4.806 7.6h-.009a.8.8 0 0 0 .01 1.6 4.48 4.48 0 0 1 3.211 1.775 37.717 37.717 0 0 0-2.406 5.069v-2.444a3.2 3.2 0 1 0-6.4 0v13.32c0 1.381.396 2.733 1.144 3.895l5.548 8.63Zm25.308-25.844a1.6 1.6 0 0 1 3.2 0v13.32a5.6 5.6 0 0 1-.889 3.03l-5.549 8.63a4.785 4.785 0 0 0-.762 2.596v3.624a.8.8 0 0 1-.8.8h-7.2a.8.8 0 0 1-.8-.8v-3.719a9.539 9.539 0 0 1 2.812-6.789l.25-.25c.603-.599.94-1.414.938-2.263v-6.394a9.402 9.402 0 0 0 4 0v3.015a1.6 1.6 0 0 0 2.85 1l1.6-2a1.6 1.6 0 0 0 .35-1v-12.8Zm-4.8 10.112a5.724 5.724 0 0 1-2 .288 5.725 5.725 0 0 1-2-.288v-.912a2 2 0 0 1 4 0v.912ZM60.144 23.983a6.859 6.859 0 0 0 2.979-3.57 7.85 7.85 0 0 0 1.019 1.837 6.432 6.432 0 0 0 1.96 1.733 6.857 6.857 0 0 0-2.98 3.573c-.199-.504-.45-.987-.748-1.44a.765.765 0 0 0-.102-.151 6.5 6.5 0 0 0-2.128-1.982ZM61.65 28.2c.482 1.341.71 2.76.674 4.184a.8.8 0 1 0 1.6 0c0-7.444 4.61-7.6 4.8-7.6a.8.8 0 1 0 0-1.6 4.31 4.31 0 0 1-2.94-1.423 54.916 54.916 0 0 1 4.54-5.309c1.659 1.674 12 12.543 12 23.244 0 .173-.008.354-.015.526a.914.914 0 0 0 .015.094v1.668l-1.6 2v-5.6a3.6 3.6 0 1 0-7.2 0v8.979c0 .424-.168.832-.469 1.132l-.25.25a11.175 11.175 0 0 0-2.48 3.76 11.172 11.172 0 0 0-2.48-3.76l-.25-.25a1.592 1.592 0 0 1-.471-1.132v-8.979a3.6 3.6 0 1 0-7.2 0v5.6l-1.6-2v-3.479a26.154 26.154 0 0 1 3.326-10.303v-.002Zm3.874 11.096a5.724 5.724 0 0 1-2 .288 5.725 5.725 0 0 1-2-.288v-.912a2 2 0 0 1 4 0v.912Zm-12-10.112a1.6 1.6 0 1 1 3.2 0v12.8c0 .364.123.716.35 1l1.6 2a1.6 1.6 0 0 0 2.85-1v-3.015a9.402 9.402 0 0 0 4 0v6.394c-.003.85.335 1.664.937 2.263l.25.25a9.538 9.538 0 0 1 2.813 6.79v3.718a.8.8 0 0 1-.8.8h-7.2a.8.8 0 0 1-.8-.8v-3.625a4.783 4.783 0 0 0-.763-2.596l-5.547-8.63a5.594 5.594 0 0 1-.89-3.029v-13.32Z" fill="url(#b)"/></g><path d="M48.435 89.783H32.452V86.42a82.027 82.027 0 0 0 3.664-2.816c1.23-.994 2.215-1.85 2.953-2.57 1.103-1.067 1.887-1.997 2.352-2.79.465-.793.697-1.576.697-2.351 0-.93-.3-1.645-.902-2.147-.593-.51-1.45-.765-2.57-.765-.839 0-1.723.173-2.653.52-.92.346-1.777.788-2.57 1.325h-.438v-4.525c.648-.283 1.6-.565 2.858-.848a17.41 17.41 0 0 1 3.8-.424c2.553 0 4.499.538 5.838 1.614 1.34 1.066 2.01 2.58 2.01 4.539a7.4 7.4 0 0 1-.97 3.664c-.639 1.157-1.618 2.351-2.94 3.582a37.243 37.243 0 0 1-2.502 2.119 92.942 92.942 0 0 1-1.79 1.34h9.146v3.896Zm20.193-4.69h-2.775v4.745h-5.018v-4.744h-9.858v-3.856l9.53-11.812h5.346v11.95h2.775v3.718Zm-7.793-3.718V74.02l-5.92 7.355h5.92Zm27.275-1.777c0 1.713-.155 3.25-.465 4.607-.31 1.35-.792 2.457-1.449 3.323a6.382 6.382 0 0 1-2.597 2.01c-1.058.446-2.361.67-3.91.67-1.523 0-2.821-.229-3.897-.684-1.076-.456-1.946-1.13-2.611-2.024-.675-.893-1.162-2-1.463-3.322-.301-1.33-.451-2.853-.451-4.566 0-1.769.154-3.305.464-4.608.31-1.303.803-2.406 1.477-3.309.674-.893 1.55-1.563 2.625-2.01 1.076-.446 2.36-.67 3.856-.67 1.558 0 2.866.233 3.923.698a6.25 6.25 0 0 1 2.598 2.05c.665.894 1.148 1.997 1.45 3.31.3 1.303.45 2.811.45 4.525Zm-5.29 0c0-2.461-.242-4.211-.725-5.25-.483-1.048-1.285-1.573-2.406-1.573-1.122 0-1.924.525-2.407 1.573-.483 1.039-.724 2.798-.724 5.277 0 2.415.246 4.156.738 5.223.492 1.066 1.29 1.6 2.392 1.6 1.103 0 1.9-.534 2.393-1.6.492-1.067.738-2.817.738-5.25Zm24.909-6.125-9.214 16.31h-5.852l9.57-16.46H91.774v-3.897h15.955v4.047ZM48.95 101.51c-.3.141-.557.237-.773.289a2.685 2.685 0 0 1-1.516-.055 1.808 1.808 0 0 1-.684-.422 1.918 1.918 0 0 1-.445-.711 2.931 2.931 0 0 1-.156-1.003c0-.696.193-1.25.578-1.665.386-.416.913-.624 1.582-.624.253 0 .5.035.742.105.245.07.47.156.672.258v.816h-.043a2.825 2.825 0 0 0-.718-.41 1.93 1.93 0 0 0-.684-.133c-.435 0-.772.146-1.012.438-.237.291-.355.696-.355 1.215 0 .518.118.92.355 1.207.237.286.574.429 1.012.429a2.042 2.042 0 0 0 .875-.211 3.173 3.173 0 0 0 .527-.332h.043v.809Zm4.406.273h-.734v-1.675a7.494 7.494 0 0 1-.68.175 3.472 3.472 0 0 1-.707.067c-.468 0-.827-.115-1.074-.344-.247-.232-.371-.565-.371-1V97.42h.734v1.211c0 .167.01.316.032.45.02.13.065.243.133.34a.635.635 0 0 0 .285.214c.122.05.293.074.511.074.18 0 .375-.017.586-.05.211-.037.395-.079.551-.126V97.42h.734v4.363Zm4.836 0h-.73v-.464c-.065.044-.154.106-.266.187a2.154 2.154 0 0 1-.742.336 2.204 2.204 0 0 1-.559.062c-.393 0-.726-.13-1-.39-.273-.261-.41-.593-.41-.996 0-.331.07-.598.211-.801.144-.206.347-.367.61-.484.265-.118.584-.197.957-.239.372-.041.772-.073 1.199-.094v-.113a.855.855 0 0 0-.09-.414.627.627 0 0 0-.25-.258c-.104-.06-.23-.1-.375-.12a3.236 3.236 0 0 0-.457-.032c-.193 0-.407.026-.645.078-.237.05-.481.123-.734.219h-.039v-.746c.143-.04.35-.082.621-.13.271-.046.538-.07.8-.07.308 0 .575.027.802.079.229.05.427.135.593.257.164.12.29.275.375.465.086.19.13.426.13.707v2.961Zm-.73-1.074v-1.215a29.47 29.47 0 0 0-.793.059 4.081 4.081 0 0 0-.719.113c-.21.06-.381.154-.512.281-.13.125-.195.299-.195.52 0 .25.076.439.227.566.15.125.381.188.691.188.258 0 .494-.05.707-.149.214-.101.412-.222.594-.363Zm5.41.801c-.3.141-.557.237-.773.289a2.685 2.685 0 0 1-1.516-.055 1.808 1.808 0 0 1-.684-.422 1.918 1.918 0 0 1-.445-.711 2.929 2.929 0 0 1-.156-1.003c0-.696.193-1.25.578-1.665.385-.416.913-.624 1.582-.624.253 0 .5.035.742.105.245.07.469.156.672.258v.816h-.043a2.827 2.827 0 0 0-.719-.41 1.93 1.93 0 0 0-.683-.133c-.435 0-.772.146-1.012.438-.237.291-.355.696-.355 1.215 0 .518.118.92.355 1.207.237.286.574.429 1.012.429a2.044 2.044 0 0 0 .875-.211 3.16 3.16 0 0 0 .527-.332h.043v.809Zm4.215-3.445h-1.578v3.718h-.735v-3.718h-1.578v-.645h3.89v.645Zm4.281 3.718h-.734v-3.746h-1.63a191.036 191.036 0 0 1-.046 1.168 9.396 9.396 0 0 1-.09 1.043 3.167 3.167 0 0 1-.164.645 1.581 1.581 0 0 1-.21.394 2.058 2.058 0 0 1-.247.27.908.908 0 0 1-.297.176 1.018 1.018 0 0 1-.351.058c-.045 0-.11-.001-.196-.004l-.164-.004v-.64h.04c.02 0 .05.001.09.004.038.002.07.004.097.004.062 0 .126-.01.191-.028a.363.363 0 0 0 .172-.101c.133-.131.24-.351.32-.661.081-.309.135-.757.16-1.343a150.49 150.49 0 0 0 .055-1.598h3.004v4.363Zm5.125 0h-.726v-3.277l-2.286 3.277h-.664V97.42h.727v3.231l2.262-3.23h.687v4.362Zm5.05-1.32c0 .211-.042.398-.128.563-.083.164-.2.3-.348.41a1.66 1.66 0 0 1-.546.265 2.945 2.945 0 0 1-.774.082h-1.805V97.42h1.688c.325 0 .57.012.734.035.167.021.323.07.469.145a.835.835 0 0 1 .36.336c.078.138.117.3.117.488a.895.895 0 0 1-.184.563c-.122.158-.28.282-.473.37v.04c.258.062.47.183.637.363.17.177.254.411.254.703Zm-.987-1.926a.517.517 0 0 0-.063-.254.4.4 0 0 0-.183-.175.896.896 0 0 0-.371-.09 9.014 9.014 0 0 0-.504-.012h-.766v1.195h.918c.193 0 .334-.006.426-.02a.787.787 0 0 0 .28-.109.505.505 0 0 0 .204-.218.764.764 0 0 0 .059-.317Zm.23 1.93a.746.746 0 0 0-.07-.348c-.047-.091-.15-.174-.309-.25a.88.88 0 0 0-.32-.082 5.545 5.545 0 0 0-.477-.015h-.941v1.425h.695c.292 0 .516-.009.672-.027.159-.021.296-.064.41-.129a.66.66 0 0 0 .254-.238.633.633 0 0 0 .086-.336Zm4.602-.023a.805.805 0 0 0-.07-.348.532.532 0 0 0-.223-.246.881.881 0 0 0-.375-.117 6.847 6.847 0 0 0-.598-.02h-.687v1.484h.671c.26 0 .463-.01.606-.031.143-.023.267-.066.371-.129a.622.622 0 0 0 .23-.238.756.756 0 0 0 .075-.355Zm.757-.012c0 .211-.042.402-.128.574a1.107 1.107 0 0 1-.344.418 1.63 1.63 0 0 1-.55.277 2.852 2.852 0 0 1-.755.082H82.7V97.42h.735v1.7h.953c.328 0 .582.016.761.05.183.034.364.117.543.25.151.112.265.255.34.43.076.174.114.368.114.582Zm.731-3.012h.734v4.363h-.734V97.42Zm5.96 4.363h-.925l-1.238-1.675-1.246 1.675h-.856l1.703-2.175-1.687-2.188h.926l1.23 1.648 1.235-1.648h.859l-1.715 2.148 1.715 2.215Zm-36.894 10h-.96l-1.813-2h-.398v2h-.735v-4.363h.734v1.883c.243 0 .438-.043.586-.129.149-.089.275-.229.38-.422.036-.07.071-.144.105-.223l.105-.23c.136-.294.305-.514.508-.66.203-.146.495-.219.875-.219h.336v.633h-.324c-.206 0-.367.044-.485.133-.114.086-.218.238-.312.457a1.85 1.85 0 0 1-.332.551c-.115.119-.237.21-.367.273l2.097 2.316Zm4.317 0h-.735v-3.746h-1.629a217.739 217.739 0 0 1-.046 1.168 9.37 9.37 0 0 1-.09 1.043 3.167 3.167 0 0 1-.164.645 1.581 1.581 0 0 1-.211.394 2.05 2.05 0 0 1-.246.27.907.907 0 0 1-.297.176 1.017 1.017 0 0 1-.352.058c-.044 0-.11-.001-.195-.004l-.164-.004v-.64h.039c.02 0 .05.001.09.004.039.002.071.004.097.004a.72.72 0 0 0 .192-.028.362.362 0 0 0 .172-.101c.133-.131.24-.351.32-.661.08-.309.134-.757.16-1.343.01-.214.02-.466.027-.758.011-.294.02-.574.028-.84h3.004v4.363Zm5.125 0h-.727v-3.277l-2.285 3.277h-.664v-4.363h.727v3.231l2.261-3.231h.688v4.363Zm5.101-2.105H67.27c0 .268.04.502.122.703a1.314 1.314 0 0 0 .812.77c.188.062.393.093.617.093.297 0 .595-.058.895-.175.302-.12.517-.237.644-.352h.04v.801c-.248.104-.5.191-.758.261a3.046 3.046 0 0 1-.813.106c-.724 0-1.289-.195-1.695-.586-.406-.393-.61-.951-.61-1.672 0-.713.194-1.28.582-1.699.391-.419.904-.629 1.54-.629.588 0 1.041.172 1.359.516.32.343.48.832.48 1.464v.399Zm-.715-.563c-.002-.385-.1-.683-.292-.894-.19-.211-.48-.317-.872-.317-.393 0-.707.116-.941.348-.232.232-.363.52-.395.863h2.5Zm5.481 2.668h-.734v-1.964h-2.184v1.964h-.734v-4.363h.734v1.766h2.184v-1.766h.734v4.363Zm4.656-3.718H78.33v3.718h-.734v-3.718h-1.578v-.645h3.89v.645Zm4.48 1.539c0 .711-.182 1.272-.546 1.683-.365.412-.853.617-1.465.617-.617 0-1.108-.205-1.473-.617-.362-.411-.543-.972-.543-1.683 0-.711.181-1.272.543-1.684.365-.414.856-.621 1.473-.621.612 0 1.1.207 1.465.621.364.412.547.973.547 1.684Zm-.757 0c0-.565-.11-.985-.332-1.258-.222-.276-.529-.414-.922-.414-.398 0-.708.138-.93.414-.218.273-.328.693-.328 1.258 0 .547.11.962.332 1.246.221.281.53.422.926.422.39 0 .697-.14.918-.418.224-.282.336-.698.336-1.25Zm5.5.859a1.2 1.2 0 0 1-.129.563c-.083.164-.2.3-.348.41a1.658 1.658 0 0 1-.547.265 2.945 2.945 0 0 1-.773.082h-1.805v-4.363h1.688c.325 0 .57.012.734.035.167.021.323.069.469.145a.836.836 0 0 1 .36.336c.077.138.117.3.117.488a.892.892 0 0 1-.184.562c-.123.159-.28.283-.473.372v.039c.258.062.47.183.637.363.17.177.254.411.254.703Zm-.988-1.926a.52.52 0 0 0-.063-.254.4.4 0 0 0-.183-.175.888.888 0 0 0-.372-.09 8.789 8.789 0 0 0-.504-.012h-.765v1.195h.918c.193 0 .334-.006.426-.019a.784.784 0 0 0 .28-.11.502.502 0 0 0 .204-.218.765.765 0 0 0 .059-.317Zm.23 1.93a.747.747 0 0 0-.07-.348c-.047-.091-.15-.174-.309-.25a.883.883 0 0 0-.32-.082 5.82 5.82 0 0 0-.477-.015h-.941v1.425h.695c.292 0 .516-.009.672-.027.159-.021.296-.064.41-.129a.66.66 0 0 0 .254-.238.633.633 0 0 0 .086-.336Z" fill="#fff"/><defs><linearGradient id="b" x1="66.844" y1="62.783" x2="65.792" y2="14.783" gradientUnits="userSpaceOnUse"><stop stop-color="#5773ED"/><stop offset="1" stop-color="#489CFE"/></linearGradient><clipPath id="a"><path fill="#fff" transform="translate(45.923 14.783)" d="M0 0h48v48H0z"/></clipPath></defs></svg>