<svg width="136" height="137" fill="none" xmlns="http://www.w3.org/2000/svg"><rect y=".866" width="135.217" height="135.217" rx="64" fill="#2D50EA"/><path d="M41.016 89.866h-1.01v-5.129h-3.003v5.13h-1.01v-6h5.023v6Zm6.654 0h-1.004v-.639c-.09.061-.211.147-.365.258a2.893 2.893 0 0 1-1.02.462 3.049 3.049 0 0 1-.769.086 1.92 1.92 0 0 1-1.375-.537c-.376-.358-.564-.815-.564-1.37 0-.455.097-.822.29-1.1.197-.284.477-.506.838-.667.365-.161.804-.27 1.316-.328.512-.057 1.062-.1 1.649-.128v-.156c0-.23-.041-.42-.123-.57a.862.862 0 0 0-.344-.354 1.431 1.431 0 0 0-.516-.166c-.2-.03-.41-.043-.628-.043-.265 0-.56.035-.886.107a6.66 6.66 0 0 0-1.01.3h-.054v-1.025a9.85 9.85 0 0 1 .854-.177c.372-.065.74-.097 1.101-.097.423 0 .79.036 1.101.107.315.068.587.187.816.355.226.165.398.378.516.639s.177.585.177.972v4.071Zm-1.004-1.477v-1.67c-.308.018-.671.045-1.09.08a5.62 5.62 0 0 0-.989.156c-.29.083-.524.212-.703.387-.18.172-.269.41-.269.714 0 .344.104.604.312.78.207.171.524.257.95.257.355 0 .679-.068.973-.204.293-.14.565-.306.816-.5Zm8.229-1.595c0 .487-.07.933-.21 1.338-.14.4-.337.74-.59 1.02a2.446 2.446 0 0 1-1.853.832c-.312 0-.595-.033-.85-.102a3.52 3.52 0 0 1-.768-.316v2.513h-1.01v-8.212h1.01v.628c.27-.225.57-.413.903-.564a2.551 2.551 0 0 1 1.074-.23c.723 0 1.286.273 1.687.821.404.544.607 1.302.607 2.272Zm-1.043.027c0-.723-.123-1.264-.37-1.622-.247-.358-.627-.537-1.139-.537-.29 0-.582.063-.875.188-.294.125-.575.29-.844.494v3.4c.287.129.532.216.736.263.208.047.443.07.704.07.562 0 1-.19 1.316-.57.315-.379.472-.941.472-1.686Zm7.026-2.068h-2.17v5.113h-1.01v-5.113h-2.17v-.886h5.35v.886Zm6.07 5.113h-1.01v-2.701h-3.003v2.701h-1.01v-6h1.01v2.429h3.002v-2.428h1.01v6Zm7.014-2.895h-4.42c0 .37.055.691.166.967.111.272.263.496.457.672.186.171.406.3.66.386.258.086.54.13.849.13.408 0 .818-.081 1.23-.243.415-.164.71-.325.886-.483h.054v1.101c-.34.143-.688.263-1.042.36a4.231 4.231 0 0 1-1.117.145c-.996 0-1.773-.269-2.332-.806-.558-.54-.837-1.307-.837-2.298 0-.981.266-1.76.8-2.337.537-.576 1.242-.865 2.116-.865.81 0 1.432.237 1.87.71.44.472.66 1.143.66 2.014v.547Zm-.983-.773c-.004-.53-.138-.94-.403-1.23-.261-.29-.66-.435-1.198-.435-.54 0-.972.16-1.294.478-.319.319-.5.714-.543 1.187h3.438Zm7.793.596c0 .487-.07.933-.209 1.338-.14.4-.337.74-.59 1.02a2.447 2.447 0 0 1-1.853.832c-.312 0-.595-.033-.85-.102a3.522 3.522 0 0 1-.768-.316v2.513h-1.01v-8.212h1.01v.628c.269-.225.57-.413.903-.564a2.551 2.551 0 0 1 1.074-.23c.723 0 1.285.273 1.686.821.405.544.607 1.302.607 2.272Zm-1.041.027c0-.723-.124-1.264-.371-1.622-.247-.358-.627-.537-1.139-.537-.29 0-.582.063-.875.188-.294.125-.575.29-.844.494v3.4c.287.129.532.216.736.263.208.047.442.07.704.07.562 0 1-.19 1.316-.57.315-.379.473-.941.473-1.686Zm7.105 2.67a5.766 5.766 0 0 1-1.063.397 3.538 3.538 0 0 1-.88.113c-.438 0-.839-.063-1.204-.188a2.506 2.506 0 0 1-.94-.58 2.647 2.647 0 0 1-.612-.978c-.144-.394-.215-.854-.215-1.38 0-.956.265-1.719.795-2.288.53-.573 1.255-.86 2.175-.86.347 0 .688.049 1.02.145.337.097.645.215.924.355v1.122h-.059a3.882 3.882 0 0 0-.988-.564 2.65 2.65 0 0 0-.94-.182c-.598 0-1.062.2-1.391.601-.326.401-.489.958-.489 1.67 0 .713.163 1.267.489 1.66.326.394.79.591 1.391.591.211 0 .42-.027.629-.08.21-.054.402-.124.574-.21.136-.068.276-.148.42-.241.146-.097.248-.169.305-.215h.06v1.111Zm6.8.375h-1.321l-2.492-2.75h-.548v2.75h-1.01v-6h1.01v2.59c.333 0 .601-.06.806-.178.204-.121.377-.315.52-.58.05-.096.099-.198.146-.306l.145-.317c.186-.404.419-.707.698-.907.28-.2.68-.301 1.203-.301h.462v.87h-.446c-.283 0-.505.06-.666.183-.157.118-.3.327-.43.628-.143.337-.295.59-.456.757a1.75 1.75 0 0 1-.505.376l2.884 3.185Zm6.15 0h-.999V85.36l-3.142 4.506h-.913v-6h.999v4.443l3.11-4.442h.945v6Zm7.187 0H105.7l-1.703-2.304-1.713 2.304h-1.177l2.342-2.991-2.32-3.008h1.273l1.692 2.266 1.697-2.266h1.182l-2.358 2.954 2.358 3.045Zm-65.957 13h-1.01v-5.129h-3.003v5.129h-1.01v-6h5.023v6Zm7.272-3.072c0 .487-.07.933-.21 1.338-.139.401-.336.741-.59 1.02a2.452 2.452 0 0 1-1.853.833c-.312 0-.595-.034-.849-.102a3.537 3.537 0 0 1-.768-.317v2.513h-1.01v-8.212h1.01v.628a3.87 3.87 0 0 1 .902-.564 2.552 2.552 0 0 1 1.075-.23c.723 0 1.285.273 1.686.821.405.544.607 1.302.607 2.272Zm-1.042.027c0-.723-.123-1.264-.37-1.622-.248-.358-.627-.537-1.14-.537-.29 0-.581.063-.875.188-.293.125-.574.29-.843.494v3.4c.286.129.532.217.736.263a3.2 3.2 0 0 0 .704.07c.562 0 1-.19 1.315-.569.316-.38.473-.942.473-1.687Zm7.73.048c0 .978-.252 1.75-.753 2.315-.501.566-1.172.849-2.014.849-.849 0-1.524-.283-2.025-.849-.498-.565-.746-1.337-.746-2.315 0-.977.248-1.749.746-2.315.501-.569 1.176-.854 2.025-.854.841 0 1.513.285 2.014.854.501.566.752 1.338.752 2.315Zm-1.043 0c0-.777-.152-1.353-.456-1.73-.305-.379-.727-.569-1.268-.569-.548 0-.974.19-1.278.57-.301.376-.451.952-.451 1.73 0 .751.152 1.322.456 1.713.304.386.729.58 1.273.58.537 0 .958-.192 1.262-.575.308-.387.462-.96.462-1.719Zm6.746-2.116h-3.126v5.113h-1.01v-6h4.136v.887Zm6.333 2.041c0 .487-.07.933-.21 1.338-.14.401-.336.741-.59 1.02a2.451 2.451 0 0 1-1.853.833c-.312 0-.595-.034-.85-.102a3.536 3.536 0 0 1-.767-.317v2.513h-1.01v-8.212h1.01v.628c.268-.225.569-.413.902-.564a2.552 2.552 0 0 1 1.074-.23c.724 0 1.286.273 1.687.821.404.544.607 1.302.607 2.272Zm-1.042.027c0-.723-.124-1.264-.37-1.622-.248-.358-.627-.537-1.14-.537-.29 0-.581.063-.875.188-.294.125-.575.29-.843.494v3.4c.286.129.531.217.736.263.207.047.442.07.703.07.562 0 1.001-.19 1.316-.569.315-.38.473-.942.473-1.687Zm7.278 3.045h-1.005v-.639c-.09.061-.211.147-.365.258a2.93 2.93 0 0 1-1.02.462 3.06 3.06 0 0 1-.769.086c-.54 0-.999-.179-1.375-.537-.376-.358-.564-.815-.564-1.37 0-.455.097-.822.29-1.101.197-.283.477-.505.838-.666.366-.161.804-.27 1.316-.328.512-.057 1.062-.1 1.65-.128v-.156c0-.23-.042-.42-.124-.57a.861.861 0 0 0-.344-.354 1.432 1.432 0 0 0-.516-.166c-.2-.03-.41-.043-.628-.043-.265 0-.56.035-.886.107a6.667 6.667 0 0 0-1.01.3h-.054v-1.025c.197-.054.482-.113.854-.177.373-.065.74-.097 1.101-.097.423 0 .79.036 1.101.107.315.068.588.187.817.355.225.165.397.378.515.639.119.261.178.585.178.972v4.071Zm-1.005-1.477v-1.67c-.308.018-.671.045-1.09.08a5.62 5.62 0 0 0-.988.156c-.29.083-.525.212-.704.387-.18.172-.269.41-.269.714 0 .344.104.604.312.779.208.172.524.258.95.258.355 0 .68-.068.973-.204.293-.14.566-.306.816-.5Zm8.62 1.477h-.998v-4.737l-1.493 3.083h-.752l-1.483-3.083v4.737h-.945v-6h1.22l1.632 3.358 1.579-3.357h1.24v5.999Zm7.66 0h-1v-4.737l-1.492 3.083h-.752l-1.483-3.083v4.737h-.945v-6h1.22l1.632 3.358 1.58-3.357h1.24v5.999ZM49.227 72.866h-13.59v-3.554h4.293v-10.76h-4.293V55.23c.656 0 1.285-.037 1.886-.11.602-.082 1.103-.218 1.504-.41.474-.228.83-.524 1.067-.889.237-.364.373-.82.41-1.367h4.525v16.858h4.198v3.554Zm21.232-5.687c0 1.805-.77 3.281-2.31 4.43-1.532 1.148-3.637 1.722-6.317 1.722-1.504 0-2.794-.155-3.87-.465-1.075-.31-1.963-.738-2.665-1.285-.693-.538-1.208-1.166-1.545-1.886a5.537 5.537 0 0 1-.492-2.325c0-1.02.296-1.923.888-2.707.602-.793 1.636-1.485 3.104-2.078v-.082c-1.185-.547-2.055-1.235-2.611-2.064-.556-.83-.834-1.791-.834-2.885 0-1.613.747-2.935 2.242-3.965 1.495-1.03 3.44-1.545 5.838-1.545 2.515 0 4.484.47 5.906 1.408 1.431.93 2.146 2.174 2.146 3.733 0 .966-.3 1.827-.902 2.584-.602.756-1.522 1.399-2.762 1.928v.081c1.422.538 2.475 1.263 3.159 2.174.683.912 1.025 1.987 1.025 3.227Zm-5.647-9.406c0-.693-.268-1.245-.806-1.655-.529-.41-1.235-.615-2.12-.615-.327 0-.665.041-1.011.123-.337.082-.647.2-.93.356-.264.155-.483.36-.656.615-.173.246-.26.529-.26.847 0 .538.15.958.451 1.258.31.301.812.602 1.504.903.256.11.602.246 1.04.41.446.155.984.332 1.613.533.419-.492.72-.934.902-1.326.182-.392.273-.875.273-1.45Zm.424 9.638c0-.656-.164-1.153-.492-1.49-.328-.337-1.002-.725-2.023-1.162-.301-.137-.739-.305-1.313-.506a78.13 78.13 0 0 1-1.449-.52 6.11 6.11 0 0 0-1.066 1.3 3.158 3.158 0 0 0-.465 1.695c0 .948.337 1.704 1.012 2.27.683.555 1.572.833 2.666.833.291 0 .633-.04 1.025-.123a3.18 3.18 0 0 0 1.012-.41c.328-.21.592-.456.793-.738.2-.283.3-.666.3-1.149Z" fill="#fff"/><g opacity=".2" clip-path="url(#a)" fill="#fff"><path d="M102.298 52.551c-2.325-3.318-6.054-5.284-10.024-5.284-3.97 0-7.7 1.966-10.025 5.284a.774.774 0 0 0-.058.08c-3.105 4.44-3.105 10.431 0 14.87a.796.796 0 0 0 .06.08c2.328 3.322 6.062 5.288 10.036 5.284 3.975-.005 7.705-1.978 10.027-5.305a.79.79 0 0 0 .091-.125c3.059-4.438 3.04-10.391-.047-14.808a1.044 1.044 0 0 0-.06-.076Zm-.871 13.516a19.757 19.757 0 0 0-2.793-.684c.354-1.48.555-2.993.6-4.516h3.86a11.341 11.341 0 0 1-1.667 5.2Zm-19.974-5.2h3.86a22.19 22.19 0 0 0 .593 4.512c-.945.16-1.879.389-2.793.684a11.343 11.343 0 0 1-1.66-5.196Zm1.667-6.8c.914.296 1.847.524 2.792.684a22.189 22.189 0 0 0-.599 4.516h-3.86c.126-1.85.699-3.637 1.667-5.2Zm9.929 1.187a39.007 39.007 0 0 0 4.034-.27c.35 1.4.552 2.837.6 4.283H93.05v-4.013Zm0-1.6v-4.653c1.436.446 2.707 2.097 3.556 4.427-1.12.126-2.315.203-3.556.226Zm-1.551-4.653v4.653a38.236 38.236 0 0 1-3.556-.226c.85-2.33 2.12-3.98 3.556-4.427Zm0 6.253v4.013h-4.635a20.49 20.49 0 0 1 .598-4.284c1.34.16 2.688.25 4.037.271Zm-4.635 5.613h4.635v4.012c-1.349.021-2.695.112-4.034.272a20.485 20.485 0 0 1-.6-4.284Zm4.635 5.613v4.653c-1.436-.446-2.707-2.098-3.556-4.427a38.236 38.236 0 0 1 3.556-.227Zm1.551 4.653V66.48c1.241.023 2.436.1 3.556.226-.85 2.33-2.12 3.98-3.556 4.427Zm0-6.254v-4.012h4.634a20.497 20.497 0 0 1-.598 4.284c-1.34-.16-2.687-.251-4.036-.272Zm6.184-5.612a22.19 22.19 0 0 0-.593-4.513c.946-.16 1.879-.388 2.793-.684a11.35 11.35 0 0 1 1.661 5.197h-3.86Zm1.208-6.56c-.74.209-1.491.374-2.25.497a12.614 12.614 0 0 0-1.771-3.486 10.929 10.929 0 0 1 4.021 2.99ZM88.128 49.72a12.614 12.614 0 0 0-1.772 3.486 20.208 20.208 0 0 1-2.25-.496 10.929 10.929 0 0 1 4.022-2.99Zm-4.022 17.708a20.21 20.21 0 0 1 2.25-.497 12.613 12.613 0 0 0 1.771 3.486 10.93 10.93 0 0 1-4.021-2.99Zm12.313 2.99a12.613 12.613 0 0 0 1.772-3.487c.758.122 1.509.288 2.249.497a10.927 10.927 0 0 1-4.021 2.988v.001Z"/><path d="M102.221 46.227a45.88 45.88 0 0 1-4.888-6.542 40.613 40.613 0 0 1-3.94-9.937 1.187 1.187 0 0 0-1.138-.882c-.528.001-.99.363-1.134.887a40.61 40.61 0 0 1-3.938 9.93 45.911 45.911 0 0 1-4.887 6.543c-.376.445-.75.89-1.123 1.337-1.947 2.348-3.917 4.938-4.742 8.486-1.545 6.83 1.138 13.938 6.755 17.893a15.873 15.873 0 0 0 9.055 2.924h.032a15.874 15.874 0 0 0 9.055-2.922c5.618-3.955 8.303-11.064 6.757-17.895-.824-3.548-2.792-6.138-4.743-8.486-.37-.447-.746-.892-1.121-1.336Zm-1.767 26.4a14.344 14.344 0 0 1-8.18 2.64h-.017a14.361 14.361 0 0 1-8.198-2.646c-5.087-3.58-7.518-10.015-6.12-16.2.744-3.2 2.587-5.618 4.411-7.818.369-.443.742-.885 1.115-1.326a47.206 47.206 0 0 0 5.054-6.778 40.872 40.872 0 0 0 3.738-9.026 40.896 40.896 0 0 0 3.74 9.026 47.074 47.074 0 0 0 5.053 6.778c.373.441.744.884 1.114 1.326 1.825 2.2 3.668 4.615 4.412 7.818 1.4 6.188-1.033 12.626-6.122 16.205Z"/></g><defs><clipPath id="a"><path fill="#fff" transform="translate(68 28.866)" d="M0 0h48v48H0z"/></clipPath></defs></svg>