<svg width="136" height="137" fill="none" xmlns="http://www.w3.org/2000/svg"><rect y=".866" width="135.217" height="135.217" rx="64" fill="#2D50EA"/><path d="M37.035 84.487c.47 0 .942.004 1.419.011.484.008.946.033 1.386.077l-.033.66H37.42c-.433 0-.649.22-.649.66v3.971h-.924v-4.213c0-.777.396-1.166 1.188-1.166Zm6.095-.11c.616 0 1.108.092 1.474.275.367.184.631.484.792.902.169.411.253.957.253 1.64 0 .681-.084 1.231-.253 1.65-.161.41-.425.707-.792.89-.366.184-.858.275-1.474.275s-1.11-.091-1.485-.275c-.366-.183-.634-.48-.803-.89-.161-.419-.242-.969-.242-1.65 0-.683.081-1.229.242-1.64.169-.418.437-.718.803-.902.374-.183.87-.275 1.485-.275Zm0 .792c-.388 0-.696.063-.924.187-.227.118-.388.323-.484.616-.095.294-.143.7-.143 1.221 0 .521.048.928.143 1.221.096.294.257.503.484.627.228.118.536.176.924.176.389 0 .693-.058.913-.176.228-.124.389-.333.484-.627.096-.293.143-.7.143-1.22 0-.521-.047-.928-.143-1.222-.095-.293-.256-.498-.484-.616-.22-.124-.524-.187-.913-.187Zm6.296-.792c.242 0 .524.019.847.055.322.03.616.096.88.198l-.121.605a12.197 12.197 0 0 0-.77-.044 12.613 12.613 0 0 0-.682-.022c-.418 0-.756.06-1.012.176-.25.118-.43.323-.54.616-.11.294-.164.7-.164 1.221 0 .521.055.932.165 1.232.11.294.29.5.539.616.256.118.594.176 1.012.176.168 0 .407-.007.715-.022a7.72 7.72 0 0 0 .869-.088l.088.627a4.297 4.297 0 0 1-.88.21c-.316.043-.631.065-.946.065-.616 0-1.111-.091-1.485-.275a1.648 1.648 0 0 1-.814-.89c-.162-.411-.242-.961-.242-1.65 0-.69.08-1.24.242-1.65.168-.411.44-.705.814-.88.374-.184.869-.276 1.485-.276Zm4.06.132v1.595c0 .213-.018.418-.054.616h.748c.352 0 .634-.088.847-.264.212-.176.396-.429.55-.759.161-.33.33-.726.506-1.188h.968a20.43 20.43 0 0 1-.55 1.342c-.169.367-.367.65-.594.847-.22.198-.521.32-.902.363v.033c.403.037.722.158.957.363.234.198.443.495.627.891.183.39.388.895.616 1.518h-.98c-.22-.579-.414-1.045-.582-1.397-.169-.359-.363-.62-.583-.78-.213-.17-.506-.25-.88-.243h-.737c.029.184.044.356.044.517v1.903h-.935V84.51h.935Zm7.197-.132c.616 0 1.107.092 1.474.275.367.184.63.484.792.902.169.411.253.957.253 1.64 0 .681-.084 1.231-.253 1.65-.161.41-.425.707-.792.89-.367.184-.858.275-1.474.275s-1.11-.091-1.485-.275c-.367-.183-.634-.48-.803-.89-.161-.419-.242-.969-.242-1.65 0-.683.08-1.229.242-1.64.169-.418.436-.718.803-.902.374-.183.87-.275 1.485-.275Zm0 .792c-.389 0-.697.063-.924.187-.227.118-.389.323-.484.616-.095.294-.143.7-.143 1.221 0 .521.048.928.143 1.221.095.294.257.503.484.627.227.118.535.176.924.176s.693-.058.913-.176c.227-.124.389-.333.484-.627.095-.293.143-.7.143-1.22 0-.521-.048-.928-.143-1.222-.095-.293-.257-.498-.484-.616-.22-.124-.524-.187-.913-.187Zm4.931-.66v2.156h2.816V84.51h.924v5.357h-.924V87.38h-2.816v2.486h-.924V84.51h.924Zm9.714 0v.77h-1.936v4.587h-.935V85.28H70.51v-.77h4.818Zm1.927 0 .088.847c.293-.3.638-.539 1.034-.715a2.933 2.933 0 0 1 1.177-.264c.66 0 1.133.242 1.42.726.285.477.428 1.181.428 2.112 0 .69-.073 1.24-.22 1.65-.147.404-.37.693-.67.87-.302.175-.68.263-1.134.263-.352 0-.7-.044-1.045-.132a3.643 3.643 0 0 1-.946-.418c.015.184.026.36.033.528.007.176.007.36 0 .55v1.551h-.924V84.51h.76Zm2.002.682c-.293 0-.583.07-.869.21a5.698 5.698 0 0 0-.968.615v2.85l.891.23c.264.06.54.088.825.088.316 0 .565-.055.748-.165.19-.11.33-.308.418-.594.088-.286.132-.689.132-1.21 0-.762-.091-1.29-.275-1.584-.176-.293-.477-.44-.902-.44Zm6.182-.814c.594 0 1.045.125 1.353.374.316.242.473.69.473 1.342v3.773h-.737l-.11-.88c-.139.14-.319.286-.539.44-.22.147-.473.275-.759.385a2.621 2.621 0 0 1-.913.154c-.476 0-.861-.128-1.155-.385-.293-.256-.44-.627-.44-1.11v-.584c0-.418.129-.74.385-.968.264-.234.631-.352 1.1-.352h2.233v-.473c-.007-.33-.084-.564-.23-.704-.147-.146-.433-.22-.859-.22a16 16 0 0 0-1.067.044c-.418.03-.832.063-1.243.1l-.088-.694c.374-.058.8-.113 1.276-.165.477-.05.917-.077 1.32-.077Zm-1.045 4.785c.264.008.572-.055.924-.187a3.36 3.36 0 0 0 1.012-.627V87.27l-2.068.011c-.256.008-.44.077-.55.21-.102.124-.154.3-.154.527v.341c0 .28.066.484.198.616.14.125.352.187.638.187Zm5.509-4.653v1.595c0 .213-.019.418-.055.616h.748c.352 0 .634-.088.847-.264.212-.176.396-.429.55-.759.161-.33.33-.726.506-1.188h.968a20.43 20.43 0 0 1-.55 1.342c-.169.367-.367.65-.594.847-.22.198-.521.32-.902.363v.033c.403.037.722.158.957.363.234.198.443.495.627.891.183.39.388.895.616 1.518h-.98c-.22-.579-.414-1.045-.582-1.397-.169-.359-.363-.62-.583-.78-.213-.17-.506-.25-.88-.243h-.737c.029.184.044.356.044.517v1.903h-.935V84.51h.935Zm9.197 0v.77h-1.936v4.587h-.935V85.28h-1.947v-.77H99.1Zm3.349-.132c.616 0 1.107.092 1.474.275.366.184.63.484.792.902.168.411.253.957.253 1.64 0 .681-.085 1.231-.253 1.65-.162.41-.426.707-.792.89-.367.184-.858.275-1.474.275s-1.111-.091-1.485-.275c-.367-.183-.635-.48-.803-.89-.162-.419-.242-.969-.242-1.65 0-.683.08-1.229.242-1.64.168-.418.436-.718.803-.902.374-.183.869-.275 1.485-.275Zm0 .792c-.389 0-.697.063-.924.187-.228.118-.389.323-.484.616-.096.294-.143.7-.143 1.221 0 .521.047.928.143 1.221.095.294.256.503.484.627.227.118.535.176.924.176.388 0 .693-.058.913-.176.227-.124.388-.333.484-.627.095-.293.143-.7.143-1.22 0-.521-.048-.928-.143-1.222-.096-.293-.257-.498-.484-.616-.22-.124-.525-.187-.913-.187Zm6.185-.715c.557 0 .997.04 1.32.121.33.081.568.224.715.43.147.205.22.498.22.88 0 .38-.092.67-.275.868-.176.191-.469.305-.88.341v.033c.499.037.847.176 1.045.418.198.235.297.569.297 1.001 0 .367-.073.653-.22.858-.139.198-.367.338-.682.418-.308.081-.722.121-1.243.121-.374 0-.7-.003-.979-.01-.279 0-.535-.008-.77-.023a29.168 29.168 0 0 1-.726-.033V84.52c.227-.022.444-.036.649-.044.205-.007.429-.01.671-.01.242-.008.528-.012.858-.012Zm-.033.737h-.693a7.448 7.448 0 0 0-.572 0v1.584h1.408c.462 0 .785-.055.968-.165.191-.11.286-.326.286-.649 0-.308-.103-.513-.308-.616-.205-.102-.568-.154-1.089-.154Zm.143 2.255h-1.408v1.75c.198.007.418.01.66.01h.803c.499 0 .847-.055 1.045-.165.198-.117.297-.348.297-.693 0-.344-.103-.579-.308-.704-.205-.132-.568-.198-1.089-.198ZM38.047 97.454c.557 0 .997.04 1.32.121.33.081.568.224.715.43.147.205.22.498.22.88 0 .38-.092.67-.275.868-.176.191-.47.305-.88.341v.033c.499.037.847.176 1.045.418.198.235.297.569.297 1.001 0 .367-.073.653-.22.858-.14.198-.367.338-.682.418-.308.081-.722.121-1.243.121-.374 0-.7-.003-.979-.011-.279 0-.535-.007-.77-.022-.227-.007-.47-.018-.726-.033V97.52c.227-.022.444-.036.649-.044.205-.007.429-.01.671-.01.242-.008.528-.012.858-.012Zm-.033.737h-.693a7.448 7.448 0 0 0-.572 0v1.584h1.408c.462 0 .785-.055.968-.165.19-.11.286-.326.286-.649 0-.308-.103-.513-.308-.616-.205-.102-.568-.154-1.089-.154Zm.143 2.255h-1.408v1.749c.198.008.418.011.66.011h.803c.499 0 .847-.055 1.045-.165.198-.117.297-.348.297-.693 0-.344-.103-.579-.308-.704-.205-.132-.568-.198-1.089-.198Zm5.98-.858c.536 0 .954.052 1.255.154.3.103.513.279.638.528.132.242.198.572.198.99 0 .433-.066.774-.198 1.023a1.064 1.064 0 0 1-.627.506c-.286.096-.66.143-1.122.143-.352 0-.657-.003-.913-.011-.257 0-.492-.007-.704-.022a21.776 21.776 0 0 1-.671-.033h-.033v-5.357h.913v2.08h1.265Zm4.016-2.079v5.357h-.946v-5.357h.946Zm-4.015 2.772h-1.265v1.903c.345.008.766.011 1.265.011.425 0 .722-.062.89-.187.17-.124.254-.385.254-.781 0-.352-.08-.597-.242-.737-.154-.139-.455-.209-.902-.209Zm10.337-2.772v5.357h-.924v-4.598H50.8v4.598h-.913v-5.357h4.587Zm4.017-.132c.616 0 1.107.092 1.474.275.366.184.63.484.792.902.168.411.253.957.253 1.639s-.085 1.232-.253 1.65c-.162.411-.426.708-.792.891-.367.184-.858.275-1.474.275s-1.111-.091-1.485-.275c-.367-.183-.635-.48-.803-.891-.162-.418-.242-.968-.242-1.65 0-.682.08-1.228.242-1.639.168-.418.436-.718.803-.902.374-.183.869-.275 1.485-.275Zm0 .792c-.389 0-.697.063-.924.187-.228.118-.389.323-.484.616-.096.294-.143.7-.143 1.221 0 .521.047.928.143 1.221.095.294.256.503.484.627.227.118.535.176.924.176.388 0 .693-.058.913-.176.227-.124.388-.333.484-.627.095-.293.143-.7.143-1.221 0-.52-.048-.927-.143-1.22-.096-.294-.257-.5-.484-.617-.22-.124-.525-.187-.913-.187Zm8.354-.66v5.357h-.935v-4.62h-1.166c-.227 0-.392.052-.495.154-.095.096-.161.268-.198.517-.059.484-.125.983-.198 1.496-.073.506-.18.946-.32 1.32-.27.785-.831 1.181-1.682 1.188l-.1-.715c.302-.073.514-.168.639-.286.132-.117.235-.271.308-.462a4.23 4.23 0 0 0 .23-.836c.06-.322.107-.649.144-.979.044-.337.077-.63.099-.88.051-.41.183-.722.396-.935.22-.212.554-.319 1-.319h2.278Zm2.668 0v2.156h2.816V97.51h.924v5.357h-.924v-2.486h-2.816v2.486h-.924v-5.357h.924Zm7.678-.132c.807 0 1.39.147 1.749.44.367.294.554.73.561 1.31 0 .476-.103.85-.308 1.121-.198.264-.52.396-.968.396h-2.497c.03.426.106.752.231.979.132.22.315.374.55.462.235.081.535.121.902.121.293 0 .609-.011.946-.033.345-.029.653-.062.924-.099l.088.627a3.06 3.06 0 0 1-.616.165c-.25.044-.506.077-.77.099a8.189 8.189 0 0 1-.693.033c-.609 0-1.104-.091-1.485-.275a1.694 1.694 0 0 1-.814-.902c-.169-.418-.253-.968-.253-1.65 0-.704.084-1.257.253-1.66.176-.411.444-.7.803-.87.36-.176.825-.264 1.397-.264Zm.044.792c-.374 0-.671.052-.891.154-.213.103-.37.283-.473.54-.095.249-.15.6-.165 1.055h2.277c.235 0 .389-.08.462-.242.08-.168.117-.352.11-.55 0-.344-.099-.59-.297-.737-.198-.146-.539-.22-1.023-.22Zm4.62-.66v2.156h2.817V97.51h.924v5.357h-.924v-2.486h-2.817v2.486h-.923v-5.357h.923Zm7.756-.132c.616 0 1.107.092 1.474.275.367.184.63.484.792.902.168.411.253.957.253 1.639s-.085 1.232-.253 1.65c-.162.411-.425.708-.792.891-.367.184-.858.275-1.474.275s-1.111-.091-1.485-.275c-.367-.183-.634-.48-.803-.891-.162-.418-.242-.968-.242-1.65 0-.682.08-1.228.242-1.639.169-.418.436-.718.803-.902.374-.183.869-.275 1.485-.275Zm0 .792c-.389 0-.697.063-.924.187-.228.118-.389.323-.484.616-.095.294-.143.7-.143 1.221 0 .521.047.928.143 1.221.095.294.257.503.484.627.227.118.535.176.924.176s.693-.058.913-.176c.227-.124.388-.333.484-.627.095-.293.143-.7.143-1.221 0-.52-.048-.927-.143-1.22-.096-.294-.257-.5-.484-.617-.22-.124-.525-.187-.913-.187ZM41.52 53.546v19.32h-4.256v-13.72c0-.336.01-.672.028-1.008.019-.354.075-.709.168-1.064l-4.592 1.176-.532-2.772 4.928-1.932h4.256Zm11.302-.336c1.848 0 3.257.187 4.228.56.99.355 1.661.915 2.016 1.68.355.747.532 1.718.532 2.912 0 1.12-.224 2.11-.672 2.968-.448.86-1.185 1.344-2.212 1.456v.112c.896.075 1.577.355 2.044.84.485.467.821 1.074 1.008 1.82.205.747.308 1.578.308 2.492 0 1.232-.205 2.231-.616 2.996-.392.747-1.11 1.298-2.156 1.652-1.045.336-2.539.504-4.48.504-1.923 0-3.407-.168-4.452-.504-1.045-.354-1.773-.905-2.184-1.652-.41-.765-.616-1.764-.616-2.996 0-.914.093-1.745.28-2.492.187-.746.523-1.353 1.008-1.82.504-.485 1.195-.765 2.072-.84v-.112c-1.027-.112-1.764-.597-2.212-1.456-.448-.858-.672-1.848-.672-2.968 0-1.194.177-2.165.532-2.912.373-.765 1.045-1.325 2.016-1.68.99-.373 2.399-.56 4.228-.56Zm.028 2.94c-.803 0-1.419.084-1.848.252-.43.15-.728.42-.896.812-.15.392-.224.943-.224 1.652 0 .71.084 1.251.252 1.624.168.355.467.598.896.728.43.131 1.055.196 1.876.196.803 0 1.41-.065 1.82-.196.41-.13.681-.382.812-.756.15-.373.224-.905.224-1.596 0-.709-.075-1.26-.224-1.652-.15-.392-.439-.662-.868-.812-.41-.168-1.017-.252-1.82-.252Zm.028 8.092c-.896.02-1.587.112-2.072.28-.467.15-.793.44-.98.868-.168.43-.252 1.046-.252 1.848 0 .728.084 1.298.252 1.708.187.392.513.672.98.84.485.15 1.167.224 2.044.224s1.54-.074 1.988-.224c.467-.168.784-.448.952-.84.168-.41.252-.98.252-1.708 0-.82-.084-1.446-.252-1.876-.168-.429-.485-.718-.952-.868-.448-.168-1.101-.252-1.96-.252Z" fill="#fff"/><g opacity=".2" clip-path="url(#a)" fill="#fff"><path d="M102.298 52.551c-2.325-3.318-6.054-5.284-10.024-5.284-3.97 0-7.7 1.966-10.025 5.284a.774.774 0 0 0-.058.08c-3.105 4.44-3.105 10.431 0 14.87a.796.796 0 0 0 .06.08c2.328 3.322 6.062 5.288 10.036 5.284 3.975-.005 7.705-1.978 10.027-5.305a.79.79 0 0 0 .091-.125c3.059-4.438 3.04-10.391-.047-14.808a1.044 1.044 0 0 0-.06-.076Zm-.871 13.516a19.757 19.757 0 0 0-2.793-.684c.354-1.48.555-2.993.6-4.516h3.86a11.341 11.341 0 0 1-1.667 5.2Zm-19.974-5.2h3.86a22.19 22.19 0 0 0 .593 4.512c-.945.16-1.879.389-2.793.684a11.343 11.343 0 0 1-1.66-5.196Zm1.667-6.8c.914.296 1.847.524 2.792.684a22.189 22.189 0 0 0-.599 4.516h-3.86c.126-1.85.699-3.637 1.667-5.2Zm9.929 1.187a39.007 39.007 0 0 0 4.034-.27c.35 1.4.552 2.837.6 4.283H93.05v-4.013Zm0-1.6v-4.653c1.436.446 2.707 2.097 3.556 4.427-1.12.126-2.315.203-3.556.226Zm-1.551-4.653v4.653a38.236 38.236 0 0 1-3.556-.226c.85-2.33 2.12-3.98 3.556-4.427Zm0 6.253v4.013h-4.635a20.49 20.49 0 0 1 .598-4.284c1.34.16 2.688.25 4.037.271Zm-4.635 5.613h4.635v4.012c-1.349.021-2.695.112-4.034.272a20.485 20.485 0 0 1-.6-4.284Zm4.635 5.613v4.653c-1.436-.446-2.707-2.098-3.556-4.427a38.236 38.236 0 0 1 3.556-.227Zm1.551 4.653V66.48c1.241.023 2.436.1 3.556.226-.85 2.33-2.12 3.98-3.556 4.427Zm0-6.254v-4.012h4.634a20.497 20.497 0 0 1-.598 4.284c-1.34-.16-2.687-.251-4.036-.272Zm6.184-5.612a22.19 22.19 0 0 0-.593-4.513c.946-.16 1.879-.388 2.793-.684a11.35 11.35 0 0 1 1.661 5.197h-3.86Zm1.208-6.56c-.74.209-1.491.374-2.25.497a12.614 12.614 0 0 0-1.771-3.486 10.929 10.929 0 0 1 4.021 2.99ZM88.128 49.72a12.614 12.614 0 0 0-1.772 3.486 20.208 20.208 0 0 1-2.25-.496 10.929 10.929 0 0 1 4.022-2.99Zm-4.022 17.708a20.21 20.21 0 0 1 2.25-.497 12.613 12.613 0 0 0 1.771 3.486 10.93 10.93 0 0 1-4.021-2.99Zm12.313 2.99a12.613 12.613 0 0 0 1.772-3.487c.758.122 1.509.288 2.249.497a10.927 10.927 0 0 1-4.021 2.988v.001Z"/><path d="M102.221 46.227a45.88 45.88 0 0 1-4.888-6.542 40.613 40.613 0 0 1-3.94-9.937 1.187 1.187 0 0 0-1.138-.882c-.528.001-.99.363-1.134.887a40.61 40.61 0 0 1-3.938 9.93 45.911 45.911 0 0 1-4.887 6.543c-.376.445-.75.89-1.123 1.337-1.947 2.348-3.917 4.938-4.742 8.486-1.545 6.83 1.138 13.938 6.755 17.893a15.873 15.873 0 0 0 9.055 2.924h.032a15.874 15.874 0 0 0 9.055-2.922c5.618-3.955 8.303-11.064 6.757-17.895-.824-3.548-2.792-6.138-4.743-8.486-.37-.447-.746-.892-1.121-1.336Zm-1.767 26.4a14.344 14.344 0 0 1-8.18 2.64h-.017a14.361 14.361 0 0 1-8.198-2.646c-5.087-3.58-7.518-10.015-6.12-16.2.744-3.2 2.587-5.618 4.411-7.818.369-.443.742-.885 1.115-1.326a47.206 47.206 0 0 0 5.054-6.778 40.872 40.872 0 0 0 3.738-9.026 40.896 40.896 0 0 0 3.74 9.026 47.074 47.074 0 0 0 5.053 6.778c.373.441.744.884 1.114 1.326 1.825 2.2 3.668 4.615 4.412 7.818 1.4 6.188-1.033 12.626-6.122 16.205Z"/></g><defs><clipPath id="a"><path fill="#fff" transform="translate(68 28.866)" d="M0 0h48v48H0z"/></clipPath></defs></svg>