<svg width="137" height="136" viewBox="0 0 137 136" fill="none" xmlns="http://www.w3.org/2000/svg">
<rect x="0.922852" y="0.783356" width="135.217" height="135.217" rx="64" fill="#2D50E9"/>
<g opacity="0.3" clip-path="url(#clip0_124:1704)">
<path d="M58.6148 55.0273C58.9467 55.5437 59.1231 56.1447 59.1228 56.7585V60.3833C59.1228 61.7088 60.1974 62.7833 61.5228 62.7833H68.7228C69.3152 62.7812 69.8855 62.5588 70.3228 62.1593C70.7602 62.5588 71.3305 62.7812 71.9228 62.7833H79.1228C80.4483 62.7833 81.5228 61.7088 81.5228 60.3833V56.7585C81.5228 56.1449 81.6991 55.5443 82.0308 55.0281L87.5796 46.3969C88.3267 45.2358 88.7236 43.884 88.7228 42.5033V29.1833C88.7228 27.416 87.2901 25.9833 85.5228 25.9833C83.7555 25.9833 82.3228 27.416 82.3228 29.1833V31.6425C79.162 23.2017 72.3292 16.1905 71.3444 15.2097C71.0706 14.934 70.6971 14.7803 70.3084 14.7833C69.9291 14.7846 69.5662 14.9382 69.3012 15.2097C67.7105 16.8311 66.2215 18.5493 64.8428 20.3545C64.176 18.8552 63.8612 17.2231 63.9228 15.5833C63.9228 15.1415 63.5647 14.7833 63.1228 14.7833C62.681 14.7833 62.3228 15.1415 62.3228 15.5833C62.3228 23.0233 57.722 23.1833 57.5172 23.1833H57.5084C57.0666 23.1858 56.7104 23.5459 56.7128 23.9877C56.7153 24.4296 57.0754 24.7858 57.5172 24.7833C58.7921 24.8891 59.961 25.5348 60.7292 26.5577C59.8023 28.1852 58.998 29.8795 58.3228 31.6265V29.1833C58.3228 27.416 56.8902 25.9833 55.1228 25.9833C53.3555 25.9833 51.9229 27.416 51.9229 29.1833V42.5033C51.9221 43.8844 52.3193 45.2365 53.0669 46.3977L58.6148 55.0273ZM83.9228 29.1833C83.9228 28.2997 84.6392 27.5833 85.5228 27.5833C86.4065 27.5833 87.1228 28.2997 87.1228 29.1833V42.5033C87.1231 43.5773 86.8146 44.6286 86.234 45.5321L80.6852 54.1625C80.1866 54.9364 79.9219 55.8378 79.9228 56.7585V60.3833C79.9228 60.8251 79.5647 61.1833 79.1228 61.1833H71.9228C71.481 61.1833 71.1228 60.8251 71.1228 60.3833V56.6641C71.1159 54.1164 72.1285 51.6719 73.9348 49.8753L74.1852 49.6249C74.7876 49.0261 75.1253 48.2111 75.1228 47.3617V40.9681C76.4407 41.255 77.8049 41.255 79.1228 40.9681V43.9833C79.1229 44.6629 79.5521 45.2683 80.1934 45.4931C80.8347 45.718 81.548 45.5132 81.9724 44.9825L83.5724 42.9825C83.7992 42.6989 83.9228 42.3465 83.9228 41.9833V29.1833ZM79.1228 39.2953C78.4785 39.5091 77.8013 39.6067 77.1228 39.5833C76.4444 39.6067 75.7672 39.5091 75.1228 39.2953V38.3833C75.1228 37.2788 76.0183 36.3833 77.1228 36.3833C78.2274 36.3833 79.1228 37.2788 79.1228 38.3833V39.2953ZM60.1444 23.9833C61.5226 23.1762 62.576 21.9135 63.1228 20.4129C63.3641 21.0304 63.6827 21.6148 64.0708 22.1521C64.0919 22.1865 64.1158 22.2191 64.142 22.2497C64.6695 22.9557 65.3363 23.5458 66.1012 23.9833C64.7225 24.7909 63.669 26.0545 63.1228 27.5561C62.9231 27.0518 62.6722 26.5693 62.374 26.1161C62.3463 26.0619 62.3122 26.0111 62.2724 25.9649C61.7219 25.1522 60.9943 24.4747 60.1444 23.9833ZM61.6492 28.1993C62.1307 29.5403 62.3591 30.959 62.3228 32.3833C62.3228 32.8252 62.681 33.1833 63.1228 33.1833C63.5647 33.1833 63.9228 32.8252 63.9228 32.3833C63.9228 24.9393 68.5324 24.7833 68.7228 24.7833C69.1647 24.7833 69.5228 24.4252 69.5228 23.9833C69.5228 23.5415 69.1647 23.1833 68.7228 23.1833C67.5941 23.1131 66.5381 22.6019 65.7828 21.7601C67.1819 19.896 68.6983 18.1228 70.3228 16.4513C71.982 18.1249 82.3228 28.9937 82.3228 39.6953C82.3228 39.8681 82.3148 40.0489 82.3076 40.2209C82.311 40.2526 82.3161 40.2841 82.3228 40.3153V41.9833L80.7228 43.9833V38.3833C80.7228 36.3951 79.1111 34.7833 77.1228 34.7833C75.1346 34.7833 73.5228 36.3951 73.5228 38.3833V47.3617C73.5239 47.7865 73.3551 48.1941 73.054 48.4937L72.8036 48.7441C71.7303 49.8161 70.8865 51.0954 70.3236 52.5041C69.7608 51.0954 68.917 49.8161 67.8436 48.7441L67.5932 48.4937C67.2916 48.1943 67.1222 47.7867 67.1228 47.3617V38.3833C67.1228 36.3951 65.5111 34.7833 63.5228 34.7833C61.5346 34.7833 59.9228 36.3951 59.9228 38.3833V43.9833L58.3228 41.9833V38.5041C58.7008 34.8753 59.8339 31.3657 61.6492 28.2009V28.1993ZM65.5228 39.2953C64.8785 39.5091 64.2013 39.6067 63.5228 39.5833C62.8444 39.6067 62.1672 39.5091 61.5228 39.2953V38.3833C61.5228 37.2788 62.4183 36.3833 63.5228 36.3833C64.6274 36.3833 65.5228 37.2788 65.5228 38.3833V39.2953ZM53.5229 29.1833C53.5229 28.2997 54.2392 27.5833 55.1228 27.5833C56.0065 27.5833 56.7228 28.2997 56.7228 29.1833V41.9833C56.7229 42.3465 56.8464 42.6989 57.0732 42.9825L58.6732 44.9825C59.0976 45.5132 59.811 45.718 60.4523 45.4931C61.0935 45.2683 61.5228 44.6629 61.5228 43.9833V40.9681C62.8407 41.255 64.2049 41.255 65.5228 40.9681V47.3617C65.5204 48.2111 65.8581 49.0261 66.4604 49.6249L66.7108 49.8753C68.5172 51.6719 69.5298 54.1164 69.5228 56.6641V60.3833C69.5228 60.8251 69.1647 61.1833 68.7228 61.1833H61.5228C61.081 61.1833 60.7228 60.8251 60.7228 60.3833V56.7585C60.7238 55.8378 60.4591 54.9364 59.9604 54.1625L54.4125 45.5321C53.8313 44.6288 53.5225 43.5774 53.5229 42.5033V29.1833Z" fill="url(#paint0_linear_124:1704)"/>
</g>
<path d="M48.4346 89.7834H32.4521V86.4201C33.6735 85.536 34.8949 84.5972 36.1162 83.6037C37.3467 82.6102 38.3311 81.7534 39.0693 81.0334C40.1722 79.9669 40.9561 79.0373 41.4209 78.2443C41.8857 77.4513 42.1182 76.6675 42.1182 75.8927C42.1182 74.963 41.8174 74.2475 41.2158 73.7462C40.6234 73.2358 39.7666 72.9806 38.6455 72.9806C37.807 72.9806 36.9229 73.1538 35.9932 73.5002C35.0726 73.8465 34.2158 74.2886 33.4229 74.8263H32.9854V70.3009C33.6325 70.0184 34.585 69.7358 35.8428 69.4533C37.1097 69.1707 38.3766 69.0294 39.6436 69.0294C42.1956 69.0294 44.1416 69.5672 45.4814 70.6427C46.8213 71.7091 47.4912 73.2222 47.4912 75.1818C47.4912 76.4669 47.1676 77.6883 46.5205 78.8459C45.8825 80.0034 44.9027 81.1974 43.5811 82.4279C42.7516 83.1935 41.9176 83.8999 41.0791 84.547C40.2406 85.185 39.6436 85.6317 39.2881 85.8869H48.4346V89.7834ZM68.6279 85.0939H65.8525V89.838H60.835V85.0939H50.9775V81.2384L60.5068 69.4259H65.8525V81.3752H68.6279V85.0939ZM60.835 81.3752V74.0197L54.915 81.3752H60.835ZM88.1104 79.5978C88.1104 81.3114 87.9554 82.8472 87.6455 84.2052C87.3356 85.5542 86.8525 86.6616 86.1963 87.5275C85.5218 88.4116 84.6559 89.0815 83.5986 89.5373C82.5413 89.9839 81.238 90.2072 79.6885 90.2072C78.1663 90.2072 76.8675 89.9793 75.792 89.5236C74.7165 89.0679 73.846 88.3934 73.1807 87.5002C72.5062 86.6069 72.0186 85.4995 71.7178 84.1779C71.417 82.8472 71.2666 81.325 71.2666 79.6115C71.2666 77.8433 71.4215 76.3074 71.7314 75.0041C72.0413 73.7007 72.5335 72.5978 73.208 71.6955C73.8825 70.8022 74.7575 70.1323 75.833 69.6857C76.9085 69.2391 78.1937 69.0158 79.6885 69.0158C81.2471 69.0158 82.555 69.2482 83.6123 69.713C84.6696 70.1688 85.5355 70.8524 86.21 71.7638C86.8753 72.6571 87.3584 73.7599 87.6592 75.0724C87.96 76.3758 88.1104 77.8843 88.1104 79.5978ZM82.8193 79.5978C82.8193 77.1369 82.5778 75.3869 82.0947 74.3478C81.6117 73.2996 80.8096 72.7755 79.6885 72.7755C78.5674 72.7755 77.7653 73.2996 77.2822 74.3478C76.7992 75.3869 76.5576 77.146 76.5576 79.6252C76.5576 82.0405 76.8037 83.7814 77.2959 84.8478C77.7881 85.9142 78.5856 86.4474 79.6885 86.4474C80.7913 86.4474 81.5889 85.9142 82.0811 84.8478C82.5732 83.7814 82.8193 82.0314 82.8193 79.5978ZM107.729 73.4728L98.5146 89.7834H92.6631L102.233 73.3224H91.7744V69.4259H107.729V73.4728Z" fill="white"/>
<path d="M48.9502 101.51C48.6507 101.651 48.3929 101.747 48.1768 101.799C47.9632 101.854 47.7497 101.881 47.5361 101.881C47.2184 101.881 46.9268 101.835 46.6611 101.744C46.3955 101.651 46.1676 101.51 45.9775 101.322C45.7874 101.135 45.639 100.898 45.5322 100.611C45.4281 100.325 45.376 99.9904 45.376 99.6076C45.376 98.9123 45.5687 98.3576 45.9541 97.9435C46.3395 97.5268 46.8669 97.3185 47.5361 97.3185C47.7887 97.3185 48.0361 97.3537 48.2783 97.424C48.5231 97.4943 48.7471 97.5802 48.9502 97.6818V98.4982H48.9072C48.665 98.3133 48.4255 98.1766 48.1885 98.088C47.9541 97.9995 47.7262 97.9552 47.5049 97.9552C47.07 97.9552 46.7327 98.1011 46.4932 98.3927C46.2562 98.6844 46.1377 99.0893 46.1377 99.6076C46.1377 100.126 46.2562 100.528 46.4932 100.815C46.7301 101.101 47.0674 101.244 47.5049 101.244C47.6585 101.244 47.8109 101.225 47.9619 101.186C48.1156 101.147 48.2549 101.096 48.3799 101.033C48.4788 100.984 48.5804 100.925 48.6846 100.858C48.7913 100.787 48.8656 100.735 48.9072 100.701H48.9502V101.51ZM53.3564 101.783H52.6221V100.108C52.3851 100.18 52.1585 100.239 51.9424 100.283C51.7262 100.328 51.4906 100.35 51.2354 100.35C50.7666 100.35 50.4085 100.235 50.1611 100.006C49.9137 99.7742 49.79 99.4409 49.79 99.006V97.4201H50.5244V98.631C50.5244 98.7977 50.5348 98.9474 50.5557 99.0802C50.5765 99.2104 50.6208 99.3237 50.6885 99.4201C50.7562 99.5138 50.8512 99.5854 50.9736 99.6349C51.096 99.6844 51.2666 99.7091 51.4854 99.7091C51.665 99.7091 51.8604 99.6922 52.0713 99.6584C52.2822 99.6219 52.4658 99.5802 52.6221 99.5334V97.4201H53.3564V101.783ZM58.1924 101.783H57.4619V101.319C57.3968 101.363 57.3083 101.425 57.1963 101.506C57.0869 101.584 56.9801 101.647 56.876 101.694C56.7536 101.753 56.613 101.803 56.4541 101.842C56.2952 101.884 56.109 101.904 55.8955 101.904C55.5023 101.904 55.1689 101.774 54.8955 101.514C54.6221 101.253 54.4854 100.921 54.4854 100.518C54.4854 100.187 54.5557 99.9201 54.6963 99.7169C54.8395 99.5112 55.0426 99.3498 55.3057 99.2326C55.5713 99.1154 55.8903 99.036 56.2627 98.9943C56.6351 98.9526 57.0348 98.9214 57.4619 98.9005V98.7873C57.4619 98.6206 57.432 98.4826 57.3721 98.3732C57.3148 98.2638 57.2314 98.1779 57.1221 98.1154C57.0179 98.0555 56.8929 98.0151 56.7471 97.9943C56.6012 97.9735 56.4489 97.963 56.29 97.963C56.0973 97.963 55.8825 97.9891 55.6455 98.0412C55.4085 98.0906 55.1637 98.1636 54.9111 98.2599H54.8721V97.5138C55.0153 97.4748 55.2223 97.4318 55.4932 97.3849C55.764 97.338 56.0309 97.3146 56.2939 97.3146C56.6012 97.3146 56.8682 97.3406 57.0947 97.3927C57.3239 97.4422 57.5218 97.5281 57.6885 97.6505C57.8525 97.7703 57.9775 97.9253 58.0635 98.1154C58.1494 98.3055 58.1924 98.5412 58.1924 98.8224V101.783ZM57.4619 100.709V99.4943C57.238 99.5073 56.9736 99.5268 56.6689 99.5529C56.3669 99.5789 56.1273 99.6167 55.9502 99.6662C55.7393 99.7261 55.5687 99.8198 55.4385 99.9474C55.3083 100.072 55.2432 100.246 55.2432 100.467C55.2432 100.717 55.3187 100.906 55.4697 101.033C55.6208 101.158 55.8512 101.221 56.1611 101.221C56.4189 101.221 56.6546 101.171 56.8682 101.072C57.0817 100.971 57.2796 100.85 57.4619 100.709ZM62.8721 101.51C62.5726 101.651 62.3148 101.747 62.0986 101.799C61.8851 101.854 61.6715 101.881 61.458 101.881C61.1403 101.881 60.8486 101.835 60.583 101.744C60.3174 101.651 60.0895 101.51 59.8994 101.322C59.7093 101.135 59.5609 100.898 59.4541 100.611C59.3499 100.325 59.2979 99.9904 59.2979 99.6076C59.2979 98.9123 59.4906 98.3576 59.876 97.9435C60.2614 97.5268 60.7887 97.3185 61.458 97.3185C61.7106 97.3185 61.958 97.3537 62.2002 97.424C62.445 97.4943 62.6689 97.5802 62.8721 97.6818V98.4982H62.8291C62.5869 98.3133 62.3473 98.1766 62.1104 98.088C61.876 97.9995 61.6481 97.9552 61.4268 97.9552C60.9919 97.9552 60.6546 98.1011 60.415 98.3927C60.1781 98.6844 60.0596 99.0893 60.0596 99.6076C60.0596 100.126 60.1781 100.528 60.415 100.815C60.652 101.101 60.9893 101.244 61.4268 101.244C61.5804 101.244 61.7327 101.225 61.8838 101.186C62.0374 101.147 62.1768 101.096 62.3018 101.033C62.4007 100.984 62.5023 100.925 62.6064 100.858C62.7132 100.787 62.7874 100.735 62.8291 100.701H62.8721V101.51ZM67.0869 98.0646H65.5088V101.783H64.7744V98.0646H63.1963V97.4201H67.0869V98.0646ZM71.3682 101.783H70.6338V98.0373H69.0049C68.9971 98.2534 68.9893 98.4617 68.9814 98.6623C68.9736 98.8628 68.9658 99.0438 68.958 99.2052C68.9398 99.6401 68.9098 99.9878 68.8682 100.248C68.8265 100.506 68.7718 100.721 68.7041 100.893C68.6416 101.054 68.5713 101.186 68.4932 101.287C68.4176 101.386 68.3356 101.476 68.2471 101.557C68.1585 101.635 68.0596 101.694 67.9502 101.733C67.8434 101.772 67.7262 101.791 67.5986 101.791C67.5544 101.791 67.4893 101.79 67.4033 101.787C67.32 101.785 67.2653 101.783 67.2393 101.783V101.143H67.2783C67.2992 101.143 67.3291 101.144 67.3682 101.147C67.4072 101.149 67.4398 101.151 67.4658 101.151C67.5283 101.151 67.5921 101.141 67.6572 101.123C67.7249 101.105 67.7822 101.071 67.8291 101.022C67.9619 100.891 68.0687 100.671 68.1494 100.361C68.2301 100.052 68.2835 99.6037 68.3096 99.0177C68.32 98.8042 68.3291 98.5516 68.3369 98.2599C68.3473 97.9656 68.3564 97.6857 68.3643 97.4201H71.3682V101.783ZM76.4932 101.783H75.7666V98.506L73.4814 101.783H72.8174V97.4201H73.5439V100.651L75.8057 97.4201H76.4932V101.783ZM81.5439 100.463C81.5439 100.674 81.501 100.861 81.415 101.026C81.3317 101.19 81.2158 101.326 81.0674 101.436C80.9007 101.558 80.7184 101.647 80.5205 101.701C80.3252 101.756 80.0674 101.783 79.7471 101.783H77.9424V97.4201H79.6299C79.9554 97.4201 80.2002 97.4318 80.3643 97.4552C80.5309 97.4761 80.6872 97.5242 80.833 97.5998C80.9971 97.6857 81.1169 97.7977 81.1924 97.9357C81.2705 98.0737 81.3096 98.2365 81.3096 98.424C81.3096 98.6401 81.2484 98.8276 81.126 98.9865C81.0036 99.1453 80.846 99.269 80.6533 99.3576V99.3966C80.9111 99.4591 81.1234 99.5802 81.29 99.7599C81.4593 99.937 81.5439 100.171 81.5439 100.463ZM80.5557 98.5373C80.5557 98.4435 80.5348 98.3589 80.4932 98.2834C80.4541 98.2078 80.3929 98.1492 80.3096 98.1076C80.2002 98.0529 80.0765 98.0229 79.9385 98.0177C79.8031 98.0099 79.6351 98.006 79.4346 98.006H78.6689V99.2013H79.5869C79.7796 99.2013 79.9215 99.1948 80.0127 99.1818C80.1064 99.1662 80.2002 99.1297 80.2939 99.0724C80.3929 99.0099 80.4606 98.937 80.4971 98.8537C80.5361 98.7677 80.5557 98.6623 80.5557 98.5373ZM80.7861 100.467C80.7861 100.324 80.7627 100.208 80.7158 100.119C80.6689 100.028 80.5661 99.9448 80.4072 99.8693C80.3083 99.8224 80.2015 99.7951 80.0869 99.7873C79.9723 99.7768 79.8135 99.7716 79.6104 99.7716H78.6689V101.197H79.3643C79.6559 101.197 79.8799 101.188 80.0361 101.17C80.195 101.149 80.3317 101.106 80.4463 101.041C80.5609 100.976 80.6455 100.897 80.7002 100.803C80.7575 100.709 80.7861 100.597 80.7861 100.467ZM85.3877 100.444C85.3877 100.311 85.3643 100.195 85.3174 100.096C85.2731 99.9943 85.1989 99.9123 85.0947 99.8498C84.9854 99.7847 84.8604 99.7456 84.7197 99.7326C84.5817 99.7196 84.3825 99.713 84.1221 99.713H83.4346V101.197H84.1064C84.3669 101.197 84.5687 101.187 84.7119 101.166C84.8551 101.143 84.9788 101.1 85.083 101.037C85.1898 100.97 85.2666 100.89 85.3135 100.799C85.363 100.705 85.3877 100.587 85.3877 100.444ZM86.1455 100.432C86.1455 100.643 86.1025 100.834 86.0166 101.006C85.9333 101.178 85.8187 101.317 85.6729 101.424C85.501 101.554 85.3174 101.647 85.1221 101.701C84.9268 101.756 84.6755 101.783 84.3682 101.783H82.7002V97.4201H83.4346V99.1193H84.3877C84.7158 99.1193 84.9697 99.1362 85.1494 99.1701C85.3317 99.2039 85.5127 99.2873 85.6924 99.4201C85.8434 99.5321 85.9567 99.6753 86.0322 99.8498C86.1077 100.024 86.1455 100.218 86.1455 100.432ZM86.876 97.4201H87.6104V101.783H86.876V97.4201ZM92.8369 101.783H91.9111L90.6729 100.108L89.4268 101.783H88.5713L90.2744 99.6076L88.5869 97.4201H89.5127L90.7432 99.0685L91.9775 97.4201H92.8369L91.1221 99.5685L92.8369 101.783ZM55.9424 111.783H54.9814L53.1689 109.783H52.7705V111.783H52.0361V107.42H52.7705V109.303C53.0127 109.303 53.208 109.26 53.3564 109.174C53.5049 109.085 53.6312 108.945 53.7354 108.752C53.7718 108.682 53.807 108.608 53.8408 108.529C53.8773 108.449 53.9124 108.372 53.9463 108.299C54.0817 108.005 54.251 107.785 54.4541 107.639C54.6572 107.493 54.9489 107.42 55.3291 107.42H55.665V108.053H55.3408C55.1351 108.053 54.9736 108.097 54.8564 108.186C54.7419 108.272 54.6377 108.424 54.5439 108.643C54.4398 108.888 54.3291 109.071 54.2119 109.194C54.0973 109.313 53.9749 109.404 53.8447 109.467L55.9424 111.783ZM60.2588 111.783H59.5244V108.037H57.8955C57.8877 108.253 57.8799 108.462 57.8721 108.662C57.8643 108.863 57.8564 109.044 57.8486 109.205C57.8304 109.64 57.8005 109.988 57.7588 110.248C57.7171 110.506 57.6624 110.721 57.5947 110.893C57.5322 111.054 57.4619 111.186 57.3838 111.287C57.3083 111.386 57.2262 111.476 57.1377 111.557C57.0492 111.635 56.9502 111.694 56.8408 111.733C56.734 111.772 56.6169 111.791 56.4893 111.791C56.445 111.791 56.3799 111.79 56.2939 111.787C56.2106 111.785 56.1559 111.783 56.1299 111.783V111.143H56.1689C56.1898 111.143 56.2197 111.144 56.2588 111.147C56.2979 111.149 56.3304 111.151 56.3564 111.151C56.4189 111.151 56.4827 111.141 56.5479 111.123C56.6156 111.105 56.6729 111.071 56.7197 111.022C56.8525 110.891 56.9593 110.671 57.04 110.361C57.1208 110.052 57.1742 109.604 57.2002 109.018C57.2106 108.804 57.2197 108.552 57.2275 108.26C57.238 107.966 57.2471 107.686 57.2549 107.42H60.2588V111.783ZM65.3838 111.783H64.6572V108.506L62.3721 111.783H61.708V107.42H62.4346V110.651L64.6963 107.42H65.3838V111.783ZM70.4854 109.678H67.2705C67.2705 109.946 67.3109 110.18 67.3916 110.381C67.4723 110.579 67.583 110.742 67.7236 110.869C67.859 110.994 68.0192 111.088 68.2041 111.151C68.3916 111.213 68.5973 111.244 68.8213 111.244C69.1182 111.244 69.4163 111.186 69.7158 111.069C70.0179 110.949 70.2327 110.832 70.3604 110.717H70.3994V111.518C70.152 111.622 69.8994 111.709 69.6416 111.779C69.3838 111.85 69.113 111.885 68.8291 111.885C68.1051 111.885 67.54 111.69 67.1338 111.299C66.7275 110.906 66.5244 110.348 66.5244 109.627C66.5244 108.914 66.7184 108.347 67.1064 107.928C67.4971 107.509 68.0101 107.299 68.6455 107.299C69.234 107.299 69.6872 107.471 70.0049 107.815C70.3252 108.158 70.4854 108.647 70.4854 109.279V109.678ZM69.7705 109.115C69.7679 108.73 69.6702 108.432 69.4775 108.221C69.2874 108.01 68.9971 107.904 68.6064 107.904C68.2132 107.904 67.8994 108.02 67.665 108.252C67.4333 108.484 67.3018 108.772 67.2705 109.115H69.7705ZM75.251 111.783H74.5166V109.819H72.333V111.783H71.5986V107.42H72.333V109.186H74.5166V107.42H75.251V111.783ZM79.9072 108.065H78.3291V111.783H77.5947V108.065H76.0166V107.42H79.9072V108.065ZM84.3877 109.604C84.3877 110.315 84.2054 110.876 83.8408 111.287C83.4762 111.699 82.988 111.904 82.376 111.904C81.7588 111.904 81.2679 111.699 80.9033 111.287C80.5413 110.876 80.3604 110.315 80.3604 109.604C80.3604 108.893 80.5413 108.332 80.9033 107.92C81.2679 107.506 81.7588 107.299 82.376 107.299C82.988 107.299 83.4762 107.506 83.8408 107.92C84.2054 108.332 84.3877 108.893 84.3877 109.604ZM83.6299 109.604C83.6299 109.039 83.5192 108.619 83.2979 108.346C83.0765 108.07 82.7692 107.932 82.376 107.932C81.9775 107.932 81.6676 108.07 81.4463 108.346C81.2275 108.619 81.1182 109.039 81.1182 109.604C81.1182 110.151 81.2288 110.566 81.4502 110.85C81.6715 111.131 81.9801 111.272 82.376 111.272C82.7666 111.272 83.0726 111.132 83.2939 110.854C83.5179 110.572 83.6299 110.156 83.6299 109.604ZM89.1299 110.463C89.1299 110.674 89.0869 110.861 89.001 111.026C88.9176 111.19 88.8018 111.326 88.6533 111.436C88.4867 111.558 88.3044 111.647 88.1064 111.701C87.9111 111.756 87.6533 111.783 87.333 111.783H85.5283V107.42H87.2158C87.5413 107.42 87.7861 107.432 87.9502 107.455C88.1169 107.476 88.2731 107.524 88.4189 107.6C88.583 107.686 88.7028 107.798 88.7783 107.936C88.8564 108.074 88.8955 108.236 88.8955 108.424C88.8955 108.64 88.8343 108.828 88.7119 108.986C88.5895 109.145 88.432 109.269 88.2393 109.358V109.397C88.4971 109.459 88.7093 109.58 88.876 109.76C89.0452 109.937 89.1299 110.171 89.1299 110.463ZM88.1416 108.537C88.1416 108.444 88.1208 108.359 88.0791 108.283C88.04 108.208 87.9788 108.149 87.8955 108.108C87.7861 108.053 87.6624 108.023 87.5244 108.018C87.389 108.01 87.221 108.006 87.0205 108.006H86.2549V109.201H87.1729C87.3656 109.201 87.5075 109.195 87.5986 109.182C87.6924 109.166 87.7861 109.13 87.8799 109.072C87.9788 109.01 88.0465 108.937 88.083 108.854C88.1221 108.768 88.1416 108.662 88.1416 108.537ZM88.3721 110.467C88.3721 110.324 88.3486 110.208 88.3018 110.119C88.2549 110.028 88.152 109.945 87.9932 109.869C87.8942 109.822 87.7874 109.795 87.6729 109.787C87.5583 109.777 87.3994 109.772 87.1963 109.772H86.2549V111.197H86.9502C87.2419 111.197 87.4658 111.188 87.6221 111.17C87.7809 111.149 87.9176 111.106 88.0322 111.041C88.1468 110.976 88.2314 110.897 88.2861 110.803C88.3434 110.709 88.3721 110.597 88.3721 110.467Z" fill="white"/>
<defs>
<linearGradient id="paint0_linear_124:1704" x1="66.8438" y1="62.7833" x2="65.7924" y2="14.7833" gradientUnits="userSpaceOnUse">
<stop stop-color="#5773ED"/>
<stop offset="1" stop-color="#489CFE"/>
</linearGradient>
<clipPath id="clip0_124:1704">
<rect width="48" height="48" fill="white" transform="translate(45.9229 14.7834)"/>
</clipPath>
</defs>
</svg>
