<svg width="136" height="137" fill="none" xmlns="http://www.w3.org/2000/svg"><rect y=".87" width="135.22" height="135.22" rx="64" fill="#2D50EA"/><path d="M37.03 84.49h1.42c.49.02.95.04 1.39.09l-.03.66h-2.39c-.43 0-.65.22-.65.66v3.97h-.92v-4.22c0-.77.4-1.16 1.18-1.16Zm6.1-.11c.62 0 1.1.09 1.47.27.37.19.63.49.8.9.16.42.25.96.25 1.64 0 .69-.09 1.24-.25 1.65-.16.41-.43.71-.8.9-.36.18-.85.27-1.47.27a3.4 3.4 0 0 1-1.48-.28 1.66 1.66 0 0 1-.8-.89 4.67 4.67 0 0 1-.25-1.65c0-.68.08-1.22.24-1.64.17-.41.44-.71.8-.9a3.4 3.4 0 0 1 1.49-.27Zm0 .79c-.39 0-.7.06-.92.19a1 1 0 0 0-.49.61c-.1.3-.14.7-.14 1.22s.05.93.14 1.22c.1.3.26.5.49.63.22.12.53.18.92.18s.7-.06.91-.18c.23-.12.4-.33.49-.63.1-.29.14-.7.14-1.22s-.05-.92-.14-1.22a1 1 0 0 0-.49-.61 1.86 1.86 0 0 0-.91-.2Zm6.3-.8c.24 0 .52.03.84.06.33.03.62.1.88.2l-.12.6a12.2 12.2 0 0 0-1.45-.06c-.42 0-.76.06-1.01.18-.25.11-.43.32-.54.61-.11.3-.17.7-.17 1.22s.06.93.17 1.23c.1.3.29.5.54.62.25.12.6.18 1.01.18a16.04 16.04 0 0 0 1.58-.11l.1.62a6.84 6.84 0 0 1-1.83.28 3.4 3.4 0 0 1-1.49-.28 1.65 1.65 0 0 1-.81-.89 4.61 4.61 0 0 1-.25-1.65c0-.69.09-1.24.25-1.65.17-.4.44-.7.81-.88a3.4 3.4 0 0 1 1.49-.27Zm4.06.14v1.6c0 .2-.02.41-.06.61h.75c.35 0 .63-.09.85-.26.2-.18.4-.43.55-.76.16-.33.33-.73.5-1.2h.97c-.2.54-.38.98-.55 1.35-.17.37-.37.65-.6.85-.21.2-.51.32-.9.36v.03c.4.04.73.16.96.37.24.2.45.5.63.89s.39.9.61 1.52h-.97c-.22-.58-.42-1.05-.59-1.4a2 2 0 0 0-.58-.78c-.21-.17-.5-.25-.88-.24h-.74c.03.18.05.35.05.51v1.9h-.94v-5.35h.94Zm7.2-.13c.6 0 1.1.09 1.47.27.36.19.63.49.79.9.17.42.25.96.25 1.64 0 .69-.08 1.24-.25 1.65-.16.41-.43.71-.8.9-.36.18-.85.27-1.47.27a3.4 3.4 0 0 1-1.48-.28 1.66 1.66 0 0 1-.8-.89 4.67 4.67 0 0 1-.25-1.65c0-.68.08-1.22.25-1.64.16-.41.43-.71.8-.9a3.4 3.4 0 0 1 1.48-.27Zm0 .79c-.4 0-.7.06-.93.19a1 1 0 0 0-.48.61c-.1.3-.15.7-.15 1.22s.05.93.15 1.22c.09.3.25.5.48.63.23.12.53.18.92.18.4 0 .7-.06.92-.18.22-.12.38-.33.48-.63.1-.29.14-.7.14-1.22s-.04-.92-.14-1.22a1 1 0 0 0-.48-.61 1.86 1.86 0 0 0-.92-.2Zm4.92-.66v2.16h2.82V84.5h.92v5.36h-.92v-2.49h-2.82v2.49h-.92V84.5h.92Zm9.72 0v.77h-1.94v4.59h-.93v-4.6H70.5v-.76h4.82Zm1.93 0 .08.85a3.3 3.3 0 0 1 2.21-.98c.66 0 1.14.24 1.42.72.29.48.43 1.18.43 2.12 0 .68-.07 1.23-.22 1.65-.14.4-.37.69-.67.86-.3.18-.68.27-1.13.27a3.64 3.64 0 0 1-2-.55 14.43 14.43 0 0 1 .04 1.08v1.55h-.92V84.5h.76Zm2 .68c-.3 0-.59.07-.87.21-.28.13-.6.34-.97.62v2.85l.9.23c.26.06.53.08.82.08.31 0 .56-.05.74-.16.2-.11.33-.3.42-.6.09-.28.13-.68.13-1.2 0-.77-.09-1.3-.27-1.59-.18-.3-.48-.44-.9-.44Zm6.18-.81c.6 0 1.04.12 1.35.37.32.24.48.7.48 1.34v3.78h-.74l-.11-.88a4.05 4.05 0 0 1-1.3.82c-.28.1-.58.16-.91.16-.48 0-.86-.13-1.16-.39-.3-.26-.44-.63-.44-1.11v-.58c0-.42.13-.74.39-.97a1.6 1.6 0 0 1 1.1-.35h2.23v-.48c0-.33-.08-.56-.23-.7-.15-.15-.43-.22-.86-.22a66.82 66.82 0 0 0-2.31.14l-.09-.7 1.28-.16c.48-.05.92-.07 1.32-.07Zm-1.05 4.78c.27.01.58-.05.93-.18.36-.14.7-.35 1.01-.63v-1.08l-2.07.01c-.25 0-.44.08-.55.21a.8.8 0 0 0-.15.53v.34c0 .28.06.48.2.62.14.12.35.18.63.18Zm5.51-4.65v1.6c0 .2-.02.41-.05.61h.75c.35 0 .63-.09.84-.26.22-.18.4-.43.55-.76.16-.33.33-.73.5-1.2h.98c-.2.54-.38.98-.55 1.35-.17.37-.37.65-.6.85-.22.2-.52.32-.9.36v.03c.4.04.72.16.96.37.23.2.44.5.62.89.19.39.4.9.62 1.52h-.98c-.22-.58-.41-1.05-.58-1.4a2 2 0 0 0-.58-.78c-.22-.17-.51-.25-.88-.24h-.74c.03.18.04.35.04.51v1.9h-.93v-5.35h.93Zm9.2 0v.77h-1.94v4.59h-.93v-4.6h-1.95v-.76h4.82Zm3.35-.13c.61 0 1.1.09 1.47.27.37.19.63.49.8.9.16.42.25.96.25 1.64a4.5 4.5 0 0 1-.25 1.65c-.17.41-.43.71-.8.9-.36.18-.86.27-1.47.27a3.4 3.4 0 0 1-1.49-.28 1.65 1.65 0 0 1-.8-.89 4.66 4.66 0 0 1-.24-1.65c0-.68.08-1.22.24-1.64.17-.41.44-.71.8-.9a3.4 3.4 0 0 1 1.49-.27Zm0 .79c-.39 0-.7.06-.92.19a1 1 0 0 0-.49.61c-.1.3-.14.7-.14 1.22s.04.93.14 1.22c.1.3.26.5.48.63.23.12.54.18.93.18s.7-.06.91-.18c.23-.12.39-.33.49-.63.1-.29.14-.7.14-1.22s-.05-.92-.14-1.22a1 1 0 0 0-.49-.61 1.87 1.87 0 0 0-.91-.2Zm6.18-.72c.56 0 1 .04 1.32.13.33.08.57.22.72.42.15.21.22.5.22.88 0 .39-.1.68-.28.87-.17.2-.47.3-.88.34v.04c.5.03.85.17 1.05.42.2.23.3.56.3 1 0 .36-.08.65-.22.85-.14.2-.37.34-.69.42-.3.08-.72.12-1.24.12a37.54 37.54 0 0 1-2.47-.06v-5.36a10.78 10.78 0 0 1 1.32-.05l.85-.02Zm-.03.74h-1.26v1.59h1.4c.47 0 .79-.06.97-.17.2-.11.29-.33.29-.65 0-.3-.1-.51-.31-.61-.2-.1-.57-.16-1.09-.16Zm.14 2.26h-1.4v1.75h1.46c.5 0 .85-.05 1.04-.16.2-.12.3-.35.3-.7 0-.34-.1-.57-.3-.7-.21-.13-.58-.2-1.1-.2Zm-70.7 10c.56 0 1 .04 1.33.13.33.08.57.22.71.42.15.21.22.5.22.88 0 .39-.09.68-.27.87-.18.2-.47.3-.88.34v.04c.5.03.84.17 1.04.42.2.23.3.56.3 1 0 .36-.07.65-.22.85-.14.2-.37.34-.68.42-.31.08-.73.12-1.25.12a35.04 35.04 0 0 1-2.47-.06v-5.36a10.78 10.78 0 0 1 1.32-.05l.86-.02Zm-.03.74H36.75v1.59h1.4c.47 0 .8-.06.98-.17.19-.11.28-.33.28-.65 0-.3-.1-.51-.3-.61-.21-.1-.58-.16-1.1-.16Zm.15 2.26h-1.41v1.74l.66.02h.8c.5 0 .85-.06 1.05-.17.2-.12.3-.35.3-.7 0-.34-.1-.57-.31-.7-.2-.13-.57-.2-1.1-.2Zm5.98-.86c.53 0 .95.05 1.25.15.3.1.52.28.64.53.13.24.2.57.2.99 0 .43-.07.77-.2 1.02s-.34.41-.63.5c-.28.1-.66.15-1.12.15a30.2 30.2 0 0 1-2.29-.06h-.03V97.5h.91v2.08h1.27Zm4.01-2.08v5.36h-.94V97.5h.94Zm-4.01 2.77h-1.27v1.9l1.27.01c.42 0 .72-.06.89-.18.17-.13.25-.39.25-.78 0-.36-.08-.6-.24-.74-.15-.14-.45-.2-.9-.2Zm10.33-2.77v5.36h-.92v-4.6H50.8v4.6h-.91V97.5h4.58Zm4.02-.13c.62 0 1.1.09 1.48.27.36.19.63.49.79.9.17.42.25.96.25 1.64 0 .69-.08 1.23-.25 1.65-.16.41-.43.71-.8.9-.36.18-.85.27-1.47.27-.61 0-1.1-.1-1.48-.28a1.66 1.66 0 0 1-.8-.89 4.67 4.67 0 0 1-.25-1.65c0-.68.08-1.22.24-1.64.17-.41.44-.71.8-.9a3.4 3.4 0 0 1 1.5-.27Zm0 .79c-.39 0-.7.06-.92.19a1 1 0 0 0-.49.61c-.1.3-.14.7-.14 1.22s.05.93.14 1.22c.1.3.26.5.49.63.23.12.53.18.92.18s.7-.06.91-.18c.23-.12.4-.33.49-.63.1-.29.14-.7.14-1.22s-.05-.92-.14-1.22a1 1 0 0 0-.49-.61 1.86 1.86 0 0 0-.9-.2Zm8.36-.66v5.36h-.94v-4.62h-1.17c-.22 0-.39.05-.49.15-.1.1-.16.27-.2.52-.06.48-.12.98-.2 1.5-.07.5-.18.94-.32 1.31-.27.79-.83 1.18-1.68 1.2l-.1-.72c.3-.08.52-.17.64-.29.13-.12.24-.27.3-.46.1-.24.18-.52.24-.84.06-.32.1-.65.14-.98.05-.33.08-.63.1-.88.05-.4.19-.72.4-.93.22-.21.55-.32 1-.32h2.28Zm2.66 0v2.16h2.82V97.5h.92v5.36h-.92v-2.49h-2.82v2.49h-.92V97.5h.92Zm7.68-.13c.8 0 1.4.14 1.75.44.37.3.55.73.56 1.3 0 .48-.1.86-.3 1.13-.2.26-.53.4-.97.4h-2.5c.03.42.1.75.23.97.13.22.32.38.55.46.23.09.54.13.9.13a14.59 14.59 0 0 0 1.87-.14l.09.63c-.16.07-.37.12-.62.17a8.48 8.48 0 0 1-1.46.13c-.6 0-1.1-.1-1.48-.28a1.7 1.7 0 0 1-.82-.9 4.48 4.48 0 0 1-.25-1.65c0-.7.08-1.26.25-1.66.18-.41.45-.7.8-.87.36-.17.83-.26 1.4-.26Zm.05.79c-.38 0-.67.05-.9.15a.96.96 0 0 0-.47.54c-.1.25-.15.6-.16 1.06h2.27c.24 0 .4-.08.47-.24.08-.17.11-.36.1-.55 0-.35-.1-.6-.3-.74-.19-.15-.53-.22-1.01-.22Zm4.62-.66v2.16h2.81V97.5h.93v5.36h-.93v-2.49h-2.81v2.49h-.93V97.5h.93Zm7.75-.13c.62 0 1.1.09 1.48.27.36.19.63.49.79.9.17.42.25.96.25 1.64 0 .69-.08 1.23-.25 1.65-.16.41-.43.71-.8.9-.36.18-.85.27-1.47.27-.61 0-1.1-.1-1.48-.28a1.66 1.66 0 0 1-.8-.89 4.67 4.67 0 0 1-.25-1.65c0-.68.08-1.22.24-1.64.17-.41.44-.71.8-.9a3.4 3.4 0 0 1 1.5-.27Zm0 .79c-.39 0-.7.06-.92.19a1 1 0 0 0-.49.61c-.1.3-.14.7-.14 1.22s.05.93.14 1.22c.1.3.26.5.49.63.23.12.53.18.92.18.4 0 .7-.06.91-.18.23-.12.4-.33.49-.63.1-.29.14-.7.14-1.22s-.05-.92-.14-1.22a1 1 0 0 0-.49-.61 1.86 1.86 0 0 0-.9-.2ZM41.52 53.55v19.32h-4.26V59.15c0-.34.01-.68.03-1.01.02-.36.08-.71.17-1.07l-4.6 1.18-.52-2.77 4.92-1.93h4.26Zm11.3-.34c1.85 0 3.26.19 4.23.56a3.3 3.3 0 0 1 2.02 1.68c.35.75.53 1.72.53 2.91 0 1.12-.23 2.11-.67 2.97a2.66 2.66 0 0 1-2.22 1.46v.1c.9.08 1.58.36 2.05.85a3.7 3.7 0 0 1 1 1.82c.21.75.31 1.58.31 2.49 0 1.23-.2 2.23-.61 3-.4.74-1.11 1.3-2.16 1.65-1.04.33-2.54.5-4.48.5-1.92 0-3.4-.17-4.45-.5a3.7 3.7 0 0 1-2.18-1.65 6.33 6.33 0 0 1-.62-3c0-.91.1-1.74.28-2.5a3.7 3.7 0 0 1 1-1.81c.51-.49 1.2-.77 2.08-.84v-.11a2.66 2.66 0 0 1-2.21-1.46 6.32 6.32 0 0 1-.67-2.97c0-1.2.17-2.16.53-2.91a3.41 3.41 0 0 1 2.01-1.68c1-.37 2.4-.56 4.23-.56Zm.03 2.94c-.8 0-1.42.08-1.85.25-.43.15-.73.42-.9.81-.14.4-.22.95-.22 1.66 0 .7.09 1.25.25 1.62.17.36.47.6.9.73.43.13 1.05.2 1.88.2.8 0 1.4-.07 1.82-.2.4-.13.68-.38.8-.76.16-.37.23-.9.23-1.6 0-.7-.07-1.25-.22-1.65-.15-.39-.44-.66-.87-.8a5.04 5.04 0 0 0-1.82-.26Zm.03 8.1c-.9.01-1.59.1-2.07.27-.47.15-.8.44-.98.87a5.28 5.28 0 0 0-.26 1.85c0 .73.09 1.3.26 1.7.18.4.5.68.98.85.48.15 1.16.22 2.04.22.88 0 1.54-.07 1.99-.22.46-.17.78-.45.95-.84.17-.41.25-.98.25-1.71 0-.82-.08-1.45-.25-1.88a1.43 1.43 0 0 0-.95-.87 5.86 5.86 0 0 0-1.96-.25Z" fill="#fff"/><g opacity=".2" clip-path="url(#a)" fill="#fff"><path d="M102.3 52.55a12.25 12.25 0 0 0-10.03-5.28 12.25 12.25 0 0 0-10.08 5.36 13.03 13.03 0 0 0 .06 14.95 12.25 12.25 0 0 0 10.04 5.28 12.26 12.26 0 0 0 10.11-5.43 13.04 13.04 0 0 0-.1-14.88Zm-.87 13.52c-.92-.3-1.85-.53-2.8-.69.36-1.48.56-2.99.6-4.51h3.86c-.12 1.85-.7 3.63-1.66 5.2Zm-19.98-5.2h3.86c.05 1.52.24 3.03.6 4.5-.95.17-1.88.4-2.8.7a11.34 11.34 0 0 1-1.66-5.2Zm1.67-6.8c.91.3 1.85.52 2.8.68-.36 1.48-.56 3-.6 4.52h-3.87c.13-1.85.7-3.64 1.67-5.2Zm9.93 1.18a39 39 0 0 0 4.03-.27c.35 1.4.55 2.84.6 4.29h-4.63v-4.02Zm0-1.6V49c1.43.45 2.7 2.1 3.56 4.43-1.13.12-2.32.2-3.56.22ZM91.5 49v4.65c-1.24-.02-2.44-.1-3.56-.22.85-2.33 2.12-3.98 3.56-4.43Zm0 6.25v4.02h-4.64c.05-1.45.25-2.89.6-4.29a39 39 0 0 0 4.04.27Zm-4.64 5.62h4.64v4a39 39 0 0 0-4.04.28c-.35-1.4-.55-2.84-.6-4.28Zm4.64 5.61v4.65c-1.44-.44-2.7-2.1-3.56-4.42 1.12-.13 2.32-.2 3.56-.23Zm1.55 4.65v-4.65c1.24.02 2.43.1 3.56.23-.85 2.33-2.13 3.98-3.56 4.42Zm0-6.25v-4.01h4.63a20.5 20.5 0 0 1-.6 4.28 39 39 0 0 0-4.03-.27Zm6.18-5.61a22.19 22.19 0 0 0-.59-4.52c.95-.16 1.88-.38 2.8-.68a11.35 11.35 0 0 1 1.65 5.2h-3.86Zm1.21-6.56c-.74.2-1.49.37-2.25.5-.4-1.26-1-2.43-1.77-3.5 1.54.67 2.92 1.7 4.02 3Zm-12.31-3a12.61 12.61 0 0 0-1.77 3.5 20.2 20.2 0 0 1-2.25-.5c1.1-1.3 2.47-2.33 4.02-3ZM84.1 67.44c.74-.21 1.49-.38 2.25-.5.4 1.25 1 2.43 1.77 3.49a10.93 10.93 0 0 1-4.02-3Zm12.3 2.99a12.61 12.61 0 0 0 1.78-3.49c.76.12 1.51.29 2.25.5a10.93 10.93 0 0 1-4.02 2.98Z"/><path d="M102.22 46.23a45.88 45.88 0 0 1-4.89-6.54 40.61 40.61 0 0 1-3.94-9.94 1.19 1.19 0 0 0-1.14-.88c-.52 0-.99.36-1.13.88a40.61 40.61 0 0 1-3.94 9.93 45.91 45.91 0 0 1-4.88 6.55l-1.13 1.33c-1.94 2.35-3.91 4.94-4.74 8.49a17.25 17.25 0 0 0 6.76 17.9 15.87 15.87 0 0 0 9.05 2.92h.03a15.87 15.87 0 0 0 9.06-2.93 17.25 17.25 0 0 0 6.75-17.9c-.82-3.54-2.79-6.13-4.74-8.48l-1.12-1.33Zm-1.77 26.4a14.34 14.34 0 0 1-8.18 2.64h-.01a14.36 14.36 0 0 1-8.2-2.65 15.62 15.62 0 0 1-6.12-16.2c.74-3.2 2.59-5.62 4.41-7.82l1.12-1.32a47.2 47.2 0 0 0 5.05-6.78 40.87 40.87 0 0 0 3.74-9.03A40.9 40.9 0 0 0 96 40.5a47.07 47.07 0 0 0 5.05 6.78l1.11 1.32c1.83 2.2 3.67 4.62 4.42 7.82a15.62 15.62 0 0 1-6.13 16.2Z"/></g><defs><clipPath id="a"><path fill="#fff" transform="translate(68 28.87)" d="M0 0h48v48H0z"/></clipPath></defs></svg>