<svg width="128" height="119" fill="none" xmlns="http://www.w3.org/2000/svg"><rect x=".18" y=".23" width="118.31" height="118.31" rx="59.16" fill="#2D50E9"/><path d="m62.91 76.46-3.82 8.96h-1.18l1.22-2.73-2.6-6.23h1.19l2 4.85 2.04-4.85h1.15Zm6.34 6.14c-.45.2-.84.35-1.16.43a4.02 4.02 0 0 1-2.27-.08 2.74 2.74 0 0 1-1.7-1.7 4.4 4.4 0 0 1-.23-1.5c0-1.05.29-1.88.87-2.5a3.07 3.07 0 0 1 2.37-.94c.38 0 .75.05 1.11.16.37.1.7.23 1.01.38v1.23h-.06a4.23 4.23 0 0 0-1.08-.62 2.9 2.9 0 0 0-1.03-.2c-.65 0-1.16.22-1.52.66a2.81 2.81 0 0 0-.53 1.82c0 .78.18 1.38.53 1.81.36.43.87.65 1.52.65a3.12 3.12 0 0 0 1.77-.58c.16-.1.27-.19.34-.24h.06v1.22Zm6.99.4h-1.1v-5.59h-3.28v5.6h-1.1v-6.55h5.48v6.55Zm7.65-3.15h-4.82c0 .4.06.75.18 1.05a1.98 1.98 0 0 0 1.22 1.16c.28.09.6.14.93.14.44 0 .89-.1 1.34-.27.45-.18.77-.35.97-.52h.05v1.2c-.37.15-.75.28-1.13.39-.39.1-.8.16-1.22.16-1.09 0-1.94-.3-2.54-.88-.61-.6-.92-1.43-.92-2.5 0-1.08.3-1.93.87-2.56a3 3 0 0 1 2.31-.94c.89 0 1.57.26 2.04.77.48.52.72 1.25.72 2.2v.6ZM82.82 79c0-.57-.15-1.02-.44-1.34-.28-.31-.72-.47-1.3-.47-.6 0-1.07.17-1.42.52-.35.35-.54.78-.59 1.3h3.75Zm11.09 4h-8.35v-6.54h1.1v5.6h2.52v-5.6h1.1v5.6h2.52v-5.6h1.1v6.55Zm7.64 0h-1.1v-2.94h-3.27V83h-1.1v-6.55h1.1v2.65h3.27v-2.65h1.1v6.55Zm6.2-2c0-.2-.03-.38-.1-.53a.8.8 0 0 0-.33-.36c-.17-.1-.35-.16-.56-.18-.21-.02-.51-.03-.9-.03h-1.03v2.23h1c.4 0 .7-.02.91-.05.22-.03.4-.1.56-.2.16-.1.28-.21.35-.35.07-.14.1-.32.1-.53Zm1.14-.02c0 .31-.06.6-.19.86-.12.26-.3.47-.51.63-.26.2-.54.33-.83.41-.3.08-.67.13-1.13.13h-2.5v-6.55h1.1v2.55h1.43c.49 0 .87.03 1.14.08.27.05.54.17.81.37.23.17.4.38.52.65.1.26.16.55.16.87Zm1.1-4.52h1.1v6.55H110v-6.55Zm8.94 6.55h-1.39l-1.85-2.52-1.87 2.52h-1.29l2.56-3.27-2.53-3.28h1.38l1.85 2.47 1.85-2.47h1.3l-2.58 3.22 2.57 3.33Zm-56.2 14h-1.1v-5.6h-3.28v5.6h-1.1v-6.55h5.48v6.55Zm7.93-3.36c0 .54-.07 1.02-.23 1.46-.15.44-.36.81-.64 1.12a2.73 2.73 0 0 1-2.02.9 3.58 3.58 0 0 1-1.77-.45v2.74h-1.1v-8.96H66v.69c.3-.25.63-.45.99-.62.37-.17.76-.25 1.17-.25.79 0 1.4.3 1.84.9.44.59.66 1.42.66 2.47Zm-1.13.03c0-.79-.14-1.38-.4-1.77-.28-.39-.7-.58-1.25-.58-.32 0-.64.07-.96.2-.32.14-.62.32-.92.54v3.71c.32.14.58.24.8.29.23.05.49.07.77.07.62 0 1.1-.2 1.44-.62.34-.41.52-1.02.52-1.84Zm8.43.06c0 1.06-.28 1.9-.82 2.52-.55.62-1.28.93-2.2.93a2.8 2.8 0 0 1-2.2-.93 3.69 3.69 0 0 1-.82-2.52c0-1.07.27-1.91.81-2.53a2.8 2.8 0 0 1 2.2-.93c.93 0 1.66.31 2.2.93.55.62.83 1.46.83 2.53Zm-1.14 0c0-.85-.17-1.48-.5-1.89-.33-.41-.8-.62-1.38-.62-.6 0-1.06.2-1.4.62-.32.41-.49 1.04-.49 1.89a3 3 0 0 0 .5 1.87c.33.42.8.63 1.39.63.59 0 1.04-.21 1.38-.63.33-.42.5-1.05.5-1.87Zm8.33.1h-4.83c0 .41.06.76.19 1.06a1.98 1.98 0 0 0 1.21 1.16c.29.09.6.14.93.14.45 0 .9-.1 1.34-.27.46-.18.78-.35.97-.52h.06v1.2c-.37.15-.75.28-1.14.39-.39.1-.8.16-1.22.16-1.08 0-1.93-.3-2.54-.88-.61-.6-.91-1.43-.91-2.5 0-1.08.29-1.93.87-2.56a3 3 0 0 1 2.3-.94c.89 0 1.57.26 2.05.77.48.52.72 1.25.72 2.2v.6ZM84.07 93c0-.57-.15-1.02-.44-1.34-.28-.31-.72-.47-1.3-.47-.6 0-1.06.17-1.41.52-.35.35-.55.78-.6 1.3h3.75Zm8.65 4h-1.44l-2.72-3h-.6v3h-1.1v-6.54h1.1v2.83c.37 0 .66-.07.88-.2.23-.13.42-.34.57-.63a5.34 5.34 0 0 0 .32-.68c.2-.44.46-.77.76-1 .3-.21.74-.32 1.31-.32h.5v.95h-.48c-.3 0-.55.07-.73.2-.17.13-.32.36-.47.69-.15.36-.32.64-.5.82-.16.18-.35.32-.54.41l3.14 3.48Zm6-5.57h-2.36V97h-1.1v-5.58h-2.37v-.97h5.84v.97Zm6.24 5.58h-1.1v-.7l-.4.28a3.13 3.13 0 0 1-1.95.6 2.1 2.1 0 0 1-1.5-.59c-.4-.39-.61-.89-.61-1.5 0-.49.1-.89.31-1.2.22-.3.52-.54.92-.72.4-.18.87-.3 1.43-.36.56-.06 1.16-.1 1.8-.14v-.17c0-.25-.04-.46-.13-.62a.94.94 0 0 0-.38-.39 1.57 1.57 0 0 0-.56-.18 4.84 4.84 0 0 0-2.76.4h-.05V90.6a10.73 10.73 0 0 1 2.13-.3c.46 0 .86.04 1.2.12.34.07.64.2.9.39.24.18.43.4.55.7.13.28.2.63.2 1.05v4.45Zm-1.1-1.62v-1.82l-1.19.09c-.45.04-.81.1-1.08.17-.31.09-.57.23-.76.42-.2.19-.3.45-.3.78 0 .38.12.66.34.85.23.19.57.28 1.04.28.39 0 .74-.07 1.06-.22.32-.15.62-.33.9-.55ZM72.05 60.86h-12.6V58.5h4.85v-15.6h-4.85v-2.12c.66 0 1.36-.05 2.11-.16a5.44 5.44 0 0 0 1.7-.48c.49-.26.86-.59 1.13-.99.28-.4.44-.94.49-1.62h2.42v20.97h4.75v2.37Zm21.64-11.64c0 4.18-.66 7.25-1.97 9.2-1.3 1.95-3.33 2.93-6.08 2.93-2.8 0-4.83-1-6.12-2.97-1.29-1.98-1.93-5.02-1.93-9.13 0-4.13.66-7.18 1.96-9.15 1.3-1.98 3.33-2.97 6.1-2.97 2.78 0 4.82 1 6.1 3.01 1.3 2 1.94 5.03 1.94 9.08Zm-4.11 7.1c.36-.85.6-1.84.73-2.97.14-1.15.2-2.52.2-4.13 0-1.58-.06-2.96-.2-4.12a9.51 9.51 0 0 0-.75-2.97c-.36-.8-.86-1.4-1.5-1.81-.62-.41-1.43-.61-2.42-.61-.98 0-1.8.2-2.44.6a4.15 4.15 0 0 0-1.51 1.85 9.9 9.9 0 0 0-.74 3.02c-.12 1.24-.18 2.6-.18 4.07 0 1.63.05 2.99.17 4.08.11 1.1.36 2.08.73 2.94.35.81.83 1.43 1.46 1.86.63.43 1.47.64 2.51.64.98 0 1.8-.2 2.44-.61a3.93 3.93 0 0 0 1.5-1.84Zm25.01-2h-3.45v6.54h-3v-6.54H97v-3.6l11.27-13.12h2.87v14.22h3.45v2.5Zm-6.45-2.5v-10.5l-9.01 10.5h9.01Z" fill="#fff"/><path d="M18.1 78.45c.33.51.5 1.11.5 1.73v3.62a2.4 2.4 0 0 0 2.4 2.4h7.2c.6 0 1.17-.22 1.6-.62.44.4 1.01.62 1.6.62h7.2a2.4 2.4 0 0 0 2.4-2.4v-3.62c0-.62.18-1.22.51-1.73l5.55-8.63a7.19 7.19 0 0 0 1.14-3.9V52.6a3.2 3.2 0 0 0-6.4 0v2.46c-3.16-8.44-9.99-15.45-10.97-16.43a1.44 1.44 0 0 0-2.05 0 55.08 55.08 0 0 0-4.46 5.14c-.66-1.5-.98-3.13-.92-4.77a.8.8 0 0 0-1.6 0c0 7.44-4.6 7.6-4.8 7.6h-.01a.8.8 0 1 0 0 1.6c1.28.1 2.45.75 3.22 1.78a37.7 37.7 0 0 0-2.4 5.06V52.6a3.2 3.2 0 0 0-6.4 0v13.32c0 1.38.39 2.73 1.14 3.9l5.55 8.63ZM43.4 52.6a1.6 1.6 0 0 1 3.2 0v13.32a5.6 5.6 0 0 1-.89 3.03l-5.54 8.63c-.5.77-.77 1.68-.77 2.6v3.62a.8.8 0 0 1-.8.8h-7.2a.8.8 0 0 1-.8-.8v-3.72c0-2.55 1-4.99 2.82-6.79l.25-.25c.6-.6.94-1.41.93-2.26v-6.4a9.4 9.4 0 0 0 4 0v3.02a1.6 1.6 0 0 0 2.85 1l1.6-2c.23-.28.35-.64.35-1V52.6Zm-4.8 10.11c-.64.22-1.32.32-2 .3a5.72 5.72 0 0 1-2-.3v-.9a2 2 0 0 1 4 0v.9Zm-18.97-15.3a6.86 6.86 0 0 0 2.97-3.58 7.84 7.84 0 0 0 1.02 1.84c.53.7 1.2 1.3 1.96 1.73a6.86 6.86 0 0 0-2.98 3.57 7.95 7.95 0 0 0-.85-1.59 6.5 6.5 0 0 0-2.12-1.98Zm1.5 4.2c.48 1.35.71 2.77.67 4.2a.8.8 0 1 0 1.6 0c0-7.45 4.61-7.6 4.8-7.6a.8.8 0 1 0 0-1.6 4.3 4.3 0 0 1-2.94-1.43 54.92 54.92 0 0 1 4.54-5.31c1.66 1.67 12 12.54 12 23.24l-.01.53.01.1v1.66l-1.6 2v-5.6a3.6 3.6 0 1 0-7.2 0v8.98c0 .42-.16.83-.47 1.13l-.25.25a11.17 11.17 0 0 0-2.48 3.76c-.56-1.4-1.4-2.69-2.48-3.76l-.25-.25c-.3-.3-.47-.7-.47-1.13V61.8a3.6 3.6 0 0 0-7.2 0v5.6l-1.6-2v-3.48a26.15 26.15 0 0 1 3.33-10.3ZM25 62.72c-.64.22-1.32.32-2 .3a5.72 5.72 0 0 1-2-.3v-.9a2 2 0 1 1 4 0v.9Zm-12-10.1a1.6 1.6 0 0 1 3.2 0v12.8c0 .35.13.7.35 1l1.6 2a1.6 1.6 0 0 0 2.85-1v-3.02a9.4 9.4 0 0 0 4 0v6.39c0 .85.34 1.66.94 2.26l.25.25A9.54 9.54 0 0 1 29 80.1v3.71a.8.8 0 0 1-.8.8H21a.8.8 0 0 1-.8-.8v-3.62c0-.92-.26-1.83-.76-2.6l-5.55-8.63a5.6 5.6 0 0 1-.89-3.03V52.6Z" fill="#fff" opacity=".2"/></svg>