<svg width="30" height="44" fill="none" xmlns="http://www.w3.org/2000/svg">
	<path d="m25 23 3.123-3.904a5 5 0 0 1 0 7.808L25 23ZM8.123 42.904a5 5 0 1 1-6.246-7.808l6.246 7.808Zm-6.246-32a5 5 0 1 1 6.246-7.808l-6.246 7.808Zm26.247 16-20 16-6.247-7.808 20-16 6.247 7.808Zm-6.247 0-20-16 6.246-7.808 20 16-6.247 7.808Z" fill="#828282" />
	<path d="m25 21 3.123-3.904a5 5 0 0 1 0 7.808L25 21ZM8.123 40.904a5 5 0 1 1-6.246-7.808l6.246 7.808Zm-6.246-32a5 5 0 1 1 6.246-7.808L1.877 8.904Zm26.247 16-20 16-6.247-7.808 20-16 6.247 7.808Zm-6.247 0-20-16 6.246-7.808 20 16-6.247 7.808Z" fill="#E0E0E0" />
</svg>
