<svg width="30" height="44" fill="none" xmlns="http://www.w3.org/2000/svg"><path d="m5 23-3.123-3.904a5 5 0 0 0 0 7.808L5 23Zm16.877 19.904a5 5 0 1 0 6.247-7.808l-6.247 7.808Zm6.247-32a5 5 0 1 0-6.247-7.808l6.247 7.808Zm-26.247 16 20 16 6.247-7.808-20-16-6.247 7.808Zm6.246 0 20-16-6.247-7.808-20 16 6.247 7.808Z" fill="#828282"/><path d="m5 21-3.123-3.904a5 5 0 0 0 0 7.808L5 21Zm16.877 19.904a5 5 0 1 0 6.247-7.808l-6.247 7.808Zm6.247-32a5 5 0 1 0-6.247-7.808l6.247 7.808Zm-26.247 16 20 16 6.247-7.808-20-16-6.247 7.808Zm6.246 0 20-16-6.247-7.808-20 16 6.247 7.808Z" fill="#E0E0E0"/></svg>