<svg width="322" height="304" fill="none" xmlns="http://www.w3.org/2000/svg"><rect x="95" width="112" height="112" rx="56" fill="#2D50E9"/><path d="M128.429 81.643V87h-.935v-4.62h-1.166c-.227 0-.392.0513-.495.154-.095.0953-.161.2677-.198.517-.058.484-.124.9827-.198 1.496-.073.506-.179.946-.319 1.32-.271.7847-.832 1.1807-1.683 1.188l-.099-.715c.301-.0733.514-.1687.638-.286.132-.1173.235-.2713.308-.462.096-.2347.173-.5133.231-.836.059-.3227.107-.649.143-.979.044-.3373.077-.6307.099-.88.052-.4107.184-.7223.396-.935.22-.2127.554-.319 1.001-.319h2.277Zm3.944-.132c.807 0 1.39.1467 1.749.44.367.2933.554.7297.561 1.309 0 .4767-.102.8507-.308 1.122-.198.264-.52.396-.968.396h-2.497c.03.4253.107.7517.231.979.132.22.316.374.55.462.235.0807.536.121.902.121.294 0 .609-.011.946-.033.345-.0293.653-.0623.924-.099l.088.627c-.161.066-.366.121-.616.165-.249.044-.506.077-.77.099-.256.022-.487.033-.693.033-.608 0-1.103-.0917-1.485-.275-.374-.1907-.645-.4913-.814-.902-.168-.418-.253-.968-.253-1.65 0-.704.085-1.2577.253-1.661.176-.4107.444-.7003.803-.869.36-.176.825-.264 1.397-.264Zm.044.792c-.374 0-.671.0513-.891.154-.212.1027-.37.2823-.473.539-.095.2493-.15.6013-.165 1.056h2.277c.235 0 .389-.0807.462-.242.081-.1687.118-.352.11-.55 0-.3447-.099-.5903-.297-.737-.198-.1467-.539-.22-1.023-.22Zm7.717-.66v.77h-1.936V87h-.935v-4.587h-1.947v-.77h4.818Zm5.884-.132c.616 0 1.107.0917 1.474.275.366.1833.63.484.792.902.168.4107.253.957.253 1.639s-.085 1.232-.253 1.65c-.162.4107-.426.7077-.792.891-.367.1833-.858.275-1.474.275s-1.111-.0917-1.485-.275c-.367-.1833-.635-.4803-.803-.891-.162-.418-.242-.968-.242-1.65 0-.682.08-1.2283.242-1.639.168-.418.436-.7187.803-.902.374-.1833.869-.275 1.485-.275Zm0 .792c-.389 0-.697.0623-.924.187-.228.1173-.389.3227-.484.616-.096.2933-.143.7003-.143 1.221s.047.9277.143 1.221c.095.2933.256.5023.484.627.227.1173.535.176.924.176.388 0 .693-.0587.913-.176.227-.1247.388-.3337.484-.627.095-.2933.143-.7003.143-1.221s-.048-.9277-.143-1.221c-.096-.2933-.257-.4987-.484-.616-.22-.1247-.525-.187-.913-.187Zm8.594-.66V87h-.924v-4.598h-2.75V87h-.913v-5.357h4.587Zm3.918 2.079c.535 0 .953.0513 1.254.154.301.1027.513.2787.638.528.132.242.198.572.198.99 0 .4327-.066.7737-.198 1.023-.132.242-.341.4107-.627.506s-.66.143-1.122.143c-.352 0-.656-.0037-.913-.011-.257 0-.491-.0073-.704-.022-.213-.0073-.436-.0183-.671-.033h-.033v-5.357h.913v2.079h1.265Zm4.015-2.079V87h-.946v-5.357h.946Zm-4.015 2.772h-1.265v1.903c.345.0073.766.011 1.265.011.425 0 .722-.0623.891-.187.169-.1247.253-.385.253-.781 0-.352-.081-.5977-.242-.737-.154-.1393-.455-.209-.902-.209Zm9.985-2.772v.77h-1.936V87h-.935v-4.587h-1.947v-.77h4.818Zm3.698-.132c.594 0 1.045.1247 1.353.374.316.242.473.6893.473 1.342V87h-.737l-.11-.88c-.139.1393-.319.286-.539.44-.22.1467-.473.275-.759.385-.278.1027-.583.154-.913.154-.476 0-.861-.1283-1.155-.385-.293-.2567-.44-.627-.44-1.111v-.583c0-.418.129-.7407.385-.968.264-.2347.631-.352 1.1-.352h2.233v-.473c-.007-.33-.084-.5647-.231-.704-.146-.1467-.432-.22-.858-.22-.286 0-.641.0147-1.067.044-.418.0293-.832.0623-1.243.099l-.088-.693c.374-.0587.8-.1137 1.276-.165.477-.0513.917-.077 1.32-.077Zm-1.045 4.785c.264.0073.572-.055.924-.187.36-.1393.697-.3483 1.012-.627v-1.078l-2.068.011c-.256.0073-.44.077-.55.209-.102.1247-.154.3007-.154.528v.341c0 .2787.066.484.198.616.14.1247.352.187.638.187Z" fill="#fff"/><path d="M150.221 52.9905h.005c.176.0096.358.0096.564.0096h.108c.155 0 .31 0 .457-.0072h.005c8.362-.1041 14.087-2.4661 17.009-7.0379 4.089-6.4032 1.751-15.4196-.932-21.8588-.292-.7173-1.046-1.1094-1.779-.9252-.59.1331-1.047.6135-1.165 1.2238-4.07-9.8985-11.661-17.96565-12.604-18.94453-.618-.60275-1.586-.59993-2.201.00641-.94.97648-8.53 9.04442-12.602 18.93972-.118-.6103-.575-1.0907-1.165-1.2238-.732-.1828-1.486.2089-1.779.9252-2.678 6.4352-5.019 15.4556-.93 21.8588 2.921 4.5678 8.647 6.9298 17.009 7.0339Zm15.791-28.2651c3.578 8.5914 3.954 15.8173 1.06 20.346-2.092 3.2736-5.883 5.2826-11.3 6.0165 4.383-2.2643 10.318-6.8922 11.311-15.6029.043-.4347-.26-.8245-.681-.8756-.421-.0512-.804.2552-.86.6884-1.228 10.7612-10.741 14.7744-13.898 15.8189l.007-.1152c.396-5.9429.736-11.0759 4.74-14.4687.763-.6346 1.609-1.1554 2.513-1.5472 6.158-2.7405 7.295-6.0878 7.108-10.2602ZM150.79 6.57723c1.009 1.05091 9.924 10.52357 13.376 21.45777-.604 2.1122-2.215 3.8467-5.881 5.4771-1.037.4518-2.007 1.0512-2.883 1.7809-2.787 2.3611-3.997 5.4426-4.612 8.8707-.615-3.4305-1.826-6.5096-4.612-8.8707-.876-.7297-1.846-1.3291-2.883-1.7809-3.665-1.6304-5.278-3.3617-5.881-5.4763 3.451-10.931 12.367-20.40445 13.376-21.45857ZM135.57 24.7157c-.189 4.1821.948 7.5294 7.109 10.2699.904.3918 1.75.9126 2.513 1.5472 4.004 3.3928 4.347 8.5258 4.74 14.4687l.007.1152c-3.16-1.0405-12.673-5.0577-13.901-15.8189-.028-.2876-.205-.5371-.462-.6528-.257-.1156-.554-.0795-.778.0946-.223.174-.339.459-.302.7454.994 8.7107 6.929 13.3386 11.312 15.6029-5.418-.7291-9.208-2.7429-11.3-6.0165-2.894-4.5287-2.518-11.7546 1.062-20.3557Z" fill="#5773ED"/><path d="M142.921 25.2642c.778.3493 1.618.527 2.466.5219.43-.001.858-.0417 1.28-.1217.8-.1497 1.068-.7107 1.475-1.56.434-.9229.92-1.8193 1.454-2.6845.877-1.4319.045-2.2211-.233-2.4292-1.166-.8308-2.561-1.2543-3.978-1.2086-.593-.0681-1.181.1622-1.58.6187-1.006 1.3933-1.74 2.9744-2.162 4.6559-.115.4354-.225 1.5216 1.278 2.2075Zm2.078-5.8533c.108-.0242.219-.0337.329-.028h.05c1.081-.0437 2.148.2643 3.049.8805-.034.1057-.082.2062-.143.2985-.562.9126-1.073 1.8578-1.53 2.831-.104.2395-.224.4711-.36.6931-.954.2-1.943.1004-2.842-.2857-.298-.1369-.402-.2593-.406-.3154.361-1.4672.99-2.85 1.853-4.074Z" fill="#5773ED"/><path d="M141.093 52.344c1.325 0 2.473.1213 3.444.364.989.224 1.754.6627 2.296 1.316.541.6533.812 1.5867.812 2.8 0 .7467-.094 1.4373-.28 2.072-.168.616-.486 1.26-.952 1.932-.448.672-1.102 1.4653-1.96 2.38l-5.068 5.236c.466-.0747.933-.1213 1.4-.14.485-.0373.97-.056 1.456-.056h5.964V72h-13.832v-2.296c0-.336.046-.644.14-.924.093-.28.252-.5507.476-.812l4.816-5.152c1.138-1.176 2.006-2.2213 2.604-3.136.597-.9147.886-1.7173.868-2.408-.019-.5973-.252-.9707-.7-1.12-.43-.1493-1.083-.224-1.96-.224-.654 0-1.27.0093-1.848.028-.56.0187-1.158.0467-1.792.084-.635.0187-1.382.0653-2.24.14l-.196-3.164c1.381-.28 2.566-.4573 3.556-.532 1.008-.0933 2.006-.14 2.996-.14Zm22.037.336-.14 3.22h-8.036l-.224 3.64 2.828.308c1.568.1493 2.8.504 3.696 1.064.896.5413 1.531 1.2507 1.904 2.128.373.8773.56 1.8947.56 3.052 0 .84-.103 1.6333-.308 2.38-.205.7467-.56 1.4187-1.064 2.016-.485.5787-1.176 1.036-2.072 1.372-.877.3173-1.988.476-3.332.476-.896 0-1.913-.056-3.052-.168-1.12-.0933-2.259-.2427-3.416-.448l.392-3.248c.915.112 1.801.196 2.66.252.877.056 1.652.084 2.324.084.989 0 1.736-.1027 2.24-.308.523-.2053.877-.5133 1.064-.924.205-.4293.317-.9613.336-1.596.037-.8213-.093-1.428-.392-1.82-.299-.392-.793-.6627-1.484-.812-.672-.168-1.577-.2893-2.716-.364l-2.408-.252c-.392-.056-.709-.224-.952-.504s-.355-.616-.336-1.008l.504-8.54h11.424Z" fill="#fff"/><rect y="132.866" width="135.217" height="135.217" rx="64" fill="#2D50EA"/><path d="M37.035 216.487c.4693 0 .9423.004 1.419.011.484.008.946.033 1.386.077l-.033.66H37.42c-.4327 0-.649.22-.649.66v3.971h-.924v-4.213c0-.777.396-1.166 1.188-1.166Zm6.0954-.11c.616 0 1.1073.092 1.474.275.3666.184.6306.484.792.902.1686.411.253.957.253 1.639s-.0844 1.232-.253 1.65c-.1614.411-.4254.708-.792.891-.3667.184-.858.275-1.474.275s-1.111-.091-1.485-.275c-.3667-.183-.6344-.48-.803-.891-.1614-.418-.242-.968-.242-1.65 0-.682.0806-1.228.242-1.639.1686-.418.4363-.718.803-.902.374-.183.869-.275 1.485-.275Zm0 .792c-.3887 0-.6967.063-.924.187-.2274.118-.3887.323-.484.616-.0954.294-.143.701-.143 1.221 0 .521.0476.928.143 1.221.0953.294.2566.503.484.627.2273.118.5353.176.924.176.3886 0 .693-.058.913-.176.2273-.124.3886-.333.484-.627.0953-.293.143-.7.143-1.221 0-.52-.0477-.927-.143-1.221-.0954-.293-.2567-.498-.484-.616-.22-.124-.5244-.187-.913-.187Zm6.2952-.792c.242 0 .5243.019.847.055.3226.03.616.096.88.198l-.121.605c-.242-.022-.4987-.036-.77-.044-.264-.014-.4914-.022-.682-.022-.418 0-.7554.059-1.012.176-.2494.118-.429.323-.539.616-.11.294-.165.701-.165 1.221 0 .521.055.932.165 1.232.11.294.2896.499.539.616.2566.118.594.176 1.012.176.1686 0 .407-.007.715-.022.308-.014.5976-.044.869-.088l.088.627c-.264.096-.5574.165-.88.209-.3154.044-.6307.066-.946.066-.616 0-1.111-.091-1.485-.275-.374-.183-.6454-.48-.814-.891-.1614-.41-.242-.96-.242-1.65 0-.689.0806-1.239.242-1.65.1686-.41.44-.704.814-.88.374-.183.869-.275 1.485-.275Zm4.061.132v1.595c0 .213-.0183.418-.055.616h.748c.352 0 .6344-.088.847-.264.2127-.176.396-.429.55-.759.1614-.33.33-.726.506-1.188h.968c-.198.528-.3813.976-.55 1.342-.1686.367-.3666.649-.594.847-.22.198-.5206.319-.902.363v.033c.4034.037.7224.158.957.363.2347.198.4437.495.627.891.1834.389.3887.895.616 1.518h-.979c-.22-.579-.4143-1.045-.583-1.397-.1686-.359-.363-.619-.583-.781-.2126-.168-.506-.249-.88-.242h-.737c.0294.184.044.356.044.517v1.903h-.935v-5.357h.935Zm7.1965-.132c.616 0 1.1073.092 1.474.275.3667.184.6307.484.792.902.1687.411.253.957.253 1.639s-.0843 1.232-.253 1.65c-.1613.411-.4253.708-.792.891-.3667.184-.858.275-1.474.275s-1.111-.091-1.485-.275c-.3667-.183-.6343-.48-.803-.891-.1613-.418-.242-.968-.242-1.65 0-.682.0807-1.228.242-1.639.1687-.418.4363-.718.803-.902.374-.183.869-.275 1.485-.275Zm0 .792c-.3887 0-.6967.063-.924.187-.2273.118-.3887.323-.484.616-.0953.294-.143.701-.143 1.221 0 .521.0477.928.143 1.221.0953.294.2567.503.484.627.2273.118.5353.176.924.176.3887 0 .693-.058.913-.176.2273-.124.3887-.333.484-.627.0953-.293.143-.7.143-1.221 0-.52-.0477-.927-.143-1.221-.0953-.293-.2567-.498-.484-.616-.22-.124-.5243-.187-.913-.187Zm4.9312-.66v2.156h2.816v-2.156h.924v5.357h-.924v-2.486h-2.816v2.486h-.924v-5.357h.924Zm9.7133 0v.77h-1.936v4.587h-.935v-4.587h-1.947v-.77h4.818Zm1.9276 0 .088.847c.2933-.3.638-.539 1.034-.715.4033-.176.7957-.264 1.177-.264.66 0 1.133.242 1.419.726.286.477.429 1.181.429 2.112 0 .69-.0733 1.24-.22 1.65-.1467.404-.3703.693-.671.869-.3007.176-.6783.264-1.133.264-.352 0-.7003-.044-1.045-.132-.3373-.095-.6527-.234-.946-.418.0147.184.0257.36.033.528.0073.176.0073.36 0 .55v1.551h-.924v-7.568h.759Zm2.002.682c-.2933 0-.583.07-.869.209-.2787.132-.6013.338-.968.616v2.849c.3373.088.6343.165.891.231.264.059.539.088.825.088.3153 0 .5647-.055.748-.165.1907-.11.33-.308.418-.594.088-.286.132-.689.132-1.21 0-.762-.0917-1.29-.275-1.584-.176-.293-.4767-.44-.902-.44Zm6.1821-.814c.594 0 1.045.125 1.353.374.3153.242.473.69.473 1.342v3.773h-.737l-.11-.88c-.1393.14-.319.286-.539.44-.22.147-.473.275-.759.385-.2787.103-.583.154-.913.154-.4767 0-.8617-.128-1.155-.385-.2933-.256-.44-.627-.44-1.111v-.583c0-.418.1283-.74.385-.968.264-.234.6307-.352 1.1-.352h2.233v-.473c-.0073-.33-.0843-.564-.231-.704-.1467-.146-.4327-.22-.858-.22-.286 0-.6417.015-1.067.044-.418.03-.8323.063-1.243.099l-.088-.693c.374-.058.7993-.113 1.276-.165.4767-.051.9167-.077 1.32-.077Zm-1.045 4.785c.264.008.572-.055.924-.187.3593-.139.6967-.348 1.012-.627v-1.078l-2.068.011c-.2567.008-.44.077-.55.209-.1027.125-.154.301-.154.528v.341c0 .279.066.484.198.616.1393.125.352.187.638.187Zm5.5083-4.653v1.595c0 .213-.0183.418-.055.616h.748c.352 0 .6344-.088.847-.264.2127-.176.396-.429.55-.759.1614-.33.33-.726.506-1.188h.968c-.198.528-.3813.976-.55 1.342-.1686.367-.3666.649-.594.847-.22.198-.5206.319-.902.363v.033c.4034.037.7224.158.957.363.2347.198.4437.495.627.891.1834.389.3887.895.616 1.518h-.979c-.22-.579-.4143-1.045-.583-1.397-.1686-.359-.363-.619-.583-.781-.2126-.168-.506-.249-.88-.242h-.737c.0294.184.044.356.044.517v1.903h-.935v-5.357h.935Zm9.1975 0v.77h-1.936v4.587h-.935v-4.587h-1.947v-.77h4.818Zm3.3489-.132c.616 0 1.107.092 1.474.275.366.184.63.484.792.902.168.411.253.957.253 1.639s-.085 1.232-.253 1.65c-.162.411-.426.708-.792.891-.367.184-.858.275-1.474.275s-1.111-.091-1.485-.275c-.367-.183-.635-.48-.803-.891-.1616-.418-.2423-.968-.2423-1.65 0-.682.0807-1.228.2423-1.639.168-.418.436-.718.803-.902.374-.183.869-.275 1.485-.275Zm0 .792c-.389 0-.697.063-.924.187-.228.118-.389.323-.484.616-.096.294-.143.701-.143 1.221 0 .521.047.928.143 1.221.095.294.256.503.484.627.227.118.535.176.924.176.388 0 .693-.058.913-.176.227-.124.388-.333.484-.627.095-.293.143-.7.143-1.221 0-.52-.048-.927-.143-1.221-.096-.293-.257-.498-.484-.616-.22-.124-.525-.187-.913-.187Zm6.185-.715c.557 0 .997.041 1.32.121.33.081.568.224.715.429.147.206.22.499.22.88 0 .382-.092.671-.275.869-.176.191-.469.305-.88.341v.033c.499.037.847.176 1.045.418.198.235.297.569.297 1.001 0 .367-.073.653-.22.858-.139.198-.367.338-.682.418-.308.081-.722.121-1.243.121-.374 0-.7-.003-.979-.011-.279 0-.535-.007-.77-.022-.227-.007-.469-.018-.726-.033v-5.357c.227-.022.444-.036.649-.044.205-.007.429-.011.671-.011.242-.007.528-.011.858-.011Zm-.033.737h-.693c-.213-.007-.403-.007-.572 0v1.584h1.408c.462 0 .785-.055.968-.165.191-.11.286-.326.286-.649 0-.308-.103-.513-.308-.616-.205-.102-.568-.154-1.089-.154Zm.143 2.255h-1.408v1.749c.198.008.418.011.66.011h.803c.499 0 .847-.055 1.045-.165.198-.117.297-.348.297-.693 0-.344-.103-.579-.308-.704-.205-.132-.568-.198-1.089-.198Zm-70.697 10.008c.5573 0 .9973.041 1.32.121.33.081.5683.224.715.429.1467.206.22.499.22.88 0 .382-.0917.671-.275.869-.176.191-.4693.305-.88.341v.033c.4987.037.847.176 1.045.418.198.235.297.569.297 1.001 0 .367-.0733.653-.22.858-.1393.198-.3667.338-.682.418-.308.081-.7223.121-1.243.121-.374 0-.7003-.003-.979-.011-.2787 0-.5353-.007-.77-.022-.2273-.007-.4693-.018-.726-.033v-5.357c.2273-.022.4437-.036.649-.044.2053-.007.429-.011.671-.011.242-.007.528-.011.858-.011Zm-.033.737h-.693c-.2127-.007-.4033-.007-.572 0v1.584h1.408c.462 0 .7847-.055.968-.165.1907-.11.286-.326.286-.649 0-.308-.1027-.513-.308-.616-.2053-.102-.5683-.154-1.089-.154Zm.143 2.255h-1.408v1.749c.198.008.418.011.66.011h.803c.4987 0 .847-.055 1.045-.165.198-.117.297-.348.297-.693 0-.344-.1027-.579-.308-.704-.2053-.132-.5683-.198-1.089-.198Zm5.9808-.858c.5354 0 .9534.052 1.254.154.3007.103.5134.279.638.528.132.242.198.572.198.99 0 .433-.066.774-.198 1.023-.132.242-.341.411-.627.506-.286.096-.66.143-1.122.143-.352 0-.6563-.003-.913-.011-.2566 0-.4913-.007-.704-.022-.2126-.007-.4363-.018-.671-.033h-.033v-5.357h.913v2.079h1.265Zm4.015-2.079v5.357h-.946v-5.357h.946Zm-4.015 2.772h-1.265v1.903c.3447.008.7664.011 1.265.011.4254 0 .7224-.062.891-.187.1687-.124.253-.385.253-.781 0-.352-.0806-.597-.242-.737-.154-.139-.4546-.209-.902-.209Zm10.3368-2.772v5.357h-.924v-4.598h-2.75v4.598h-.913v-5.357h4.587Zm4.0171-.132c.616 0 1.1073.092 1.474.275.3667.184.6307.484.792.902.1687.411.253.957.253 1.639s-.0843 1.232-.253 1.65c-.1613.411-.4253.708-.792.891-.3667.184-.858.275-1.474.275s-1.111-.091-1.485-.275c-.3667-.183-.6343-.48-.803-.891-.1613-.418-.242-.968-.242-1.65 0-.682.0807-1.228.242-1.639.1687-.418.4363-.718.803-.902.374-.183.869-.275 1.485-.275Zm0 .792c-.3887 0-.6967.063-.924.187-.2273.118-.3887.323-.484.616-.0953.294-.143.701-.143 1.221 0 .521.0477.928.143 1.221.0953.294.2567.503.484.627.2273.118.5353.176.924.176.3887 0 .693-.058.913-.176.2273-.124.3887-.333.484-.627.0953-.293.143-.7.143-1.221 0-.52-.0477-.927-.143-1.221-.0953-.293-.2567-.498-.484-.616-.22-.124-.5243-.187-.913-.187Zm8.3542-.66v5.357h-.935v-4.62h-1.166c-.2273 0-.3923.052-.495.154-.0953.096-.1613.268-.198.517-.0586.484-.1246.983-.198 1.496-.0733.506-.1796.946-.319 1.32-.2713.785-.8323 1.181-1.683 1.188l-.099-.715c.3007-.073.5134-.168.638-.286.132-.117.2347-.271.308-.462.0954-.234.1724-.513.231-.836.0587-.322.1064-.649.143-.979.044-.337.077-.63.099-.88.0514-.41.1834-.722.396-.935.22-.212.5537-.319 1.001-.319h2.277Zm2.6678 0v2.156h2.816v-2.156h.924v5.357h-.924v-2.486h-2.816v2.486h-.924v-5.357h.924Zm7.6783-.132c.8067 0 1.3897.147 1.749.44.3667.294.5537.73.561 1.309 0 .477-.1026.851-.308 1.122-.198.264-.5206.396-.968.396h-2.497c.0294.426.1064.752.231.979.132.22.3154.374.55.462.2347.081.5354.121.902.121.2934 0 .6087-.011.946-.033.3447-.029.6527-.062.924-.099l.088.627c-.1613.066-.3666.121-.616.165-.2493.044-.506.077-.77.099-.2566.022-.4876.033-.693.033-.6086 0-1.1036-.091-1.485-.275-.374-.19-.6453-.491-.814-.902-.1686-.418-.253-.968-.253-1.65 0-.704.0844-1.257.253-1.661.176-.41.4437-.7.803-.869.3594-.176.825-.264 1.397-.264Zm.044.792c-.374 0-.671.052-.891.154-.2126.103-.3703.283-.473.539-.0953.25-.1503.602-.165 1.056h2.277c.2347 0 .3887-.08.462-.242.0807-.168.1174-.352.11-.55 0-.344-.099-.59-.297-.737-.198-.146-.539-.22-1.023-.22Zm4.6205-.66v2.156h2.816v-2.156h.924v5.357h-.924v-2.486h-2.816v2.486h-.924v-5.357h.924Zm7.7553-.132c.616 0 1.1074.092 1.474.275.3667.184.6307.484.792.902.1687.411.253.957.253 1.639s-.0843 1.232-.253 1.65c-.1613.411-.4253.708-.792.891-.3666.184-.858.275-1.474.275s-1.111-.091-1.485-.275c-.3666-.183-.6343-.48-.803-.891-.1613-.418-.242-.968-.242-1.65 0-.682.0807-1.228.242-1.639.1687-.418.4364-.718.803-.902.374-.183.869-.275 1.485-.275Zm0 .792c-.3886 0-.6966.063-.924.187-.2273.118-.3886.323-.484.616-.0953.294-.143.701-.143 1.221 0 .521.0477.928.143 1.221.0954.294.2567.503.484.627.2274.118.5354.176.924.176.3887 0 .693-.058.913-.176.2274-.124.3887-.333.484-.627.0954-.293.143-.7.143-1.221 0-.52-.0476-.927-.143-1.221-.0953-.293-.2566-.498-.484-.616-.22-.124-.5243-.187-.913-.187ZM41.52 185.546v19.32h-4.256v-13.72c0-.336.0093-.672.028-1.008.0187-.354.0747-.709.168-1.064l-4.592 1.176-.532-2.772 4.928-1.932h4.256Zm11.3019-.336c1.848 0 3.2574.187 4.228.56.9894.355 1.6614.915 2.016 1.68.3547.747.532 1.718.532 2.912 0 1.12-.224 2.11-.672 2.968-.448.859-1.1853 1.344-2.212 1.456v.112c.896.075 1.5774.355 2.044.84.4854.467.8214 1.074 1.008 1.82.2054.747.308 1.578.308 2.492 0 1.232-.2053 2.231-.616 2.996-.392.747-1.1106 1.298-2.156 1.652-1.0453.336-2.5386.504-4.48.504-1.9226 0-3.4066-.168-4.452-.504-1.0453-.354-1.7733-.905-2.184-1.652-.4106-.765-.616-1.764-.616-2.996 0-.914.0934-1.745.28-2.492.1867-.746.5227-1.353 1.008-1.82.504-.485 1.1947-.765 2.072-.84v-.112c-1.0266-.112-1.764-.597-2.212-1.456-.448-.858-.672-1.848-.672-2.968 0-1.194.1774-2.165.532-2.912.3734-.765 1.0454-1.325 2.016-1.68.9894-.373 2.3987-.56 4.228-.56Zm.028 2.94c-.8026 0-1.4186.084-1.848.252-.4293.15-.728.42-.896.812-.1493.392-.224.943-.224 1.652 0 .71.084 1.251.252 1.624.168.355.4667.598.896.728.4294.131 1.0547.196 1.876.196.8027 0 1.4094-.065 1.82-.196.4107-.13.6814-.382.812-.756.1494-.373.224-.905.224-1.596 0-.709-.0746-1.26-.224-1.652-.1493-.392-.4386-.662-.868-.812-.4106-.168-1.0173-.252-1.82-.252Zm.028 8.092c-.896.019-1.5866.112-2.072.28-.4666.15-.7933.439-.98.868-.168.43-.252 1.046-.252 1.848 0 .728.084 1.298.252 1.708.1867.392.5134.672.98.84.4854.15 1.1667.224 2.044.224.8774 0 1.54-.074 1.988-.224.4667-.168.784-.448.952-.84.168-.41.252-.98.252-1.708 0-.821-.084-1.446-.252-1.876-.168-.429-.4853-.718-.952-.868-.448-.168-1.1013-.252-1.96-.252Z" fill="#fff"/><g opacity=".2" clip-path="url(#a)" fill="#fff"><path d="M102.298 184.551c-2.3254-3.318-6.0542-5.284-10.0243-5.284-3.9701 0-7.6989 1.966-10.0244 5.284-.0211.025-.0405.052-.0582.08-3.1055 4.44-3.1055 10.431 0 14.871.018.028.0377.055.059.08 2.3284 3.321 6.0627 5.287 10.0371 5.283 3.9744-.005 7.7048-1.978 10.0268-5.305.034-.038.065-.08.091-.125 3.059-4.438 3.04-10.391-.047-14.808-.019-.026-.039-.052-.06-.076Zm-.871 13.516c-.914-.296-1.8473-.525-2.7927-.684.3538-1.48.5546-2.993.5989-4.516h3.8608c-.126 1.849-.699 3.637-1.667 5.2Zm-19.9744-5.2h3.8608c.0425 1.521.2412 3.034.5927 4.513-.9454.159-1.8786.388-2.7926.683-.9653-1.562-1.5362-3.348-1.6609-5.196Zm1.6671-6.8c.914.296 1.8472.524 2.7926.684-.3538 1.479-.5546 2.993-.5989 4.516h-3.8608c.126-1.85.6991-3.637 1.6671-5.2Zm9.9293 1.187c1.3482-.02 2.6945-.111 4.0339-.271.3505 1.401.5518 2.838.6004 4.284H93.049v-4.013Zm0-1.6v-4.653c1.4359.446 2.7066 2.097 3.556 4.427-1.1202.126-2.3148.203-3.556.226Zm-1.5514-4.653v4.653c-1.2412-.023-2.4358-.1-3.556-.226.8495-2.33 2.1201-3.981 3.556-4.427Zm0 6.253v4.013h-4.6342c.0478-1.446.2483-2.883.598-4.284 1.3402.16 2.6872.251 4.0362.271Zm-4.6342 5.613h4.6342v4.013c-1.3482.02-2.6945.111-4.0338.271-.3505-1.401-.5519-2.838-.6004-4.284Zm4.6342 5.612v4.654c-1.4359-.446-2.7065-2.098-3.556-4.427 1.1202-.127 2.3148-.203 3.556-.227Zm1.5514 4.654v-4.654c1.2412.024 2.4358.1 3.556.227-.8494 2.329-2.1201 3.981-3.556 4.427Zm0-6.253v-4.013h4.6343c-.0479 1.446-.2484 2.882-.5981 4.284-1.3401-.16-2.6872-.251-4.0362-.271Zm6.1842-5.613c-.0425-1.522-.2412-3.034-.5927-4.513.9454-.159 1.8785-.388 2.7925-.684.965 1.563 1.536 3.349 1.661 5.197h-3.8608Zm1.2078-6.56c-.7404.208-1.4914.374-2.2496.497-.408-1.252-1.006-2.428-1.7718-3.486 1.5452.665 2.9211 1.688 4.0214 2.989Zm-12.3132-2.988c-.7658 1.058-1.3638 2.235-1.7718 3.487-.7582-.123-1.5092-.289-2.2496-.497 1.1003-1.302 2.4762-2.325 4.0214-2.99Zm-4.0222 17.708c.7404-.209 1.4915-.375 2.2497-.497.4079 1.251 1.0059 2.428 1.7717 3.486-1.5451-.665-2.9211-1.688-4.0214-2.989Zm12.3132 2.989c.7658-1.058 1.3639-2.235 1.7718-3.486.7582.122 1.5092.288 2.2494.497-1.1002 1.301-2.4762 2.323-4.0212 2.988v.001Z"/><path d="M102.221 178.227c-1.816-2.025-3.4518-4.215-4.8875-6.542-1.7417-3.114-3.0672-6.457-3.9407-9.937-.1458-.523-.6102-.883-1.1378-.882-.5276.001-.9905.363-1.1343.887-.873 3.478-2.1975 6.818-3.9376 9.931-1.4357 2.327-3.0714 4.516-4.8871 6.542-.3755.445-.7497.891-1.1225 1.337-1.9479 2.348-3.9175 4.938-4.7421 8.486-1.5456 6.83 1.1378 13.938 6.7551 17.893 2.6679 1.884 5.821 2.903 9.0543 2.924h.0326c3.2332-.021 6.3863-1.039 9.0546-2.922 5.618-3.955 8.303-11.064 6.757-17.895-.824-3.548-2.792-6.138-4.743-8.486-.37-.447-.746-.892-1.121-1.336Zm-1.767 26.399c-2.4109 1.702-5.2596 2.621-8.1806 2.64h-.0163c-2.9274-.018-5.7825-.939-8.1979-2.645-5.0871-3.579-7.5184-10.015-6.1205-16.2.7439-3.2 2.587-5.618 4.4116-7.818.3684-.443.7416-.885 1.1147-1.326 1.8794-2.098 3.571-4.366 5.0539-6.778 1.5989-2.84 2.8543-5.871 3.7382-9.026.8846 3.155 2.1405 6.187 3.7398 9.026 1.4821 2.413 3.1735 4.681 5.0531 6.778.373.441.744.884 1.114 1.326 1.825 2.2 3.668 4.615 4.412 7.818 1.4 6.188-1.033 12.626-6.122 16.205Z"/></g><rect x="185.923" y="168.783" width="135.217" height="135.217" rx="64" fill="#2D50E9"/><path d="M222.875 238.127c1.325 0 2.473.122 3.444.364.989.224 1.755.663 2.296 1.316.541.654.812 1.587.812 2.8 0 .747-.093 1.438-.28 2.072-.168.616-.485 1.26-.952 1.932-.448.672-1.101 1.466-1.96 2.38l-5.068 5.236c.467-.074.933-.121 1.4-.14.485-.037.971-.056 1.456-.056h5.964v3.752h-13.832v-2.296c0-.336.047-.644.14-.924.093-.28.252-.55.476-.812l4.816-5.152c1.139-1.176 2.007-2.221 2.604-3.136.597-.914.887-1.717.868-2.408-.019-.597-.252-.97-.7-1.12-.429-.149-1.083-.224-1.96-.224-.653 0-1.269.01-1.848.028-.56.019-1.157.047-1.792.084-.635.019-1.381.066-2.24.14l-.196-3.164c1.381-.28 2.567-.457 3.556-.532 1.008-.093 2.007-.14 2.996-.14Zm22.961 4.088v8.288h2.352v2.548l-2.352.392v4.34h-3.92v-4.34h-7.896c-.522 0-.97-.14-1.344-.42-.373-.28-.625-.644-.756-1.092-.112-.466-.065-.942.14-1.428l5.096-12.04h4.004l-4.648 11.116c-.13.299-.14.532-.028.7.131.15.336.224.616.224h4.816v-5.208l.7-3.08h3.22Zm12.005-4.144c1.848 0 3.313.327 4.396.98 1.101.654 1.885 1.718 2.352 3.192.485 1.456.728 3.416.728 5.88s-.243 4.434-.728 5.908c-.467 1.456-1.251 2.511-2.352 3.164-1.083.635-2.548.952-4.396.952-1.848 0-3.323-.317-4.424-.952-1.083-.653-1.858-1.708-2.324-3.164-.467-1.474-.7-3.444-.7-5.908 0-2.464.233-4.424.7-5.88.466-1.474 1.241-2.538 2.324-3.192 1.101-.653 2.576-.98 4.424-.98Zm-.028 3.332c-.822 0-1.466.196-1.932.588-.467.374-.794 1.046-.98 2.016-.187.952-.28 2.324-.28 4.116 0 1.792.093 3.174.28 4.144.186.952.513 1.615.98 1.988.466.374 1.11.56 1.932.56.84 0 1.493-.186 1.96-.56.485-.373.821-1.036 1.008-1.988.205-.97.308-2.352.308-4.144 0-1.792-.103-3.164-.308-4.116-.187-.97-.523-1.642-1.008-2.016-.467-.392-1.12-.588-1.96-.588Zm21.248-2.94c.691 0 1.204.215 1.54.644.336.43.402.971.196 1.624l-5.908 17.052h-4.2l4.956-14.028c.094-.317.206-.625.336-.924.131-.298.29-.597.476-.896h-8.876l-.168-3.472h11.648ZM232.037 265.887l1.032 2.904c.027.08.051.16.072.24.027.075.051.152.072.232h.112c.027-.08.054-.16.08-.24.027-.085.054-.162.08-.232l1.024-2.904h.728l-1.552 4.112c-.064.166-.154.36-.272.584-.117.224-.272.408-.464.552-.197.15-.418.238-.664.264-.24.032-.501.03-.784-.008l.064-.472c.171.006.336-.002.496-.024.166-.016.312-.066.44-.152.112-.08.214-.192.304-.336.096-.138.176-.29.24-.456l.072-.168h-.152c-.122 0-.205-.058-.248-.176l-1.408-3.72h.728Zm4.482 0v1.464c0 .192.04.328.12.408.086.075.222.112.408.112.214 0 .422-.018.624-.056.203-.042.427-.114.672-.216v-1.712h.68v3.896h-.68v-1.64c-.266.096-.538.168-.816.216-.272.048-.506.072-.704.072-.65 0-.976-.285-.976-.856v-1.688h.672Zm6.858 0v.56h-1.408v3.336h-.68v-3.336h-1.416v-.56h3.504Zm2.69-.096c.432 0 .76.091.984.272.229.176.344.502.344.976v2.744h-.536l-.08-.64c-.101.102-.232.208-.392.32-.16.107-.344.2-.552.28-.203.075-.424.112-.664.112-.347 0-.627-.093-.84-.28-.213-.186-.32-.456-.32-.808v-.424c0-.304.093-.538.28-.704.192-.17.459-.256.8-.256h1.624v-.344c-.005-.24-.061-.41-.168-.512-.107-.106-.315-.16-.624-.16-.208 0-.467.011-.776.032-.304.022-.605.046-.904.072l-.064-.504c.272-.042.581-.082.928-.12.347-.037.667-.056.96-.056Zm-.76 3.48c.192.006.416-.04.672-.136.261-.101.507-.253.736-.456v-.784l-1.504.008c-.187.006-.32.056-.4.152-.075.091-.112.219-.112.384v.248c0 .203.048.352.144.448.101.091.256.136.464.136Zm3.998-3.384v1.568h2.048v-1.568h.672v3.896h-.672v-1.808h-2.048v1.808h-.672v-3.896h.672Zm5.64-.096c.448 0 .806.067 1.072.2.267.134.459.352.576.656.123.299.184.696.184 1.192s-.061.896-.184 1.2c-.117.299-.309.515-.576.648-.266.134-.624.2-1.072.2-.448 0-.808-.066-1.08-.2-.266-.133-.461-.349-.584-.648-.117-.304-.176-.704-.176-1.2s.059-.893.176-1.192c.123-.304.318-.522.584-.656.272-.133.632-.2 1.08-.2Zm0 .576c-.282 0-.506.046-.672.136-.165.086-.282.235-.352.448-.069.214-.104.51-.104.888 0 .379.035.675.104.888.07.214.187.366.352.456.166.086.39.128.672.128.283 0 .504-.042.664-.128.166-.09.283-.242.352-.456.07-.213.104-.509.104-.888 0-.378-.034-.674-.104-.888-.069-.213-.186-.362-.352-.448-.16-.09-.381-.136-.664-.136Zm4.499-.52c.405 0 .725.03.96.088.24.059.413.163.52.312.106.15.16.363.16.64 0 .278-.067.488-.2.632-.128.139-.342.222-.64.248v.024c.362.027.616.128.76.304.144.171.216.414.216.728 0 .267-.054.475-.16.624-.102.144-.267.246-.496.304-.224.059-.526.088-.904.088-.272 0-.51-.002-.712-.008-.203 0-.39-.005-.56-.016-.166-.005-.342-.013-.528-.024v-3.896c.165-.016.322-.026.472-.032.149-.005.312-.008.488-.008.176-.005.384-.008.624-.008Zm-.024.536h-.504c-.155-.005-.294-.005-.416 0v1.152h1.024c.336 0 .57-.04.704-.12.138-.08.208-.237.208-.472 0-.224-.075-.373-.224-.448-.15-.074-.414-.112-.792-.112Zm.104 1.64H258.5v1.272c.144.006.304.008.48.008h.584c.362 0 .616-.04.76-.12.144-.085.216-.253.216-.504 0-.25-.075-.421-.224-.512-.15-.096-.414-.144-.792-.144Zm5.989-2.136v3.896h-.68v-3.36h-.848c-.165 0-.285.038-.36.112-.069.07-.117.195-.144.376-.042.352-.09.715-.144 1.088-.053.368-.13.688-.232.96-.197.571-.605.859-1.224.864l-.072-.52c.219-.053.374-.122.464-.208.096-.085.171-.197.224-.336.07-.17.126-.373.168-.608.043-.234.078-.472.104-.712.032-.245.056-.458.072-.64.038-.298.134-.525.288-.68.16-.154.403-.232.728-.232h1.656Zm2.868-.096c.587 0 1.011.107 1.272.32.267.214.403.531.408.952 0 .347-.074.619-.224.816-.144.192-.378.288-.704.288h-1.816c.022.31.078.547.168.712.096.16.23.272.4.336.171.059.39.088.656.088.214 0 .443-.008.688-.024.251-.021.475-.045.672-.072l.064.456c-.117.048-.266.088-.448.12-.181.032-.368.056-.56.072-.186.016-.354.024-.504.024-.442 0-.802-.066-1.08-.2-.272-.138-.469-.357-.592-.656-.122-.304-.184-.704-.184-1.2 0-.512.062-.914.184-1.208.128-.298.323-.509.584-.632.262-.128.6-.192 1.016-.192Zm.032.576c-.272 0-.488.038-.648.112-.154.075-.269.206-.344.392-.069.182-.109.438-.12.768h1.656c.171 0 .283-.058.336-.176.059-.122.086-.256.08-.4 0-.25-.072-.429-.216-.536-.144-.106-.392-.16-.744-.16Zm3.361-.48v1.568h2.048v-1.568h.672v3.896h-.672v-1.808h-2.048v1.808h-.672v-3.896h.672Zm5.64-.096c.448 0 .805.067 1.072.2.267.134.459.352.576.656.123.299.184.696.184 1.192s-.061.896-.184 1.2c-.117.299-.309.515-.576.648-.267.134-.624.2-1.072.2-.448 0-.808-.066-1.08-.2-.267-.133-.461-.349-.584-.648-.117-.304-.176-.704-.176-1.2s.059-.893.176-1.192c.123-.304.317-.522.584-.656.272-.133.632-.2 1.08-.2Zm0 .576c-.283 0-.507.046-.672.136-.165.086-.283.235-.352.448-.069.214-.104.51-.104.888 0 .379.035.675.104.888.069.214.187.366.352.456.165.086.389.128.672.128.283 0 .504-.042.664-.128.165-.09.283-.242.352-.456.069-.213.104-.509.104-.888 0-.378-.035-.674-.104-.888-.069-.213-.187-.362-.352-.448-.16-.09-.381-.136-.664-.136Zm-49.137 9.424c.176 0 .382.014.616.04.235.022.448.07.64.144l-.088.44c-.176-.016-.362-.026-.56-.032-.192-.01-.357-.016-.496-.016-.304 0-.549.043-.736.128-.181.086-.312.235-.392.448-.08.214-.12.51-.12.888 0 .379.04.678.12.896.08.214.211.363.392.448.187.086.432.128.736.128.123 0 .296-.005.52-.016.224-.01.435-.032.632-.064l.064.456c-.192.07-.405.12-.64.152-.229.032-.458.048-.688.048-.448 0-.808-.066-1.08-.2-.272-.133-.469-.349-.592-.648-.117-.298-.176-.698-.176-1.2 0-.501.059-.901.176-1.2.123-.298.32-.512.592-.64.272-.133.632-.2 1.08-.2Zm5.698.096v3.896h-.616v-2.584c0-.085.003-.168.008-.248.005-.085.011-.176.016-.272h-.016c-.032.075-.075.155-.128.24-.048.08-.096.152-.144.216l-1.984 2.648h-.56v-3.896h.616v2.584c0 .086-.003.171-.008.256 0 .08-.005.168-.016.264h.016c.085-.176.179-.325.28-.448l1.984-2.656h.552Zm2.935-.096c.176 0 .382.014.616.04.235.022.448.07.64.144l-.088.44c-.176-.016-.362-.026-.56-.032-.192-.01-.357-.016-.496-.016-.304 0-.549.043-.736.128-.181.086-.312.235-.392.448-.08.214-.12.51-.12.888 0 .379.04.678.12.896.08.214.211.363.392.448.187.086.432.128.736.128.123 0 .296-.005.52-.016.224-.01.435-.032.632-.064l.064.456c-.192.07-.405.12-.64.152-.229.032-.458.048-.688.048-.448 0-.808-.066-1.08-.2-.272-.133-.469-.349-.592-.648-.117-.298-.176-.698-.176-1.2 0-.501.059-.901.176-1.2.123-.298.32-.512.592-.64.272-.133.632-.2 1.08-.2Zm5.354.096v.56h-1.408v3.336h-.68v-3.336h-1.416v-.56h3.504Zm2.379-.096c.587 0 1.011.107 1.272.32.267.214.403.531.408.952 0 .347-.075.619-.224.816-.144.192-.379.288-.704.288h-1.816c.021.31.077.547.168.712.096.16.229.272.4.336.171.059.389.088.656.088.213 0 .443-.008.688-.024.251-.021.475-.045.672-.072l.064.456c-.117.048-.267.088-.448.12s-.368.056-.56.072c-.187.016-.355.024-.504.024-.443 0-.803-.066-1.08-.2-.272-.138-.469-.357-.592-.656-.123-.304-.184-.704-.184-1.2 0-.512.061-.914.184-1.208.128-.298.323-.509.584-.632.261-.128.6-.192 1.016-.192Zm.032.576c-.272 0-.488.038-.648.112-.155.075-.269.206-.344.392-.069.182-.109.438-.12.768h1.656c.171 0 .283-.058.336-.176.059-.122.085-.256.08-.4 0-.25-.072-.429-.216-.536-.144-.106-.392-.16-.744-.16Zm7.064-.48c.171 0 .256.086.256.256l.168 3.64h-.632l-.152-3.376h-.136l-.992 2.728c-.021.07-.053.126-.096.168-.042.038-.101.056-.176.056h-.528c-.074 0-.133-.018-.176-.056-.037-.042-.069-.098-.096-.168l-.992-2.728h-.136l-.144 3.376h-.624l.16-3.64c0-.17.088-.256.264-.256h.704c.134 0 .222.075.264.224l.808 2.24c.038.096.07.19.096.28.027.091.051.184.072.28h.128c.027-.101.054-.197.08-.288.027-.09.056-.181.088-.272l.808-2.24c.048-.149.139-.224.272-.224h.712Zm5.046-.096c.448 0 .805.067 1.072.2.267.134.459.352.576.656.123.299.184.696.184 1.192s-.061.896-.184 1.2c-.117.299-.309.515-.576.648-.267.134-.624.2-1.072.2-.448 0-.808-.066-1.08-.2-.267-.133-.461-.349-.584-.648-.117-.304-.176-.704-.176-1.2s.059-.893.176-1.192c.123-.304.317-.522.584-.656.272-.133.632-.2 1.08-.2Zm0 .576c-.283 0-.507.046-.672.136-.165.086-.283.235-.352.448-.069.214-.104.51-.104.888 0 .379.035.675.104.888.069.214.187.366.352.456.165.086.389.128.672.128.283 0 .504-.042.664-.128.165-.09.283-.242.352-.456.069-.213.104-.509.104-.888 0-.378-.035-.674-.104-.888-.069-.213-.187-.362-.352-.448-.16-.09-.381-.136-.664-.136Zm3.394-.48v1.464c0 .192.04.328.12.408.086.075.222.112.408.112.214 0 .422-.018.624-.056.203-.042.427-.114.672-.216v-1.712h.68v3.896h-.68v-1.64c-.266.096-.538.168-.816.216-.272.048-.506.072-.704.072-.65 0-.976-.285-.976-.856v-1.688h.672Zm7.202 0v3.896h-.616v-2.584c0-.085.003-.168.008-.248.006-.085.011-.176.016-.272h-.016c-.032.075-.074.155-.128.24-.048.08-.096.152-.144.216l-1.984 2.648h-.56v-3.896h.616v2.584c0 .086-.002.171-.008.256 0 .08-.005.168-.016.264h.016c.086-.176.179-.325.28-.448l1.984-2.656h.552Zm2.936-.096c.176 0 .381.014.616.04.234.022.448.07.64.144l-.088.44c-.176-.016-.363-.026-.56-.032-.192-.01-.358-.016-.496-.016-.304 0-.55.043-.736.128-.182.086-.312.235-.392.448-.08.214-.12.51-.12.888 0 .379.04.678.12.896.08.214.21.363.392.448.186.086.432.128.736.128.122 0 .296-.005.52-.016.224-.01.434-.032.632-.064l.064.456c-.192.07-.406.12-.64.152-.23.032-.459.048-.688.048-.448 0-.808-.066-1.08-.2-.272-.133-.47-.349-.592-.648-.118-.298-.176-.698-.176-1.2 0-.501.058-.901.176-1.2.122-.298.32-.512.592-.64.272-.133.632-.2 1.08-.2Zm5.353.096v.56h-1.408v3.336h-.68v-3.336h-1.416v-.56h3.504Zm1.522 0v1.16c0 .155-.013.304-.04.448h.544c.256 0 .461-.064.616-.192.155-.128.288-.312.4-.552.117-.24.24-.528.368-.864h.704c-.144.384-.277.71-.4.976-.123.267-.267.472-.432.616-.16.144-.379.232-.656.264v.024c.293.027.525.115.696.264.171.144.323.36.456.648.133.283.283.651.448 1.104h-.712c-.16-.421-.301-.76-.424-1.016-.123-.261-.264-.45-.424-.568-.155-.122-.368-.181-.64-.176h-.536c.021.134.032.259.032.376v1.384h-.68v-3.896h.68Zm7.033 0v3.896h-.616v-2.584c0-.085.003-.168.008-.248.005-.085.011-.176.016-.272h-.016c-.032.075-.075.155-.128.24-.048.08-.096.152-.144.216l-1.984 2.648h-.56v-3.896h.616v2.584c0 .086-.003.171-.008.256 0 .08-.005.168-.016.264h.016c.085-.176.179-.325.28-.448l1.984-2.656h.552Z" fill="#fff"/><path d="M243.692 221.244c.332.516.508 1.117.508 1.731v3.625c0 1.325 1.075 2.4 2.4 2.4h7.2c.592-.002 1.163-.225 1.6-.624.437.399 1.008.622 1.6.624h7.2c1.325 0 2.4-1.075 2.4-2.4v-3.625c0-.613.176-1.214.508-1.73l5.549-8.631c.747-1.162 1.144-2.513 1.143-3.894V195.4c0-1.767-1.433-3.2-3.2-3.2-1.767 0-3.2 1.433-3.2 3.2v2.459c-3.161-8.441-9.994-15.452-10.978-16.433-.274-.275-.648-.429-1.036-.426-.38.001-.743.155-1.008.426-1.59 1.622-3.079 3.34-4.458 5.145-.667-1.499-.982-3.131-.92-4.771 0-.442-.358-.8-.8-.8-.442 0-.8.358-.8.8 0 7.44-4.601 7.6-4.806 7.6h-.008c-.442.002-.798.363-.796.804.002.442.363.798.804.796 1.275.106 2.444.751 3.212 1.774-.927 1.628-1.731 3.322-2.406 5.069V195.4c0-1.767-1.433-3.2-3.2-3.2-1.767 0-3.2 1.433-3.2 3.2v13.32c-.001 1.381.396 2.733 1.144 3.894l5.548 8.63ZM269 195.4c0-.884.716-1.6 1.6-1.6.884 0 1.6.716 1.6 1.6v13.32c0 1.074-.308 2.125-.889 3.029l-5.549 8.63c-.498.774-.763 1.675-.762 2.596v3.625c0 .442-.358.8-.8.8H257c-.442 0-.8-.358-.8-.8v-3.719c-.007-2.548 1.006-4.992 2.812-6.789l.25-.25c.603-.599.94-1.414.938-2.264v-6.393c1.318.287 2.682.287 4 0v3.015c0 .68.429 1.285 1.071 1.51.641.225 1.354.02 1.779-.511l1.6-2c.226-.283.35-.636.35-.999v-12.8Zm-4.8 10.112c-.644.214-1.322.311-2 .288-.678.023-1.356-.074-2-.288v-.912c0-1.105.895-2 2-2s2 .895 2 2v.912ZM245.222 190.2c1.378-.807 2.431-2.07 2.978-3.57.241.617.56 1.201.948 1.739.021.034.045.067.071.097.528.706 1.194 1.296 1.959 1.734-1.378.808-2.432 2.071-2.978 3.573-.2-.505-.451-.987-.749-1.44-.028-.054-.062-.105-.101-.151-.551-.813-1.279-1.491-2.128-1.982Zm1.504 4.216c.482 1.341.71 2.76.674 4.184 0 .442.358.8.8.8.442 0 .8-.358.8-.8 0-7.444 4.61-7.6 4.8-7.6.442 0 .8-.358.8-.8 0-.442-.358-.8-.8-.8-1.129-.07-2.185-.581-2.94-1.423 1.399-1.864 2.915-3.638 4.54-5.309 1.659 1.674 12 12.542 12 23.244 0 .173-.008.354-.015.526.003.031.008.063.015.094v1.668l-1.6 2v-5.6c0-1.988-1.612-3.6-3.6-3.6s-3.6 1.612-3.6 3.6v8.978c.001.425-.168.833-.469 1.132l-.25.251c-1.074 1.072-1.917 2.351-2.48 3.76-.563-1.409-1.407-2.688-2.48-3.76l-.251-.251c-.301-.299-.471-.707-.47-1.132V204.6c0-1.988-1.612-3.6-3.6-3.6s-3.6 1.612-3.6 3.6v5.6l-1.6-2v-3.479c.378-3.629 1.511-7.139 3.326-10.303v-.002Zm3.874 11.096c-.644.214-1.322.311-2 .288-.678.023-1.356-.074-2-.288v-.912c0-1.105.895-2 2-2s2 .895 2 2v.912Zm-12-10.112c0-.884.716-1.6 1.6-1.6.884 0 1.6.716 1.6 1.6v12.8c0 .363.124.716.35.999l1.6 2c.425.531 1.138.736 1.779.511.642-.225 1.071-.83 1.071-1.51v-3.015c1.318.287 2.682.287 4 0v6.393c-.002.85.335 1.665.938 2.264l.25.25c1.806 1.797 2.819 4.241 2.812 6.789v3.719c0 .442-.358.8-.8.8h-7.2c-.442 0-.8-.358-.8-.8v-3.625c.001-.921-.264-1.822-.762-2.596l-5.548-8.63c-.582-.904-.89-1.955-.89-3.029V195.4Z" fill="#fff" opacity=".2"/><defs><clipPath id="a"><path fill="#fff" transform="translate(68 160.866)" d="M0 0h48v48H0z"/></clipPath></defs></svg>