<svg width="268" height="56" fill="none" xmlns="http://www.w3.org/2000/svg"><path d="M58.76 50.14c0 .59-.1 1.1-.3 1.55-.2.44-.5.78-.88 1.02-.4.25-.88.37-1.45.37-.6 0-1.09-.12-1.48-.37a2.24 2.24 0 0 1-.87-1.03c-.2-.44-.3-.96-.3-1.55 0-.59.1-1.1.3-1.54.19-.44.48-.78.87-1.02.4-.25.89-.37 1.49-.37.57 0 1.05.12 1.44.37.39.24.68.58.88 1.02.2.44.3.95.3 1.55Zm-4.51 0c0 .72.15 1.28.45 1.7.3.41.78.62 1.43.62.65 0 1.12-.2 1.42-.62.3-.42.45-.98.45-1.7a2.8 2.8 0 0 0-.45-1.7c-.3-.4-.77-.6-1.41-.6-.65 0-1.13.2-1.44.6-.3.41-.45.98-.45 1.7ZM69.46 53h-.72v-2.34c-.3.1-.6.2-.87.26s-.57.1-.9.1c-.53 0-.94-.13-1.24-.37-.29-.25-.44-.61-.44-1.08v-2.28h.72v2.17c0 .31.08.55.24.7.17.15.43.22.8.22.31 0 .6-.03.84-.08.25-.06.54-.14.85-.24v-2.77h.72V53Zm7.12-5.71h.68v3.13a24.67 24.67 0 0 1-.06 1.6h.03l3.15-4.73h.8V53h-.68v-3.1a26.81 26.81 0 0 1 .07-1.65h-.03L77.38 53h-.8v-5.71Zm14.14.55c-.6 0-1.1.2-1.44.62-.36.4-.53.97-.53 1.68s.16 1.28.49 1.7c.33.4.82.6 1.48.6.25 0 .48-.01.7-.06.23-.04.45-.1.66-.16v.63a5 5 0 0 1-1.47.23c-.58 0-1.06-.12-1.45-.36a2.24 2.24 0 0 1-.88-1.02 3.9 3.9 0 0 1-.3-1.56c0-.58.11-1.09.32-1.52.21-.45.53-.8.94-1.04.4-.25.9-.37 1.5-.37s1.12.11 1.57.33l-.29.61a4.46 4.46 0 0 0-.6-.21c-.2-.07-.44-.1-.7-.1ZM100.7 53h-.72v-5.08h-1.79v-.63h4.28v.63h-1.77V53Zm12.56 0h-.72v-2.66h-2.92V53h-.72v-5.71h.72v2.41h2.92V47.3h.72V53Zm7.13 0v-5.71h.72v2.41h.88c.53 0 .95.08 1.25.22.31.14.53.34.66.58.13.25.2.52.2.83 0 .5-.16.9-.49 1.21-.32.3-.83.46-1.54.46h-1.68Zm4.59 0v-5.71h.72V53h-.72Zm-2.97-.6c.46 0 .8-.1 1.02-.27.22-.18.32-.44.32-.8 0-.37-.12-.63-.36-.77-.23-.15-.6-.22-1.08-.22h-.8v2.05h.9Zm14 .6h-3.2v-5.71h3.2v.63h-2.48v1.78h2.33v.63h-2.33v2.04H136V53Zm16.97-5.16c-.61 0-1.1.2-1.44.62-.36.4-.53.97-.53 1.68s.16 1.28.49 1.7c.32.4.82.6 1.47.6.25 0 .5-.01.72-.06.22-.04.44-.1.65-.16v.63a3.5 3.5 0 0 1-.66.17c-.22.04-.5.06-.8.06-.6 0-1.08-.12-1.47-.36a2.23 2.23 0 0 1-.88-1.02 3.9 3.9 0 0 1-.28-1.56c0-.58.1-1.09.3-1.52.22-.45.53-.8.94-1.04.41-.25.91-.37 1.5-.37.6 0 1.13.11 1.58.33l-.3.61a4.5 4.5 0 0 0-.58-.21c-.22-.07-.45-.1-.7-.1Zm13 2.3c0 .59-.1 1.1-.3 1.55-.2.44-.5.78-.89 1.02-.39.25-.87.37-1.44.37-.6 0-1.09-.12-1.48-.37a2.24 2.24 0 0 1-.88-1.03c-.19-.44-.28-.96-.28-1.55 0-.59.1-1.1.28-1.54.2-.44.49-.78.88-1.02.39-.25.89-.37 1.48-.37.57 0 1.05.12 1.44.37.4.24.69.58.88 1.02.2.44.3.95.3 1.55Zm-4.51 0c0 .72.15 1.28.45 1.7.3.41.78.62 1.43.62.65 0 1.12-.2 1.42-.62.3-.42.45-.98.45-1.7a2.8 2.8 0 0 0-.45-1.7c-.3-.4-.77-.6-1.42-.6-.64 0-1.12.2-1.43.6-.3.41-.45.98-.45 1.7Zm16.32 0c0 .59-.1 1.1-.3 1.55-.2.44-.5.78-.89 1.02-.39.25-.87.37-1.44.37-.6 0-1.09-.12-1.48-.37a2.24 2.24 0 0 1-.88-1.03c-.19-.44-.29-.96-.29-1.55 0-.59.1-1.1.3-1.54.19-.44.48-.78.87-1.02.39-.25.89-.37 1.48-.37.57 0 1.05.12 1.44.37.4.24.69.58.88 1.02.2.44.3.95.3 1.55Zm-4.51 0c0 .72.15 1.28.45 1.7.3.41.78.62 1.43.62.65 0 1.12-.2 1.42-.62.3-.42.45-.98.45-1.7a2.8 2.8 0 0 0-.45-1.7c-.3-.4-.77-.6-1.42-.6-.64 0-1.12.2-1.43.6-.3.41-.45.98-.45 1.7Zm12.84-2.85c.75 0 1.3.14 1.64.44.34.3.5.7.5 1.24 0 .31-.06.6-.2.89-.15.27-.38.49-.72.66-.33.17-.78.26-1.35.26h-.66V53h-.72v-5.71h1.51Zm-.06.61h-.73v2.26h.58c.54 0 .95-.09 1.22-.26.26-.18.4-.48.4-.9 0-.37-.12-.64-.36-.82-.23-.19-.6-.28-1.1-.28Zm11.35 3.48c-.17.37-.34.7-.52.95-.17.25-.37.44-.6.57-.24.12-.54.18-.9.18a2.69 2.69 0 0 1-.78-.12v-.71c.1.05.22.09.34.12.13.02.25.04.39.04.3 0 .53-.07.7-.2.18-.12.34-.35.49-.67l-2.2-4.25h.8l1.58 3.14a4 4 0 0 1 .2.44h.03a6.28 6.28 0 0 1 .16-.41l1.37-3.17h.76l-1.82 4.09Zm9.69-1.32-2.22-2.77h.8l2.19 2.77v-2.77h.68v2.77l2.19-2.77h.8l-2.22 2.77 2.29 2.94h-.83l-2.23-2.9V53h-.69v-2.9l-2.24 2.9h-.82l2.3-2.94ZM221.15 53h-3.2v-5.71h3.2v.63h-2.47v1.78H221v.63h-2.32v2.04h2.47V53Zm11.18 0h-.72v-2.66h-2.93V53h-.72v-5.71h.72v2.41h2.93V47.3h.72V53Zm7.13-5.71h.67v3.13a21.49 21.49 0 0 1-.05 1.6h.03l3.14-4.73h.8V53h-.67v-3.74l.04-.61.02-.4h-.03L240.26 53h-.8v-5.71Zm13.41 3.34L251.4 53h-.84l1.6-2.5c-.2-.07-.4-.16-.57-.28-.18-.13-.32-.3-.44-.5a1.77 1.77 0 0 1-.16-.83c0-.52.18-.91.53-1.19.36-.27.9-.41 1.6-.41h1.6V53H254v-2.37h-1.12Zm.26-2.73c-.45 0-.8.08-1.05.24-.24.16-.36.42-.36.78a1 1 0 0 0 .35.82c.24.19.6.28 1.1.28h.82V47.9h-.86Z" fill="#0072DA"/><path d="M70.16.04c.24-.04.47.15.51.39V2.84c0 .34-.16.54-.5.54H59.7c-.5 0-1.01.04-1.52.15-.35.08-.7.28-.93.5-.27.28-.43.63-.5.98-.12.5-.16 1.05-.16 1.55V9.9c0 .5.04 1.05.15 1.55.08.35.24.7.5.98.28.27.6.42.94.5.5.12 1.01.16 1.52.16h10.46c.24-.04.47.15.51.38v2.42a.44.44 0 0 1-.39.5H59.54a13.2 13.2 0 0 1-3.03-.31 4.35 4.35 0 0 1-3.19-3.03 8.96 8.96 0 0 1-.35-2.88V6.25c-.04-.97.12-1.94.35-2.87.2-.74.62-1.4 1.17-1.9.58-.5 1.28-.9 2.02-1.1 1.01-.22 2.02-.34 3.03-.34h10.62ZM89.85.04c.23-.04.47.15.5.39v2.33c.05.23-.15.46-.38.5H76.74c-.2 0-.31.12-.31.35v3.1H89.7c.35 0 .54.16.54.51V9.1c0 .35-.2.5-.54.5H76.43v3.26c0 .24.12.35.31.35h13.11c.23-.04.47.16.5.39v2.33c.05.23-.15.47-.38.5H74.2a1.6 1.6 0 0 1-1.01-.27 1.15 1.15 0 0 1-.31-.93V1.2c0-.3.11-.62.3-.85.28-.23.63-.35 1.02-.35l15.64.04ZM106.08.04c1.82 0 3.1.39 3.89 1.2.77.82 1.16 2.02 1.16 3.61V6.6c0 1.6-.39 2.8-1.16 3.61-.78.82-2.07 1.2-3.9 1.24h-9.72v4.5a.44.44 0 0 1-.4.51h-2.64c-.35 0-.54-.15-.54-.5V.74c-.04-.35.2-.66.5-.7H106.07Zm-9.73 8.3h9.02c.82 0 1.37-.15 1.72-.5.35-.42.54-1 .5-1.55v-.9a2.18 2.18 0 0 0-.5-1.58c-.35-.35-.9-.51-1.72-.51h-8.71c-.2 0-.31.12-.31.27v4.78ZM127.55.04c1.6 0 2.76.3 3.46.97.7.66 1.02 1.63 1.02 2.91v1.13a3.3 3.3 0 0 1-1.52 2.99c1.09.62 1.63 1.63 1.63 3.03v1.36c0 .58-.08 1.12-.2 1.67-.11.46-.34.93-.7 1.28a2.8 2.8 0 0 1-1.28.81c-.62.2-1.32.31-1.98.27H114a.62.62 0 0 1-.7-.54V.74c-.04-.35.2-.66.5-.7H127.56ZM116.9 6.87h9.65c.78 0 1.32-.11 1.6-.35.3-.27.46-.66.42-1.05v-.81c.04-.39-.12-.78-.43-1.09a2 2 0 0 0-1.32-.35h-9.6c-.16-.04-.28.08-.32.24V6.87Zm0 2.57v3.49c0 .16.08.27.23.31h9.73a2 2 0 0 0 1.32-.35c.28-.27.43-.7.4-1.09v-.89c.03-.43-.13-.81-.44-1.09-.27-.23-.81-.38-1.6-.38h-9.64ZM147.78.04c1.01 0 2.06.08 3.04.35.74.2 1.44.54 2.02 1.09.54.5.97 1.2 1.17 1.9.27.93.39 1.9.35 2.87v4.04c.04.97-.12 1.94-.35 2.87-.2.74-.59 1.4-1.13 1.94-.59.5-1.29.9-2.06 1.1-1.01.22-2.03.34-3.04.3h-7.27a13.2 13.2 0 0 1-3.04-.3 4.68 4.68 0 0 1-2.02-1.1 4.36 4.36 0 0 1-1.17-1.94 8.97 8.97 0 0 1-.35-2.87V6.25c-.04-.97.12-1.94.35-2.87.23-.74.62-1.4 1.17-1.9.58-.5 1.28-.9 2.02-1.1 1.01-.22 2.03-.34 3.04-.34h7.27Zm-10.27 9.98a7 7 0 0 0 .16 1.55c.07.35.27.7.5.97.27.27.59.43.98.5.5.12 1 .16 1.51.16h7c.51 0 1.02-.04 1.52-.15.35-.08.7-.28.97-.5.28-.28.43-.63.51-.98.12-.5.16-1.05.16-1.55V6.48c0-.5-.04-1.04-.16-1.55-.08-.35-.23-.7-.5-.97a1.81 1.81 0 0 0-.98-.5 6.71 6.71 0 0 0-1.52-.16h-7c-.5 0-1.01.04-1.51.16-.36.07-.7.27-.98.54-.27.27-.43.62-.5.97a7 7 0 0 0-.16 1.55v3.5ZM56.2 23.53c.23-.04.46.16.5.39V36.3c0 .15.08.23.2.23h.23c.12 0 .27-.04.31-.16l6.97-11.5c.11-.22.27-.46.46-.65.16-.16.31-.31.5-.43.24-.11.48-.2.7-.2.36-.03.71-.07 1.06-.07h2.06c.59-.04 1.17.12 1.6.5.35.35.5.98.5 1.95v13.47c0 .35-.2.5-.54.5h-2.53a.44.44 0 0 1-.5-.38V27.18c0-.15-.08-.23-.2-.23h-.23a.35.35 0 0 0-.32.15l-7.04 11.46-.46.7c-.16.15-.32.3-.51.42-.2.12-.43.2-.7.24-.35.04-.7.07-1.05.07h-2.02a2.14 2.14 0 0 1-1.6-.5c-.35-.35-.54-.97-.54-1.94V24.04c0-.35.2-.5.54-.5h2.6ZM77.13 23.53c.27-.04.5.16.5.39v6.22h11.01v-6.1c-.03-.24.16-.47.4-.5H91.67c.27-.05.5.1.54.38v15.53c0 .35-.19.5-.54.5h-2.53a.44.44 0 0 1-.5-.38V33.2H77.62v6.25c.04.23-.15.47-.38.5H74.6c-.35 0-.54-.15-.54-.5V24.04c0-.35.19-.5.54-.5h2.53ZM107.98 40a.44.44 0 0 1-.5-.4V33.05h-2.26c-.31 0-.62 0-.94.04-.23.04-.46.08-.7.16-.19.08-.38.2-.54.3a6 6 0 0 0-.47.51l-4.32 5.63-.23.24a1.4 1.4 0 0 1-.43.07h-3.03c-.23 0-.35-.07-.39-.23a.37.37 0 0 1 .08-.35l4.82-6.1c.27-.34.55-.65.86-.97.27-.27.58-.5.93-.7a7.1 7.1 0 0 1-1.44-1.6l-4.55-5.89c-.08-.11-.12-.23-.04-.35.04-.11.16-.2.35-.2h2.92c.15 0 .31 0 .43.09.11.07.2.15.27.23l4 5.4c.16.19.32.38.51.54.16.16.31.23.5.31.24.08.44.16.67.16.27.03.58.03.93.03h1.99v-6.32c-.04-.24.15-.47.39-.5H110.43c.24-.05.47.15.5.38v6.37h2c.38 0 .7 0 .93-.04.23 0 .46-.08.66-.16.2-.07.35-.2.5-.3.2-.16.35-.36.5-.55l4.13-5.4.24-.23c.15-.08.3-.08.42-.08h2.92c.2 0 .31.08.35.2.04.11 0 .27-.04.34l-4.55 5.9c-.23.32-.47.63-.74.94-.2.23-.43.46-.66.66.7.46 1.28 1 1.79 1.7l4.83 6.1c.07.12.07.24.07.35 0 .16-.15.24-.39.24h-3.03c-.16 0-.27 0-.43-.08-.08-.08-.2-.16-.23-.24l-4.32-5.59a3.05 3.05 0 0 0-1.01-.85 5.73 5.73 0 0 0-1.64-.23h-2.25v6.44a.44.44 0 0 1-.4.5h-2.6V40ZM129.19 23.53c.23-.04.46.16.5.39V36.3c0 .15.08.23.2.23h.19c.12 0 .27-.04.35-.16l6.96-11.5c.12-.22.28-.46.47-.65.16-.16.31-.31.5-.43.24-.11.47-.2.7-.2.36-.03.7-.07 1.06-.07h2.06c.58-.04 1.17.12 1.6.5.34.35.5.98.5 1.95v13.47c0 .35-.2.5-.54.5h-2.53c-.24.04-.47-.15-.5-.38V27.18c0-.15-.09-.23-.2-.23h-.2a.36.36 0 0 0-.31.15l-7.04 11.46-.47.7a2.7 2.7 0 0 1-.5.42c-.2.12-.43.2-.7.24-.35.04-.7.07-1.05.07h-2.03a2.14 2.14 0 0 1-1.6-.5c-.34-.35-.54-.97-.54-1.94V24.04c0-.35.2-.5.55-.5h2.56ZM150.08 23.53c.23-.04.46.16.5.39v6.22h11.01v-6.1c-.04-.24.16-.47.4-.5h2.64c.27-.05.5.1.54.38v15.53c0 .35-.2.5-.54.5h-2.53c-.23.04-.47-.15-.5-.38V33.2h-11.02v6.25c.04.23-.15.47-.39.5H147.55c-.35 0-.55-.15-.55-.5V24.04a.43.43 0 0 1 .43-.5h2.65ZM171 23.53c.24-.04.51.12.55.39v12.42c0 .16.08.24.2.24h.2c.1 0 .26-.04.34-.16l6.97-11.5c.11-.22.27-.46.46-.65.16-.16.31-.31.5-.43.24-.12.48-.2.7-.2.36-.03.7-.07 1.06-.07h2.06c.59-.04 1.17.12 1.6.5.35.35.5.97.5 1.95v13.47c0 .35-.2.5-.54.5h-2.53a.44.44 0 0 1-.5-.38V27.18c0-.15-.08-.23-.2-.23h-.2a.35.35 0 0 0-.3.15l-7.05 11.46-.47.7c-.15.15-.3.3-.5.42s-.43.2-.7.24c-.35.04-.7.07-1.05.07h-2.03a2.14 2.14 0 0 1-1.6-.5c-.34-.35-.53-.97-.53-1.94V24.04c0-.35.19-.5.54-.5H171ZM202.21 23.53c1.83 0 3.11.43 3.9 1.24.77.82 1.16 2.02 1.16 3.61v1.75c0 1.6-.4 2.8-1.17 3.61-.78.82-2.06 1.2-3.89 1.25h-9.73v4.5a.44.44 0 0 1-.38.5h-2.65c-.35 0-.54-.15-.54-.5V24.23c-.04-.35.19-.66.5-.7H202.21Zm-9.73 8.31h9.03c.78 0 1.36-.16 1.67-.5.35-.43.55-1.01.5-1.56v-.9a2.3 2.3 0 0 0-.5-1.58c-.3-.35-.9-.5-1.67-.5h-8.72c-.19 0-.3.1-.3.26v4.78ZM212.48 23.53c.27-.04.5.16.5.39V36.3c0 .15.09.23.2.23h.2c.11 0 .27-.04.3-.16l6.97-11.5c.12-.22.27-.46.47-.65.15-.16.31-.31.5-.43.24-.11.47-.2.7-.2.36-.03.7-.07 1.06-.07h2.06c.58-.04 1.16.12 1.6.5.34.35.5.98.5 1.95v13.47c0 .35-.2.5-.55.5h-2.53a.44.44 0 0 1-.5-.38V27.18c0-.15-.08-.23-.2-.23h-.19a.35.35 0 0 0-.31.15l-7.04 11.46-.47.7c-.16.15-.31.3-.5.42-.2.12-.43.2-.7.24-.36.04-.7.07-1.06.07h-2.02a2.14 2.14 0 0 1-1.6-.5c-.34-.35-.54-.97-.54-1.94V24.04c0-.35.2-.5.54-.5h2.61ZM233.41 23.53c.24-.04.47.16.5.39v6.22h11.02v-6.1a.44.44 0 0 1 .39-.5H248c.35 0 .55.15.55.5v15.41c0 .35-.2.5-.55.5h-2.53a.44.44 0 0 1-.5-.38V33.2h-11.05v6.25a.44.44 0 0 1-.39.5h-2.65c-.35 0-.54-.15-.54-.5V24.04c0-.35.2-.5.54-.5h2.53ZM267.45 23.53c.24-.04.47.16.51.39v2.44c0 .35-.2.55-.5.55h-9.54c-.5 0-1 .04-1.51.15-.35.08-.7.28-.98.5-.23.28-.42.63-.5.98a7 7 0 0 0-.16 1.55v9.36c.04.23-.15.47-.39.5H251.74c-.35 0-.55-.15-.55-.5v-9.7c-.04-.98.12-1.95.35-2.88.2-.74.63-1.4 1.17-1.9.58-.5 1.28-.9 2.02-1.09 1.02-.23 2.03-.35 3.04-.35h9.69Z" fill="#212125"/><path d="M33.65 34.68A20.22 20.22 0 0 0 40.02 20V0h-20A20.26 20.26 0 0 0 5.34 6.4 19.88 19.88 0 0 0 .06 21.52 20.02 20.02 0 0 0 20.02 40c5.09.04 9.94-1.86 13.63-5.32ZM20.02 6.6h13.4v13.44c0 .3 0 .66-.04 1a13.4 13.4 0 0 1-26.76 0c-.04-.34-.04-.7-.04-1.04 0-7.42 6.02-13.44 13.44-13.4Z" fill="#007CC3"/></svg>